SplineFontDB: 3.0
FontName: NeutonCursive-Regular
FullName: Neuton Cursive
FamilyName: Neuton Cursive
Weight: Book
Copyright: Copyright (c) 2010, 2011 Brian M Zick (http://21326.info/), \nwith Reserved Font Name 'Neuton Cursive'.\n\nThis Font Software is licensed under the SIL Open Font License, Version 1.1.\nThis license is available with a FAQ at: http://scripts.sil.org/OFL\n   WITHOUT WARRANTIES OR CONDITIONS OF ANY KIND, either express or implied.\n   See the License for the specific language governing permissions and\n   limitations under the License.
Version: 1.46
ItalicAngle: 0
UnderlinePosition: -361
UnderlineWidth: 0
Ascent: 1638
Descent: 410
LayerCount: 2
Layer: 0 0 "Back"  1
Layer: 1 0 "Fore"  0
XUID: [1021 467 2011608612 8622985]
FSType: 1
OS2Version: 1
OS2_WeightWidthSlopeOnly: 0
OS2_UseTypoMetrics: 0
CreationTime: 1300472668
ModificationTime: 1335394292
PfmFamily: 17
TTFWeight: 500
TTFWidth: 5
LineGap: 0
VLineGap: 0
OS2TypoAscent: 2106
OS2TypoAOffset: 0
OS2TypoDescent: -485
OS2TypoDOffset: 0
OS2TypoLinegap: 0
OS2WinAscent: 2106
OS2WinAOffset: 0
OS2WinDescent: 485
OS2WinDOffset: 0
HheadAscent: 2106
HheadAOffset: 0
HheadDescent: -485
HheadDOffset: 0
OS2SubXSize: 1095
OS2SubYSize: 1179
OS2SubXOff: 0
OS2SubYOff: 235
OS2SupXSize: 1095
OS2SupYSize: 1179
OS2SupXOff: 0
OS2SupYOff: 809
OS2StrikeYSize: 84
OS2StrikeYPos: 436
OS2Vendor: 'PfEd'
OS2CodePages: 20000093.00000000
OS2UnicodeRanges: a00000ef.0000204a.00000000.00000000
Lookup: 1 0 0 "'onum' Oldstyle Figures lookup 1"  {"'onum' Oldstyle Figures lookup 1-1" ("osf" ) } ['onum' ('DFLT' <'dflt' > 'hebr' <'dflt' > 'latn' <'dflt' > ) ]
MarkAttachClasses: 1
DEI: 91125
ShortTable: maxp 16
  1
  0
  367
  132
  7
  0
  0
  2
  0
  1
  1
  0
  64
  0
  0
  0
EndShort

StartChar: exclam
Encoding: 2 33 1
Width: 441
VWidth: 1655
GlyphClass: 2
Flags: HMW
LayerCount: 2
Fore
SplineSet
109 1257 m 1
 140 1279 176 1290 217 1290 c 128
 258 1290 292 1278 318 1254 c 128
 344 1230 360 1196 368 1152 c 1
 372 1136 374 1114 373 1085 c 0
 371 1000 354 872 319 699 c 5
 244 338 l 1
 173 325 l 1
 185 495 l 2
 190 561 192 666 192 811 c 2
 192 874 l 1
 187 1022 160 1150 109 1257 c 1
238 206 m 128
 250 200 260 192 270 178 c 128
 280 164 285 154 288 143 c 128
 291 132 292 125 292 120 c 128
 292 115 290 100 284 73 c 128
 278 46 264 22 241 -1 c 128
 218 -24 191 -35 161 -35 c 1
 134 -33 114 -24 98 -8 c 128
 82 8 74 24 71 42 c 128
 68 60 67 68 67 71 c 128
 67 74 69 86 74 108 c 128
 79 130 91 153 114 176 c 128
 137 199 160 211 184 212 c 128
 208 213 226 212 238 206 c 128
EndSplineSet
Colour: ffffff
EndChar

StartChar: quotedbl
Encoding: 3 34 2
Width: 542
VWidth: 1655
GlyphClass: 2
Flags: HMW
LayerCount: 2
Fore
SplineSet
78 1308 m 1
 84 1310 102 1311 136 1310 c 128
 170 1309 212 1304 261 1292 c 1
 176 906 l 1
 153 898 128 894 101 895 c 2
 80 895 l 1
 78 1308 l 1
287 1308 m 1
 293 1310 312 1311 346 1310 c 128
 380 1309 421 1304 470 1292 c 1
 385 906 l 1
 362 898 337 894 310 895 c 2
 290 895 l 1
 287 1308 l 1
EndSplineSet
Colour: ffffff
EndChar

StartChar: numbersign
Encoding: 4 35 3
Width: 995
VWidth: 1655
GlyphClass: 2
Flags: HMW
LayerCount: 2
Fore
SplineSet
334 355 m 1
 283 174 l 1
 178 167 l 1
 233 355 l 1
 67 355 l 1
 108 455 l 1
 266 455 l 1
 329 662 l 1
 171 662 l 1
 210 760 l 1
 362 760 l 1
 419 931 l 1
 520 941 l 1
 463 760 l 1
 663 760 l 1
 717 931 l 1
 820 940 l 1
 763 760 l 1
 928 760 l 1
 889 662 l 1
 731 662 l 1
 669 455 l 1
 825 455 l 1
 786 355 l 1
 634 355 l 1
 583 174 l 1
 478 167 l 1
 534 355 l 1
 334 355 l 1
367 455 m 1
 566 455 l 1
 631 662 l 1
 430 662 l 1
 367 455 l 1
EndSplineSet
Colour: ffffff
EndChar

StartChar: dollar
Encoding: 5 36 4
Width: 977
VWidth: 1655
GlyphClass: 2
Flags: HMW
LayerCount: 2
Fore
SplineSet
595 1184 m 1
 591 1184 l 2
 546 1184 506 1168 468 1138 c 128
 430 1108 410 1067 406 1016 c 1
 406 1003 l 2
 406 945 426 894 466 850 c 1
 482 833 503 813 529 788 c 1
 595 1184 l 1
475 80 m 1
 516 83 554 94 587 116 c 0
 641 151 668 200 668 262 c 128
 668 324 646 378 603 423 c 1
 589 440 569 458 543 479 c 1
 475 80 l 1
292 401 m 1
 272 346 262 297 264 256 c 0
 264 193 296.154 146 359 113 c 1
 373 104 390 96 412 88 c 1
 486 525 l 1
 405 591 342 650 299 702 c 1
 243 773 215 841 215 906 c 2
 215 928 l 1
 219 966 230 1004 250 1043 c 1
 284 1108 330 1161 389 1200 c 128
 448 1239 510 1263 577 1273 c 1
 602 1417 l 1
 735 1426 l 1
 710 1271 l 1
 791 1256 858 1225 912 1178 c 1
 847 832 l 1
 759 851 l 1
 752 1101 l 1
 729 1134 698 1157 659 1171 c 1
 586 741 l 1
 673 668 727 621 750 600 c 0
 819 532 858 457 869 376 c 0
 871 371 871 362 870 346 c 0
 870 261 839 185 776 120 c 1
 725 66 660 26 581 0 c 0
 552 -10 522 -15 491 -19 c 1
 468 -157 l 1
 339 -167 l 1
 364 -19 l 1
 291 -11 227 12 170 49 c 0
 140 70 116 94 98 123 c 128
 80 152 70 180 67 207 c 1
 65 211 65 218 65 232 c 128
 65 246 67 264 73 286 c 1
 91 339 125 375 177 395 c 1
 200 406 224 411 250 411 c 128
 265.167 411 279.75 408 292 401 c 1
EndSplineSet
Colour: ffffff
EndChar

StartChar: percent
Encoding: 6 37 5
Width: 1163
VWidth: 1655
GlyphClass: 2
Flags: HMW
LayerCount: 2
Fore
SplineSet
909 962 m 1
 1045 971 l 1
 236 -23 l 1
 94 -31 l 1
 909 962 l 1
554 770 m 0
 554 768 554 754 552 727 c 1
 542 649 513 587 463 541 c 128
 413 495 352 471 281 471 c 128
 210 471 156 491 121 530 c 128
 86 569 68 621 68 686 c 0
 68 769 96 838 152 893 c 128
 208 948 271 975 343 975 c 128
 415 975 469 957 503 920 c 128
 537 883 554 833 554 770 c 0
324 883 m 0
 231 883 185 821 186 699 c 0
 186 608 223 563 297 562 c 0
 379 562 425 619 437 733 c 0
 439 745 439 752 439 754 c 0
 439 794 430 825 409 848 c 128
 388 871 360 883 324 883 c 0
1096 274 m 0
 1096 270 1095 257 1092 233 c 1
 1083 156 1054 94 1003 47 c 128
 952 0 891 -24 820 -24 c 128
 749 -24 696 -3 661 37 c 128
 626 77 608 128 608 191 c 0
 608 272 637 339 696 394 c 128
 755 449 820 476 890 476 c 128
 960 476 1012 458 1046 421 c 128
 1080 384 1096 335 1096 274 c 0
726 202 m 0
 726 113 763 68 838 68 c 0
 919 68 965 119 977 220 c 0
 979 226 979 236 979 254 c 0
 979 295 969 327 948 350 c 128
 927 373 900 385 864 385 c 0
 785 385 740 337 728 240 c 0
 726 234 726 222 726 202 c 0
EndSplineSet
Colour: ffffff
EndChar

StartChar: ampersand
Encoding: 7 38 6
Width: 1230
VWidth: 1655
GlyphClass: 2
Flags: HMW
LayerCount: 2
Fore
SplineSet
287 872 m 0
 287 1050.9 453.162 1220 663 1220 c 128
 813.836 1220 921 1126.06 921 985 c 0
 921 793 722 673 567 627 c 1
 585.489 601.527 537 695 537 695 c 17
 650 725 738 849 738 933 c 128
 738 1062.33 673.982 1127 594 1127 c 128
 512.474 1127 460 1046.18 460 971 c 0
 460 842.781 497 778 578 645 c 2
 885.457 141 l 2
 924.243 69.1885 963 0 963 -79 c 0
 963 -272.492 706.194 -363 544 -301 c 1
 537 -265 l 1
 654.073 -243.917 772 -212.549 772 -112 c 0
 772 -56 758.668 -35.1377 708.289 61 c 2
 392.611 585 l 2
 319 707 287 798.101 287 872 c 0
813 617 m 1
 849.659 671.037 898.37 701 969 701 c 0
 1079.66 701 1162 586.288 1162 460 c 0
 1162 113.594 741.191 -52 430 -52 c 0
 242.972 -52 67 29.7617 67 270 c 0
 67 436 230 560 404.461 643.428 c 1
 404.668 635.17 446 572 446 572 c 1
 304 488.655 279 408.621 279 309 c 0
 279 151.666 407.636 72 562 72 c 0
 757.265 72 978 158.641 978 400 c 0
 978 488.279 923.268 578.565 813 617 c 1
EndSplineSet
Colour: ffffff
EndChar

StartChar: quotesingle
Encoding: 8 39 7
Width: 333
VWidth: 1655
GlyphClass: 2
Flags: HMW
LayerCount: 2
Fore
SplineSet
78 1308 m 5
 84 1310 102 1311 136 1310 c 128
 170 1309 212 1304 261 1292 c 1
 176 906 l 1
 153 898 128 894 101 895 c 2
 80 895 l 1
 78 1308 l 5
EndSplineSet
Colour: ffffff
EndChar

StartChar: parenleft
Encoding: 9 40 8
Width: 626
VWidth: 1655
GlyphClass: 2
Flags: HMW
LayerCount: 2
Fore
SplineSet
310 -378 m 1
 149 -195 68 27 67 287 c 0
 67 338 71 402 80 477 c 128
 89 552 108 635 138 724 c 128
 168 813 200 885 232 940 c 128
 264 995 302 1047 345 1098 c 128
 388 1149 423 1187 452 1212 c 128
 481 1237 502 1254 517 1266 c 1
 559 1199 l 1
 398 1020 298 774 259 460 c 0
 251 401 248 341 247 282 c 1
 249 72 296 -129 387 -320 c 1
 310 -378 l 1
EndSplineSet
Colour: ffffff
EndChar

StartChar: parenright
Encoding: 10 41 9
Width: 644
VWidth: 1655
GlyphClass: 2
Flags: HMW
LayerCount: 2
Fore
SplineSet
67 -320 m 1
 290 -16 401 319 402 685 c 0
 402 886 358 1057 270 1199 c 1
 328 1266 l 1
 494 1111 577 897 576 621 c 0
 576 467 550 317 499 170 c 0
 468 84 437 12 405 -45 c 128
 373 -102 338 -152 301 -197 c 128
 264 -242 236 -276 216 -298 c 0
 192 -325 163 -351 129 -378 c 1
 67 -320 l 1
EndSplineSet
Colour: ffffff
EndChar

StartChar: asterisk
Encoding: 11 42 10
Width: 851
VWidth: 0
GlyphClass: 2
Flags: HMW
LayerCount: 2
Fore
SplineSet
354 1292 m 1
 490 1279 l 1
 464 988 l 1
 753 1119 l 1
 782 989 l 1
 497 921 l 1
 716 692 l 1
 598 623 l 1
 445 870 l 1
 290 593 l 1
 188 685 l 1
 381 904 l 1
 69 964 l 1
 124 1091 l 1
 391 977 l 1
 354 1292 l 1
EndSplineSet
Colour: ffffff
EndChar

StartChar: plus
Encoding: 12 43 11
Width: 708
VWidth: 1655
GlyphClass: 2
Flags: HMW
LayerCount: 2
Fore
SplineSet
403 413 m 1
 375 174 l 1
 266 186 l 1
 294 413 l 1
 70 413 l 1
 95 514 l 1
 304 514 l 1
 334 747 l 1
 440 734 l 1
 415 514 l 1
 638 514 l 1
 612 413 l 1
 403 413 l 1
EndSplineSet
Colour: ffffff
EndChar

StartChar: comma
Encoding: 13 44 12
Width: 478
VWidth: 1655
GlyphClass: 2
Flags: HMW
LayerCount: 2
Fore
SplineSet
262 227 m 2
 277 227 l 1
 329 221 366 188 388 127 c 0
 398 103 402 80 403 57 c 0
 403 -44 353 -132 254 -209 c 1
 210 -245 160 -276 105 -303 c 1
 73 -251 l 1
 132 -220 174 -187 199 -149 c 128
 224 -111 236 -74 236 -39 c 0
 236 -37 234 -26 230 -4 c 128
 226 18 215 42 195 64 c 128
 175 86 153 103 128 116 c 1
 138 152 155 179 182 198 c 128
 209 217 235 227 262 227 c 2
EndSplineSet
Colour: ffffff
EndChar

StartChar: hyphen
Encoding: 14 45 13
Width: 560
VWidth: 1655
GlyphClass: 2
Flags: HMW
LayerCount: 2
Fore
SplineSet
85 489 m 1
 485 507 l 1
 473 408 l 1
 74 390 l 1
 85 489 l 1
EndSplineSet
Colour: ffffff
EndChar

StartChar: period
Encoding: 15 46 14
Width: 374
VWidth: 1655
GlyphClass: 2
Flags: HMW
LayerCount: 2
Fore
SplineSet
245 206 m 128
 257 200 267 192 277 178 c 128
 287 164 292 154 295 143 c 128
 298 132 299 125 299 120 c 128
 299 115 297 100 291 73 c 128
 285 46 271 22 248 -1 c 128
 225 -24 198 -35 168 -35 c 1
 141 -33 121 -24 105 -8 c 128
 89 8 81 24 78 42 c 128
 75 60 74 68 74 71 c 128
 74 74 76 86 81 108 c 128
 86 130 98 153 121 176 c 128
 144 199 167 211 191 212 c 128
 215 213 233 212 245 206 c 128
EndSplineSet
Colour: ffffff
EndChar

StartChar: slash
Encoding: 16 47 15
Width: 734
VWidth: 1655
GlyphClass: 2
Flags: HMW
LayerCount: 2
Fore
SplineSet
533 1245 m 1
 667 1252 l 1
 198 -357 l 1
 67 -367 l 1
 533 1245 l 1
EndSplineSet
Colour: ffffff
EndChar

StartChar: zero
Encoding: 17 48 16
Width: 973
VWidth: 1655
GlyphClass: 2
Flags: HMW
LayerCount: 2
Fore
SplineSet
548 1158 m 1
 613 1154 670 1133 719 1092 c 128
 768 1051 809 997 840 931 c 0
 883 840 905 736 905 618 c 0
 905 611 904 586 901 543 c 1
 889 402 850 282 781 181 c 0
 743 126 699 81 650 45 c 128
 601 9 557 -11 517 -16 c 128
 477 -21 457 -23 453 -23 c 0
 390 -23 330 -5 274 30 c 128
 218 65 172 119 137 191 c 128
 102 263 81 345 73 437 c 1
 69 466 68 503 68 548 c 128
 68 593 74 644 88 702 c 0
 115 818 166 921 243 1011 c 1
 288 1063 334 1100 380 1123 c 128
 426 1146 476 1158 531 1158 c 2
 548 1158 l 1
257 864 m 1
 237 801 227 731 228 653 c 0
 228 509 260 375 323 251 c 1
 375 151 442 101 523 101 c 0
 585 101 632 125 665 173 c 0
 686 204 705 252 722 317 c 128
 739 382 746 448 746 517 c 0
 746 624 723 728 679 829 c 128
 635 930 580 995 513 1022 c 1
 489 1031 472 1035 461 1036 c 128
 450 1037 435 1035 415 1032 c 1
 337 1015 284 959 257 864 c 1
EndSplineSet
Substitution2: "'onum' Oldstyle Figures lookup 1-1" zero.osf
Colour: ffffff
EndChar

StartChar: one
Encoding: 18 49 17
Width: 651
VWidth: 1655
GlyphClass: 2
Flags: HMW
LayerCount: 2
Fore
SplineSet
264 -14 m 1
 312 261 341 438 352 516 c 128
 363 594 370 658 378 707 c 128
 386 756 392 806 399 857 c 128
 406 908 413 968 423 1036 c 1
 414 1032 l 1
 388 959 360 907 331 879 c 128
 302 851 275 834 250 826 c 128
 225 818 204 815 187 815 c 128
 170 815 152 820 131 830 c 0
 89 850 68 885 67 935 c 0
 67 937 68 944 71 959 c 1
 175 966 269 997 354 1053 c 1
 392 1078 426 1107 457 1138 c 1
 583 1154 l 1
 484 -8 l 1
 264 -14 l 1
EndSplineSet
Substitution2: "'onum' Oldstyle Figures lookup 1-1" one.osf
Colour: ffffff
EndChar

StartChar: two
Encoding: 19 50 18
Width: 971
VWidth: 1655
GlyphClass: 2
Flags: HMW
LayerCount: 2
Fore
SplineSet
440 664 m 1
 409 626 375 607 338 607 c 0
 266 607 216 639 188 702 c 1
 177 725 172 758 172 802 c 128
 172 846 191 899 228 961 c 128
 265 1023 314 1074 375 1114 c 128
 436 1154 505 1176 581 1178 c 1
 595 1178 l 2
 684 1178 755 1150 809 1094 c 1
 872 1031 903 948 904 845 c 0
 903 698 832 558 688 424 c 0
 625 365 527 291 395 200 c 2
 282 123 l 1
 282 113 l 1
 483 121 l 1
 499 121 518 121 542 123 c 128
 566 125 581 125 589 125 c 0
 658 131 710 159 745 212 c 0
 761 234 774 262 788 296 c 2
 821 376 l 1
 895 349 l 1
 894 343 888 297 874 210 c 0
 860 123 844 48 825 -16 c 1
 670 -16 l 1
 508 -14 362 -10 230 -3 c 2
 67 5 l 1
 78 101 l 1
 259 211 l 2
 374 281 457 337 506 381 c 128
 555 425 591 464 615 499 c 128
 639 534 660 574 679 621 c 128
 698 668 708 723 710 786 c 1
 710 797 l 2
 710 863 696 922 668 974 c 128
 640 1026 601 1061 552 1078 c 1
 532 1084 510 1086 486 1086 c 128
 462 1086 435 1075 405 1054 c 128
 375 1033 356 1005 343 973 c 128
 330 941 324 912 324 885 c 0
 324 797 363 723 440 664 c 1
EndSplineSet
Substitution2: "'onum' Oldstyle Figures lookup 1-1" two.osf
Colour: ffffff
EndChar

StartChar: three
Encoding: 20 51 19
Width: 904
VWidth: 1655
GlyphClass: 2
Flags: HMW
LayerCount: 2
Fore
SplineSet
372 589 m 1
 497.578 651.167 663 735.159 663 915 c 0
 663 1023.03 607.954 1099 511 1099 c 128
 425.754 1099 357 1049.26 357 969 c 128
 357 892.109 393 848 431 815 c 1
 413.064 781.121 381.479 757 338 757 c 1
 336 755 335 755 331 755 c 0
 262.663 755 210 817.086 210 888 c 0
 210 1059.7 423.426 1179 593 1179 c 0
 745.659 1179 836 1105.01 836 961 c 128
 836 779.168 673 676 571 625 c 1
 571 621 l 1
 704.569 621 823 522.215 823 372 c 0
 823 122.151 577.198 -28 336 -28 c 128
 201.374 -28 69.1055 44.8994 67 167 c 1
 67 272.75 150.88 333.335 247 332 c 1
 215.728 188.148 285.177 63 416 63 c 0
 535.541 63 640 134.941 640 283 c 0
 640 459.429 501 553.422 366 530 c 1
 372 589 l 1
EndSplineSet
Substitution2: "'onum' Oldstyle Figures lookup 1-1" three.osf
Colour: ffffff
EndChar

StartChar: four
Encoding: 21 52 20
Width: 967
VWidth: 1655
GlyphClass: 2
Flags: HMW
LayerCount: 2
Fore
SplineSet
402 532 m 2
 212 353 l 1
 558 360 l 1
 579 585 l 1
 749 702 l 1
 705 365 l 1
 900 369 l 1
 867 233 l 1
 696 241 l 1
 677 14 l 1
 519 -12 l 1
 550 246 l 1
 82 267 l 1
 67 323 l 1
 256 510 l 2
 432.394 684.527 625.451 859.043 621 1184 c 1
 722.047 1202.37 795 1137.75 795 1046 c 128
 795 908 585.337 706.425 402 532 c 2
EndSplineSet
Substitution2: "'onum' Oldstyle Figures lookup 1-1" four.osf
Colour: ffffff
EndChar

StartChar: five
Encoding: 22 53 21
Width: 935
VWidth: 1655
GlyphClass: 2
Flags: HMW
LayerCount: 2
Fore
SplineSet
868 1092 m 1
 859 998 792 951 667 951 c 0
 610 951 552 954 495 962 c 0
 438 970 407 973 402 973 c 1
 349 750 l 1
 357 747 l 1
 363 747 366 747 370 748 c 1
 386 748 l 2
 502 748 599 712 677 641 c 1
 753 567 791 480 792 380 c 0
 792 281 760 192 697 114 c 0
 650 57 591 17 519 -5 c 1
 472 -23 428 -31 389 -31 c 128
 350 -31 329 -31 323 -30 c 1
 261 -26 207 -11 162 18 c 1
 99 57 68 112 67 184 c 0
 67 188 68 198 71 216 c 1
 79 247 94 277 118 303 c 128
 142 329 174 343 214 346 c 1
 216 336 220 310 230 269 c 1
 263 161 322 99 408 81 c 1
 431 79 443 78 445 78 c 0
 485 78 522 89 558 111 c 128
 594 133 616 160 625 193 c 128
 634 226 638 250 638 267 c 128
 638 284 638 298 636 311 c 128
 634 324 627 348 612 383 c 1
 589 441 555 488 510 524 c 128
 465 560 414 582 357 592 c 1
 324 599 291 602 258 602 c 1
 235 620 l 1
 370 1115 l 1
 386 1113 422 1113 477 1113 c 0
 628 1113 755 1129 858 1160 c 1
 865 1140 868 1121 868 1104 c 2
 868 1092 l 1
EndSplineSet
Substitution2: "'onum' Oldstyle Figures lookup 1-1" five.osf
Colour: ffffff
EndChar

StartChar: six
Encoding: 23 54 22
Width: 898
VWidth: 1655
GlyphClass: 2
Flags: HMW
LayerCount: 2
Fore
SplineSet
239 423 m 2
 239 388 l 1
 245 264 269 178 313 129 c 1
 347 89 384 69 425 70 c 0
 427 70 430 70 434 72 c 1
 441 72 l 1
 468 76 493 86 516 104 c 0
 560 144 587 213 597 310 c 0
 601 334 602 359 601 385 c 0
 601 434 592 477 574 514 c 1
 565 534 551 551 531 566 c 1
 500 589 465 600 426 601 c 128
 387 602 350 596 316 584 c 128
 282 572 258 556 244 534 c 1
 240 498 239 461 239 423 c 2
125 675 m 0
 194 866 304 1009 455 1104 c 1
 522 1145 584 1165 639 1164 c 0
 691 1164 733 1151 766 1124 c 0
 809 1087 831 1044 830 995 c 0
 830 966 823 938 807 912 c 128
 791 886 768 866 736 853 c 1
 709 922 670 972 621 1003 c 0
 598 1017 576 1025 553 1029 c 1
 537 1029 l 2
 478 1029 428 1001 386 945 c 128
 344 889 313 825 292 752 c 0
 271 679 259 630 255 604 c 1
 284 642 321 670 368 690 c 128
 415 710 463 718 513 717 c 128
 563 716 607 705 645 682 c 128
 683 659 713 630 734 594 c 128
 755 558 766 523 770 487 c 128
 774 451 776 432 776 427 c 0
 776 372 763 312 737 249 c 128
 711 186 675 134 629 91 c 1
 550 20 466 -15 377 -16 c 0
 361 -16 351 -16 346 -14 c 1
 239 -5 159 52 106 158 c 1
 81 213 69 275 68 344 c 0
 68 372 68 390 70 398 c 1
 76 497 94 590 125 675 c 0
EndSplineSet
Substitution2: "'onum' Oldstyle Figures lookup 1-1" six.osf
Colour: ffffff
EndChar

StartChar: seven
Encoding: 24 55 23
Width: 958
VWidth: 1655
GlyphClass: 2
Flags: HMW
LayerCount: 2
Fore
SplineSet
470 537 m 4
 431 454 412 369 412 282 c 132
 412 195 443 117 505 49 c 5
 487 26 462 9 428 -3 c 5
 418 -8 405 -10 389 -10 c 132
 373 -10 353 -6 327 2 c 132
 301 10 276 28 253 58 c 132
 230 88 218 120 214 153 c 132
 210 186 208 210 208 228 c 4
 208 269 230 335 273 427 c 5
 319 515 388 619 480 738 c 6
 700 1022 l 5
 584 1018 477 1013 378 1005 c 132
 279 997 223 993 208 990 c 5
 142 830 l 5
 67 851 l 5
 101 1142 l 5
 117 1144 174 1147 276 1153 c 132
 378 1159 465 1161 536 1161 c 5
 891 1148 l 5
 888 1090 l 5
 654 812 l 6
 570 711 509 619 470 537 c 4
EndSplineSet
Substitution2: "'onum' Oldstyle Figures lookup 1-1" seven.osf
Colour: ffffff
EndChar

StartChar: eight
Encoding: 25 56 24
Width: 849
VWidth: 1655
GlyphClass: 2
Flags: HMW
LayerCount: 2
Fore
SplineSet
530 653 m 1
 591 707 621 783 620 882 c 0
 620 935 612 978 594 1012 c 128
 576 1046 556 1068 534 1077 c 128
 512 1086 494 1090 478 1090 c 1
 457 1089 l 1
 434 1085 414 1076 396 1059 c 128
 378 1042 367 1021 360 997 c 128
 353 973 350 955 350 941 c 2
 350 931 l 1
 354 878 376 826 418 775 c 0
 452 733 489 692 530 653 c 1
305 618 m 1
 232 701 196 783 195 864 c 0
 195 878 195 886 196 890 c 1
 207 981 258 1056 350 1117 c 1
 412 1156 476 1175 543 1175 c 128
 610 1175 667 1152 713 1106 c 128
 759 1060 781 1005 781 941 c 0
 781 925 781 915 780 911 c 1
 774 852 752 795 712 740 c 128
 672 685 627 641 576 608 c 1
 637 547 681 492 706 443 c 128
 731 394 744 345 744 296 c 0
 744 280 744 270 742 265 c 1
 738 229 728 194 708 160 c 128
 688 126 663 98 632 75 c 1
 577 30 509 -1 428 -18 c 0
 401 -24 372 -26 341 -26 c 0
 229 -26 148 16 98 99 c 1
 77 132 67 171 67 216 c 0
 67 232 67 240 69 242 c 1
 73 287 85 327 106 363 c 0
 127 398 160 441 205 492 c 1
 248 535 287 570 323 599 c 1
 305 618 l 1
366 557 m 1
 284 465 242 375 240 286 c 1
 240 269 l 2
 240 186 269 126 328 89 c 0
 354 72 381 63 410 61 c 1
 414 61 l 2
 461 61 499 77 530 110 c 128
 561 143 576 189 576 246 c 128
 576 303 545 367 484 437 c 0
 468 458 429 498 366 557 c 1
EndSplineSet
Substitution2: "'onum' Oldstyle Figures lookup 1-1" eight.osf
Colour: ffffff
EndChar

StartChar: nine
Encoding: 26 57 25
Width: 841
VWidth: 1655
GlyphClass: 2
Flags: HMW
LayerCount: 2
Fore
SplineSet
408 1090 m 0
 309 1090 254 1003 240 830 c 1
 240 812 l 1
 238 806 238 801 238 794 c 0
 238 682 271 609 338 574 c 0
 363 561 390 555 419 555 c 0
 423 555 438 557 465 561 c 128
 492 565 516 571 539 583 c 128
 562 595 577 602 585 609 c 128
 593 616 600 624 609 636 c 1
 609 681 l 2
 609 782 598 866 576 933 c 0
 543 1038 487 1090 408 1090 c 0
773 739 m 2
 773 632 761 534 736 445 c 128
 711 356 667 270 605 188 c 1
 500 53 388 -14 270 -14 c 2
 263 -14 l 2
 229 -14 197 -7 167 6 c 128
 137 19 114 38 95 64 c 128
 76 90 67 120 67 153 c 0
 67 157 68 166 71 184 c 1
 83 229 109 263 150 284 c 1
 170 248 196 217 227 191 c 1
 277 157 320 140 357 141 c 0
 371 141 379 141 382 142 c 1
 443 148 492 181 531 242 c 1
 559 289 579 357 593 448 c 0
 594 452 597 488 604 557 c 1
 579 522 546 494 504 472 c 128
 462 450 419 438 376 434 c 1
 371 432 356 432 328 432 c 128
 300 432 267 441 229 460 c 128
 191 479 161 503 140 534 c 1
 104 583 86 647 87 726 c 0
 87 827 114 920 168 1005 c 0
 202 1057 243 1098 292 1130 c 128
 341 1162 394 1178 451 1180 c 1
 460 1180 l 2
 512 1180 560 1167 603 1143 c 128
 646 1119 681 1084 708 1039 c 1
 747 975 768 891 773 788 c 1
 773 739 l 2
EndSplineSet
Substitution2: "'onum' Oldstyle Figures lookup 1-1" nine.osf
Colour: ffffff
EndChar

StartChar: colon
Encoding: 27 58 26
Width: 429
VWidth: 1655
GlyphClass: 2
Flags: HMW
LayerCount: 2
Fore
SplineSet
359.251 755 m 0
 359.251 753 358.251 744 356.251 726 c 1
 348.251 695 334.251 672 314.251 653 c 128
 294.251 634 271.251 625 245.251 625 c 128
 219.251 625 198.251 632 185.251 646 c 128
 172.251 660 165.251 676 161.251 696 c 1
 159.251 698 159.251 701 159.251 708 c 128
 159.251 715 160.251 728 164.251 750 c 128
 168.251 772 181.251 794 202.251 815 c 128
 223.251 836 248.251 846 275.251 847 c 128
 302.251 848 323.251 839 338.251 820 c 128
 353.251 801 359.251 779 359.251 755 c 0
252.251 165 m 1
 265.251 147 270.251 132 271.251 120 c 128
 272.251 108 271.251 95 268.251 77 c 1
 261.251 50 248.251 27 227.251 5 c 128
 206.251 -17 181.251 -28 154.251 -28 c 1
 131.251 -26 112.251 -18 98.251 -3 c 1
 78.251 17 68.251 41 70.251 68 c 0
 70.251 104 83.251 134 108.251 159 c 128
 133.251 184 155.251 195 175.251 196 c 128
 195.251 197 210.251 196 220.251 191 c 128
 230.251 186 240.251 178 252.251 165 c 1
EndSplineSet
Colour: ffffff
EndChar

StartChar: semicolon
Encoding: 28 59 27
Width: 510
VWidth: 1655
GlyphClass: 2
Flags: HMW
LayerCount: 2
Fore
SplineSet
177 181 m 1
 200 194 221 200 242 200 c 2
 252 200 l 1
 299 194 332 164 352 109 c 1
 361 82 365 63 366 51 c 128
 367 39 364 18 360 -11 c 128
 356 -40 342 -70 319 -103 c 0
 271 -172 197 -231 98 -280 c 1
 69 -230 l 1
 102 -210 124 -196 136 -187 c 128
 148 -178 163 -160 184 -134 c 128
 205 -108 216 -76 216 -40 c 0
 216 -38 214 -28 210 -9 c 128
 206 10 195 30 177 50 c 128
 159 70 140 87 119 101 c 1
 127 133 146 160 177 181 c 1
421 815 m 1
 434 797 439 782 440 770 c 128
 441 758 440 744 438 726 c 1
 430 695 417 672 397 653 c 128
 377 634 355 625 328 625 c 128
 301 625 282 632 268 646 c 0
 248 667 238 691 239 719 c 0
 239 754 251 785 276 810 c 128
 301 835 324 846 344 847 c 128
 364 848 378 846 388 841 c 128
 398 836 409 829 421 815 c 1
EndSplineSet
Colour: ffffff
EndChar

StartChar: less
Encoding: 29 60 28
Width: 793
VWidth: 1655
GlyphClass: 2
Flags: HMW
LayerCount: 2
Fore
SplineSet
67 419 m 1
 74 446 l 1
 682 952 l 1
 726 883 l 1
 302 446 l 1
 605 -13 l 1
 532 -81 l 1
 67 419 l 1
EndSplineSet
Colour: ffffff
EndChar

StartChar: equal
Encoding: 30 61 29
Width: 810
VWidth: 1655
GlyphClass: 2
Flags: HMW
LayerCount: 2
Fore
SplineSet
97 416 m 1
 700 416 l 1
 672 311 l 1
 70 311 l 1
 97 416 l 1
138 651 m 1
 739 651 l 1
 711 546 l 1
 110 546 l 1
 138 651 l 1
EndSplineSet
Colour: ffffff
EndChar

StartChar: greater
Encoding: 31 62 30
Width: 811
VWidth: 1655
GlyphClass: 2
Flags: HMW
LayerCount: 2
Fore
SplineSet
741 419 m 1
 117 -81 l 1
 67 -13 l 1
 512 446 l 1
 227 883 l 1
 293 952 l 1
 743 446 l 1
 741 419 l 1
EndSplineSet
Colour: ffffff
EndChar

StartChar: question
Encoding: 32 63 31
Width: 685
VWidth: 1655
GlyphClass: 2
Flags: HMW
LayerCount: 2
Fore
SplineSet
238 206 m 128
 250 200 260 192 270 178 c 128
 280 164 285 154 288 143 c 128
 291 132 292 125 292 120 c 128
 292 115 290 100 284 73 c 128
 278 46 264 22 241 -1 c 128
 218 -24 191 -35 161 -35 c 1
 134 -33 114 -24 98 -8 c 128
 82 8 74 24 71 42 c 128
 68 60 67 68 67 71 c 128
 67 74 69 86 74 108 c 128
 79 130 91 153 114 176 c 128
 137 199 160 211 184 212 c 128
 208 213 226 212 238 206 c 128
146 504 m 1
 141 555 l 1
 141 595 152 631 175 662 c 128
 198 693 221 715 244 730 c 128
 267 745 297 759 335 775 c 128
 373 791 401 804 420 816 c 128
 439 828 457 844 477 866 c 128
 497 888 507 913 510 941 c 0
 510 945 510 947 511 951 c 1
 511 959 l 2
 511 1012 487 1057 438 1092 c 1
 418 1105 402 1112 388 1114 c 128
 374 1116 368 1117 367 1118 c 1
 358 1118 l 2
 323 1118 287 1110 250 1093 c 128
 213 1076 186 1061 169 1045 c 1
 158 1050 149 1057 140 1069 c 1
 122 1089 114 1107 114 1125 c 128
 114 1143 114 1153 116 1156 c 1
 124 1204 155 1242 209 1269 c 0
 241 1285 275 1292 311 1292 c 2
 332 1292 l 1
 391 1288 443 1269 487 1234 c 128
 531 1199 564 1154 585 1101 c 128
 606 1048 617 1000 617 957 c 128
 617 914 615 884 610 864 c 0
 597 801 564 746 510 699 c 1
 475 669 432 646 383 628 c 1
 348 614 327 604 317 594 c 128
 307 584 297 574 287 562 c 0
 269 543 261 513 260 472 c 0
 260 464 260 457 262 451 c 1
 262 430 l 2
 262 428 263 414 267 385 c 1
 189 369 l 1
 166 428 152 473 146 504 c 1
EndSplineSet
Colour: ffffff
EndChar

StartChar: at
Encoding: 33 64 32
Width: 1398
VWidth: 1655
GlyphClass: 2
Flags: HMW
LayerCount: 2
Fore
SplineSet
823.021 602 m 1
 782.021 663 741.021 693 700.021 693 c 2
 693.021 693 l 2
 673.021 693 654.021 687 633.021 673 c 128
 612.021 659 597.021 644 586.021 625 c 1
 569.021 600 553.021 553 537.021 485 c 128
 521.021 417 514.021 363 514.021 320 c 2
 514.021 307 l 2
 514.021 284 515.021 263 518.021 244 c 128
 521.021 225 524.021 214 526.021 210 c 128
 528.021 206 530.021 203 534.021 199 c 128
 538.021 195 539.021 194 540.021 193 c 128
 541.021 192 543.021 191 547.021 188 c 0
 552.021 183 560.021 181 572.021 181 c 128
 584.021 181 598.021 186 614.021 198 c 128
 630.021 210 648.021 228 669.021 253 c 128
 690.021 278 718.021 326 753.021 398 c 128
 788.021 470 811.021 538 823.021 602 c 1
762.021 83 m 128
 750.021 98 745.021 124 745.021 159 c 128
 745.021 194 755.021 242 775.021 305 c 1
 763.021 307 l 1
 738.021 254 714.021 211 690.021 177 c 128
 666.021 143 637.021 115 604.021 93 c 128
 571.021 71 537.021 60 503.022 60 c 128
 469.022 60 440.022 74 416.022 104 c 128
 392.022 134 380.022 167 376.022 204 c 1
 374.022 210 374.022 224 374.022 249 c 128
 374.022 274 381.022 323 397.022 395 c 0
 427.022 532 495.022 646 602.021 738 c 1
 647.021 773 688.021 790 726.021 790 c 128
 764.021 790 800.021 771 835.021 733 c 1
 849.021 731 l 1
 855.021 802 l 1
 874.021 809 l 1
 979.021 778 l 1
 918.021 463 l 1
 903.021 356 896.021 301 894.021 296 c 1
 891.021 253 l 2
 889.021 218 888.021 201 888.021 199 c 2
 888.021 188 l 2
 888.021 184 889.021 181 894.021 176 c 128
 899.021 171 903.021 168 908.021 168 c 128
 913.021 168 916.021 168 918.021 170 c 1
 926.021 170 l 1
 942.021 172 953.021 173 959.021 175 c 128
 965.021 177 971.021 177 978.021 179 c 128
 985.021 181 989.021 182 991.021 183 c 128
 993.021 184 996.021 185 1002.02 187 c 128
 1008.02 189 1012.02 190 1015.02 192 c 128
 1018.02 194 1021.02 196 1026.02 199 c 128
 1031.02 202 1035.02 204 1039.02 208 c 128
 1043.02 212 1047.02 214 1053.02 218 c 0
 1106.02 262 1142.02 310 1163.02 362 c 128
 1184.02 414 1194.02 478 1194.02 553 c 0
 1195.02 720 1126.02 840 986.021 913 c 1
 919.021 946 848.021 962 771.021 961 c 0
 666.021 961 570.021 932 485.022 876 c 128
 400.022 820 335.022 745 292.022 651 c 1
 247.022 557 224.022 458 224.022 355 c 128
 224.022 252 245.022 164 287.022 90 c 128
 329.022 16 389.022 -39 466.022 -78 c 128
 543.021 -117 629.021 -137 724.021 -137 c 2
 745.021 -137 l 1
 788.021 -136 836.021 -130 887.021 -117 c 128
 938.021 -104 982.021 -88 1020.02 -67 c 0
 1064.02 -44 1091.02 -29 1101.02 -21 c 1
 1137.02 -75 l 1
 1128.02 -80 l 1
 1067.02 -139 996.021 -178 914.021 -199 c 128
 832.021 -220 764.021 -230 710.021 -230 c 2
 696.021 -230 l 2
 590.021 -230 489.022 -210 393.022 -170 c 128
 297.022 -130 222.022 -72 165.022 3 c 1
 99.0225 93 66.0225 202 67.0225 331 c 128
 68.0225 460 99.0225 581 162.022 692 c 128
 225.022 803 313.022 890 424.022 955 c 128
 535.021 1020 660.021 1052 797.021 1052 c 2
 806.021 1052 l 1
 904.021 1049 992.021 1029 1072.02 991 c 128
 1152.02 953 1215.02 899 1261.02 828 c 128
 1307.02 757 1329.02 679 1330.02 594 c 1
 1330.02 583 l 2
 1330.02 498 1309.02 416 1268.02 340 c 128
 1227.02 264 1171.02 200 1099.02 148 c 128
 1027.02 96 950.021 64 868.021 52 c 1
 864.021 50 856.021 50 842.021 51 c 1
 809.021 54 l 1
 789.021 59 774.021 68 762.021 83 c 128
EndSplineSet
Colour: ffffff
EndChar

StartChar: A
Encoding: 34 65 33
Width: 1381
VWidth: 1655
GlyphClass: 2
Flags: HMW
LayerCount: 2
Fore
SplineSet
869 505 m 1
 781 1062 l 1
 777 1062 l 1
 746 911 663 655 621 536 c 1
 869 505 l 1
925 1271 m 1
 1133 132 l 1
 1311 81 l 1
 1288 0 l 1
 712 0 l 1
 735 72 l 1
 933 108 l 1
 881 432 l 1
 590 446 l 1
 557 310 412 -28 243 -28 c 3
 160 -28 92 35 70 101 c 1
 463 253 641 765 745 1241 c 1
 925 1271 l 1
EndSplineSet
Colour: ffffff
EndChar

StartChar: B
Encoding: 35 66 34
Width: 1265
VWidth: 1655
GlyphClass: 2
Flags: HMW
LayerCount: 2
Fore
SplineSet
1193.15 385.872 m 0
 1193.15 76.3555 847.295 -16.4268 560.456 -16.4268 c 0
 465.395 -16.4268 370.898 -6.46191 286 10 c 1
 442 1121 l 1
 208 1128 l 1
 227 1205 l 1
 405.321 1256.2 590.77 1280.67 750.104 1280.67 c 0
 995.534 1280.67 1179 1184.23 1179 1005 c 0
 1179 811.779 1042.06 692.616 931 659 c 1
 931 643.479 l 1
 1083.31 614.959 1193.15 536.459 1193.15 385.872 c 0
550 595 m 1
 487 121 l 1
 550.067 105.605 607.456 97.9238 659.105 97.9238 c 0
 875.318 97.9238 986 178.484 986 338 c 0
 986 434.669 919.592 549.162 751 571.323 c 2
 550 595 l 1
843.203 651.985 m 1
 930.086 706.239 986 789.82 986 920 c 0
 986 1099.16 810.891 1209.21 632 1194 c 1
 561 668 l 1
 843.203 651.985 l 1
EndSplineSet
Colour: ffffff
EndChar

StartChar: C
Encoding: 36 67 35
Width: 1009
VWidth: 1655
GlyphClass: 2
Flags: HMW
LayerCount: 2
Back
SplineSet
799.832 -32 m 1
 824 161 l 25
 843 340 l 1
 826.34 340 l 1
 732.606 138.418 597.241 -33 376 -33 c 0
 144.532 -33 20 158.975 20 444 c 0
 20 915.719 342.689 1263.74 845.451 1263.74 c 4
 910.092 1263.74 977.709 1257.98 1048 1246 c 5
 968 835 l 5
 882 848 l 5
 850 1111 l 5
 784.415 1125.46 725.961 1132.06 673.866 1132.06 c 4
 275.589 1132.06 249 746.008 249 532 c 0
 249 279 309.469 87 440 87 c 0
 566.451 87 744.221 257.748 820 448.108 c 1
 820 463 l 1
 594 456 l 1
 613 532 l 1
 728.104 562.242 843.854 579.227 967.155 579.227 c 0
 1018.15 579.227 1070.29 576.882 1124 572 c 1
 1104 497 l 1
 989 465 l 1
 968 299 l 17
 986 23 l 1
 983 6 l 1
 799.832 -32 l 1
EndSplineSet
Fore
SplineSet
993 1246 m 1
 923 815 l 1
 827 828 l 1
 795 1101 l 1
 746.441 1111.52 702.038 1116.58 661.541 1116.58 c 0
 398.195 1116.58 300.01 902.444 298 581 c 0
 298 343.886 359 135 525 135 c 0
 647 135 844.557 244.913 931 370 c 1
 993 328 l 1
 909.991 177.413 666.757 -30 438 -30 c 128
 176 -30 70 237 70 496 c 0
 70 862.006 374.072 1261.65 833.13 1261.65 c 0
 884.546 1261.65 937.906 1256.64 993 1246 c 1
EndSplineSet
Colour: ffffff
EndChar

StartChar: D
Encoding: 37 68 36
Width: 1421
VWidth: 1655
GlyphClass: 2
Flags: HMW
LayerCount: 2
Fore
SplineSet
436 106 m 1
 863.648 106 1122 262.977 1122 672 c 128
 1122 987.994 891.69 1197.07 563 1171 c 1
 436 106 l 1
224 0 m 1
 366 1068 l 1
 149 1105 l 1
 170 1176 l 1
 335.439 1235.56 535.565 1275.35 725.243 1275.35 c 0
 1041.05 1275.35 1325 1141.88 1325 752 c 0
 1325 163.5 841.357 -33 224 0 c 1
EndSplineSet
Colour: ffffff
EndChar

StartChar: E
Encoding: 38 69 37
Width: 1329
VWidth: 1655
GlyphClass: 2
Flags: HMW
LayerCount: 2
Fore
SplineSet
1120 0 m 5
 752 2 545 3 502 3 c 5
 70 -3 l 5
 93 80 l 5
 311 134 l 5
 436 1094 l 5
 209 1117 l 5
 229 1192 l 5
 307 1208 417 1220 562 1233 c 132
 707 1246 840 1252 962 1252 c 5
 1259 1246 l 5
 1179 835 l 5
 1093 848 l 5
 1061 1111 l 5
 1033 1117 l 5
 938 1136 815 1145 664 1143 c 6
 631 1143 l 5
 576 680 l 5
 1031 714 l 5
 997 569 l 5
 564 578 l 5
 502 98 l 5
 719 108 l 6
 841 115 925 122 970 132 c 5
 993 169 1019 222 1050 292 c 132
 1081 362 1100 415 1110 451 c 5
 1197 440 l 5
 1197 434 l 6
 1197 345 1190 262 1176 182 c 132
 1162 102 1144 41 1120 0 c 5
EndSplineSet
Colour: ffffff
EndChar

StartChar: F
Encoding: 39 70 38
Width: 1329
VWidth: 1655
GlyphClass: 2
Flags: HMW
LayerCount: 2
Fore
SplineSet
962 1252 m 1
 1259 1246 l 1
 1179 818 l 1
 1084 832 l 1
 1056 1102 l 1
 1024 1107 l 1
 931 1123 821 1134 693 1142 c 1
 631 1143 l 1
 576 637 l 1
 1031 670 l 1
 997 519 l 1
 562 537 l 1
 508 109 l 1
 758 80 l 1
 738 -2 l 1
 70 -2 l 1
 93 80 l 1
 311 134 l 1
 436 1094 l 1
 209 1117 l 1
 229 1192 l 1
 307 1208 418 1220 562 1233 c 128
 706 1246 840 1252 962 1252 c 1
EndSplineSet
Colour: ffffff
EndChar

StartChar: G
Encoding: 40 71 39
Width: 1244
VWidth: 1655
GlyphClass: 2
Flags: HMW
LayerCount: 2
Back
SplineSet
856 0 m 5
 816 310 l 5
 799.34 310 l 5
 709.978 124.631 580.925 -33 370 -33 c 4
 138.532 -33 14 158.974 14 444 c 4
 14 976.369 425 1351.18 1042 1246 c 5
 962 835 l 5
 876 848 l 5
 844 1111 l 5
 277 1236 243 774 243 532 c 4
 243 279 303.468 87 434 87 c 4
 557.124 87 730.215 257.748 804 448.108 c 5
 804 463 l 5
 578 456 l 5
 597 532 l 5
 715.354 562.242 834.373 579.227 961.155 579.227 c 4
 1012.15 579.227 1064.3 576.881 1118 572 c 5
 1098 497 l 5
 969 465 l 5
 982 46 l 5
 856 0 l 5
EndSplineSet
Fore
SplineSet
849.832 -32 m 1
 874 161 l 25
 893 340 l 1
 876.34 340 l 1
 782.606 138.418 647.241 -33 426 -33 c 0
 194.532 -33 70 158.975 70 444 c 0
 70 915.719 392.689 1263.74 895.451 1263.74 c 0
 960.092 1263.74 1027.71 1257.98 1098 1246 c 1
 1018 835 l 1
 932 848 l 1
 900 1105 l 5
 333 1228.7 299 771.492 299 532 c 0
 299 290.371 359.469 107 490 107 c 0
 616.451 107 794.221 268.291 870 448.108 c 1
 870 463 l 1
 644 456 l 1
 663 532 l 1
 778.104 562.242 893.854 579.227 1017.16 579.227 c 0
 1068.15 579.227 1120.29 576.882 1174 572 c 1
 1154 497 l 1
 1039 465 l 1
 1018 299 l 17
 1036 23 l 1
 1033 6 l 1
 849.832 -32 l 1
EndSplineSet
Colour: ffff00
EndChar

StartChar: H
Encoding: 41 72 40
Width: 1691
VWidth: 1655
GlyphClass: 2
Flags: HMW
LayerCount: 2
Fore
SplineSet
1210 1113 m 1
 982 1122 l 1
 1000 1197 l 1
 1157 1228 1314 1244 1469 1245 c 0
 1521 1245 1572 1243 1621 1239 c 1
 1603 1163 l 1
 1398 1109 l 1
 1282 129 l 1
 1493 81 l 1
 1472 0 l 1
 845 0 l 1
 864 78 l 1
 1086 113 l 1
 1147 600 l 1
 559 567 l 1
 502 106 l 1
 713 81 l 1
 689 0 l 1
 70 0 l 1
 88 78 l 1
 311 129 l 1
 434 1090 l 1
 208 1123 l 1
 227 1199 l 1
 335 1222 424 1235 490 1239 c 128
 556 1243 618 1245 675 1245 c 128
 732 1245 790 1243 848 1239 c 1
 828 1164 l 1
 629 1142 l 1
 574 680 l 1
 1159 701 l 1
 1210 1113 l 1
EndSplineSet
Colour: ffffff
EndChar

StartChar: I
Encoding: 42 73 41
Width: 918
VWidth: 1655
GlyphClass: 2
Flags: HMW
LayerCount: 2
Fore
SplineSet
696 0 m 5
 70 0 l 5
 88 78 l 5
 311 129 l 5
 434 1090 l 5
 208 1123 l 5
 227 1199 l 5
 375 1230 529 1246 691 1246 c 4
 734 1246 786 1244 848 1239 c 5
 828 1164 l 5
 629 1142 l 5
 502 106 l 5
 720 81 l 5
 696 0 l 5
EndSplineSet
Colour: ffffff
EndChar

StartChar: J
Encoding: 43 74 42
Width: 1122
VWidth: 1655
GlyphClass: 2
Flags: HMW
LayerCount: 2
Fore
SplineSet
262.446 -375 m 128
 136.202 -375 70 -297.298 70 -208.19 c 0
 70 -163.189 86.8848 -115.28 121.446 -73 c 1
 222.009 -147.868 310.088 -194 409.446 -194 c 0
 440.06 -194 463.819 -180.699 474.446 -148 c 0
 507.399 -28 550.446 302 583.446 589 c 2
 640.446 1087 l 1
 415.446 1117 l 1
 431.446 1194 l 1
 539.446 1220 652.446 1236 770.446 1243 c 1
 817.446 1247 865.446 1248 912.446 1248 c 128
 959.446 1248 1006.45 1247 1052.45 1243 c 1
 1033.45 1166 l 1
 838.446 1142 l 1
 743.446 385 l 2
 722.446 214 673.6 -38.5771 597.95 -175 c 0
 501.446 -328 386.253 -375 262.446 -375 c 128
EndSplineSet
Colour: ffffff
EndChar

StartChar: K
Encoding: 44 75 43
Width: 1289
VWidth: 1655
GlyphClass: 2
InSpiro: 1
Flags: HMW
LayerCount: 2
Fore
SplineSet
671 520 m 1
 601 587 l 1
 604 631 l 1
 677.602 657.495 747.451 694.831 809.301 742.724 c 0
 856.83 779.527 899.293 823.104 933.129 872.788 c 0
 965.475 920.286 989.794 972.858 1009.58 1026.81 c 0
 1038.61 1105.97 1059.59 1187.91 1076.26 1270.56 c 1
 1108.25 1272.57 1140.79 1264.81 1168.4 1248.54 c 0
 1201.8 1228.86 1227.5 1196.62 1239.57 1159.79 c 0
 1248 1134.07 1249.95 1106.41 1246.47 1079.57 c 0
 1243 1052.73 1234.26 1026.73 1222.3 1002.45 c 0
 1190.9 938.688 1139.58 886.868 1085.35 840.925 c 0
 994.282 763.776 892.919 699.655 790.23 638.826 c 1
 1025.08 244.371 l 2
 1054.92 194.243 1083.78 143.067 1121.4 98.4785 c 0
 1146.75 68.4336 1176.99 41.9971 1212.27 24.6562 c 0
 1247.55 7.31641 1286.96 0.59375 1326 -3.99902 c 2
 1360 -7.99902 l 1
 1338 -88 l 1
 1288.04 -110.38 1233.13 -121.816 1178.4 -120.521 c 0
 1140.9 -119.634 1103.47 -112.673 1068.48 -99.1504 c 0
 1020.32 -80.5371 977.444 -49.084 943.913 -9.82227 c 0
 910.382 29.4395 886.631 75.9258 864.078 122.371 c 2
 671 520 l 1
  Spiro
    671 520 v
    601 587 v
    604 631 v
    809.301 742.724 o
    933.129 872.788 o
    1009.58 1026.81 o
    1076.26 1270.56 v
    1168.4 1248.54 o
    1239.57 1159.79 o
    1222.3 1002.45 o
    1085.35 840.925 o
    790.23 638.826 v
    1025.08 244.371 ]
    1121.4 98.479 o
    1326 -3.9995 [
    1360 -7.9995 v
    1338 -88 v
    1178.4 -120.521 o
    1068.48 -99.15 o
    864.078 122.371 [
    0 0 z
  EndSpiro
656 0 m 1
 70 0 l 1
 88 78 l 1
 311 129 l 1
 434 1090 l 1
 208 1123 l 1
 227 1199 l 1
 284.161 1213.16 342.122 1224.08 400.504 1231.79 c 0
 459.949 1239.63 519.817 1244.17 579.754 1245.86 c 0
 655.882 1248.01 732.131 1245.64 808 1239 c 1
 788 1161 l 1
 629 1139 l 1
 502 110 l 1
 680 85 l 1
 656 0 l 1
  Spiro
    656 0 v
    70 0 v
    88 78 v
    311 129 v
    434 1090 v
    208 1123 v
    227 1199 v
    400.504 1231.79 o
    579.754 1245.86 o
    808 1239 v
    788 1161 v
    629 1139 v
    502 110 v
    680 85 v
    0 0 z
  EndSpiro
EndSplineSet
Colour: ffff00
EndChar

StartChar: L
Encoding: 45 76 44
Width: 1269
VWidth: 1655
GlyphClass: 2
Flags: HMW
LayerCount: 2
Fore
SplineSet
1120 0 m 1
 752 2 545 3 502 3 c 1
 70 -3 l 1
 93 80 l 1
 311 134 l 1
 436 1094 l 1
 209 1117 l 1
 229 1192 l 1
 347 1228 493 1246 667 1246 c 0
 705 1246 751 1245 806 1241 c 128
 861 1237 890 1236 896 1236 c 1
 882 1155 l 1
 635 1132 l 1
 502 106 l 1
 719 116 l 1
 817 122 896 129 955 139 c 1
 996 183 1046 293 1105 470 c 1
 1197 456 l 1
 1197 448 1197 441 1199 434 c 1
 1199 408 l 2
 1199 335 1191 259 1176 179 c 128
 1161 99 1143 39 1120 0 c 1
EndSplineSet
Colour: ffffff
EndChar

StartChar: M
Encoding: 46 77 45
Width: 1823
VWidth: 1655
GlyphClass: 2
Flags: HMW
LayerCount: 2
Fore
SplineSet
1437 186 m 0
 1437 151 1448 134 1469 134 c 0
 1471 134 1477 136 1491 140 c 128
 1505 144 1521 157 1541 178 c 128
 1561 199 1588 232 1623 279 c 1
 1671 244 l 1
 1645 145 1588 68 1499 13 c 1
 1454 -14 1409 -28 1362 -29 c 128
 1315 -30 1282 -20 1262 0 c 128
 1242 20 1233 50 1233 89 c 0
 1233 95 1233 99 1235 103 c 1
 1235 114 l 1
 1237 159 1244 235 1258 343 c 2
 1340 999 l 1
 1264 814 1189 645 1115 492 c 128
 1041 339 978 224 929 146 c 0
 923 137 902 106 866 52 c 1
 738 33 l 1
 497 999 l 1
 494 999 l 1
 475 486 l 2
 470 374 463 291 452 236 c 128
 441 181 420 129 387 78 c 0
 340 6 286 -30 225 -31 c 0
 198 -31 173 -25 150 -12 c 128
 127 1 109 19 95 41 c 128
 81 63 74 80 70 94 c 1
 146 128 205 174 248 233 c 0
 327 345 373 555 389 864 c 1
 391 925 392 994 393 1071 c 1
 166 1125 l 1
 189 1201 l 1
 348 1231 494 1246 630 1248 c 1
 685 1055 l 1
 869 343 l 1
 1262 1068 l 1
 1355 1231 l 1
 1368 1234 1397 1236 1444 1240 c 128
 1491 1244 1540 1246 1590 1246 c 128
 1640 1246 1694 1243 1753 1236 c 1
 1730 1158 l 1
 1513 1101 l 1
 1442 287 l 1
 1440 252 1439 233 1439 227 c 2
 1439 207 l 1
 1437 201 1437 195 1437 186 c 0
EndSplineSet
Colour: ffffff
EndChar

StartChar: N
Encoding: 47 78 46
Width: 1633
VWidth: 1655
GlyphClass: 2
Flags: HMW
LayerCount: 2
Fore
SplineSet
1073 -31 m 1
 518 999 l 1
 515 999 l 1
 496 486 l 1
 484.735 249.433 434.438 -31 213 -31 c 1
 154 -25 113 1 88 49 c 1
 79 69 74 87 70 103 c 1
 151 140 216.532 185.022 259 242 c 0
 379 403 403 791 415 1071 c 1
 189 1125 l 1
 211 1201 l 1
 378.528 1235.23 463 1244 620 1246 c 1
 708 1078 l 1
 1143 274 l 1
 1214 1106 l 1
 987 1122 l 1
 1007 1197 l 1
 1175.21 1233.85 1260.04 1245 1420 1245 c 128
 1467 1245 1515 1243 1563 1239 c 1
 1542 1163 l 1
 1337 1109 l 1
 1233 2 l 1
 1073 -31 l 1
EndSplineSet
Colour: ffffff
EndChar

StartChar: O
Encoding: 48 79 47
Width: 1206
VWidth: 1655
GlyphClass: 2
Flags: HMW
LayerCount: 2
Fore
SplineSet
279 639 m 128
 279 395.097 374.526 120 622 120 c 0
 834.408 120 929 376.643 929 625 c 0
 929 875.887 823.023 1130 567 1130 c 128
 351.269 1130 279 879.592 279 639 c 128
1136 744 m 1
 1134 596 1099 457 1031 325 c 1
 925.599 125.149 778.921 -28 514 -28 c 128
 236.373 -28 70 222.419 70 505 c 0
 70 906.486 297.087 1275 693 1275 c 0
 978.477 1275 1136 1029.2 1136 744 c 1
  Spiro
    1136 744 v
    1123.02 599.068 o
    1087.95 459.271 o
    1031 325 v
    946.869 194.079 o
    848.451 92.6173 o
    737 21 o
    667.701 -6.34859 o
    593.294 -22.6404 o
    514 -28 o
    434.078 -19.9791 o
    357.926 4.32875 o
    286 45 o
    221.688 98.9779 o
    168.323 163.366 o
    126 238 o
    95.0619 321.136 o
    76.2837 410.536 o
    70 505 o
    89.5 703 o
    148 886 o
    207.23 995.49 o
    281.118 1090.16 o
    369 1169 o
    468.452 1227.99 o
    576.89 1263.32 o
    693 1275 o
    780.324 1266.31 o
    861.003 1240 o
    935 1196 o
    999.534 1138.73 o
    1051.12 1072.6 o
    1089 998 o
    1114.94 917.711 o
    1130.71 834.286 o
    1136 748 [
    0 0 z
  EndSpiro
EndSplineSet
Colour: ffffff
EndChar

StartChar: P
Encoding: 49 80 48
Width: 1230
VWidth: 1655
GlyphClass: 2
Flags: HMW
LayerCount: 2
Fore
SplineSet
602 534 m 1
 641 538 678 543 715 553 c 1
 814 576 891 615 945 670 c 128
 999 725 1026 795 1026 881 c 128
 1026 967 996 1040 937 1100 c 128
 878 1160 796 1191 693 1191 c 0
 673 1191 654 1190 635 1186 c 1
 501 116 l 1
 729 84 l 1
 705 0 l 1
 70 0 l 1
 88 78 l 1
 304 132 l 1
 427 1066 l 1
 211 1089 l 1
 227 1158 l 1
 424 1227 612 1261 789 1262 c 0
 928 1262 1035 1232 1109 1172 c 128
 1183 1112 1220 1025 1220 913 c 0
 1220 798 1168 697 1063 610 c 0
 1012 569 948 534 870 506 c 128
 792 478 705 460 608 451 c 1
 602 534 l 1
EndSplineSet
Colour: ffffff
EndChar

StartChar: Q
Encoding: 50 81 49
Width: 1216
VWidth: 1655
GlyphClass: 2
Flags: HMW
LayerCount: 2
Fore
SplineSet
687.019 1275 m 2
 708.019 1275 l 1
 852.019 1267 959.019 1204 1031.02 1085 c 1
 1092.02 984 1122.02 868 1122.02 736 c 0
 1122.02 681 1116.02 621 1102.02 555 c 0
 1076.02 427 1030.02 317 964.019 223 c 128
 898.019 129 813.019 59 709.019 14 c 1
 718.019 -55 749.019 -111 802.019 -155 c 0
 840.019 -186 882.019 -202 929.019 -202 c 2
 934.019 -202 l 2
 960.019 -202 991.019 -196 1026.02 -183 c 128
 1061.02 -170 1094.02 -154 1124.02 -134 c 1
 1146.02 -216 l 1
 1071.02 -317 975.019 -373 861.019 -385 c 1
 846.019 -385 l 1
 841.019 -387 837.019 -387 831.019 -386 c 0
 755.019 -386 694.019 -362 650.019 -314 c 128
 606.019 -266 581.019 -201 575.019 -120 c 1
 575.019 -103 l 1
 573.019 -98 573.019 -89 574.019 -74 c 128
 575.019 -59 575.019 -42 579.019 -21 c 1
 559.02 -25 535.02 -26 506.019 -26 c 128
 477.019 -26 449.019 -22 420.019 -14 c 1
 329.019 8 252.019 58 187.019 135 c 0
 108.019 231 69.0186 364 70.0186 534 c 0
 70.0186 770 147.019 962 300.019 1109 c 0
 366.019 1172 440.019 1217 523.02 1246 c 1
 575.019 1266 630.019 1275 687.019 1275 c 2
394.019 1052 m 0
 311.019 965 269.019 832 271.019 651 c 0
 271.019 498 292.019 378 335.019 293 c 1
 370.019 224 419.019 175 481.019 144 c 1
 516.02 125 548.02 116 574.019 116 c 128
 600.019 116 615.019 116 620.019 118 c 1
 670.019 124 714.019 140 753.019 168 c 0
 822.019 219 869.019 294 895.019 395 c 1
 913.019 454 921.019 523 921.019 602 c 0
 921.019 607 920.019 634 918.019 683 c 1
 904.019 872 847.019 1004 746.019 1078 c 1
 699.019 1115 645.019 1133 584.019 1132 c 0
 509.019 1133 446.019 1106 394.019 1052 c 0
EndSplineSet
Colour: ffffff
EndChar

StartChar: R
Encoding: 51 82 50
Width: 1363
VWidth: 1655
GlyphClass: 2
Flags: HMW
LayerCount: 2
Fore
SplineSet
486 106 m 5
 670 72 l 5
 651 0 l 5
 70 0 l 5
 88 75 l 5
 302 127 l 5
 427 1065 l 5
 206 1078 l 5
 220 1155 l 5
 287 1178 376 1201 486 1224 c 132
 596 1247 677 1259 729 1259 c 132
 781 1259 809 1259 817 1257 c 5
 997 1244 1112 1174 1163 1048 c 5
 1175 1019 1181 992 1180 967 c 4
 1180 891 1157 824 1112 765 c 4
 1079 724 1036 687 980 654 c 132
 924 621 870 594 817 574 c 5
 817 571 l 5
 964 325 l 5
 995 270 1020 231 1041 206 c 132
 1062 181 1085 161 1111 144 c 132
 1137 127 1171 115 1214 106 c 5
 1293 91 l 5
 1286 31 l 5
 1231 -2 1173 -18 1114 -18 c 4
 1012 -18 929 24 866 108 c 4
 846 134 825 171 800 218 c 6
 675 453 l 5
 659 478 649 494 645 500 c 6
 608 546 l 5
 591 567 l 5
 602 597 l 5
 680 615 l 5
 794 638 874 679 919 739 c 4
 939 765 953 793 963 821 c 132
 973 849 977 878 977 908 c 4
 977 981 953 1044 905 1098 c 132
 857 1152 796 1179 722 1179 c 4
 687 1179 657 1176 631 1168 c 5
 486 106 l 5
EndSplineSet
Colour: ffffff
EndChar

StartChar: S
Encoding: 52 83 51
Width: 1027
VWidth: 1655
GlyphClass: 2
Flags: HMW
LayerCount: 2
Fore
SplineSet
292 415 m 5
 262.012 274.112 258 80 473 80 c 4
 582.542 80 673 163.816 673 262 c 132
 673 458 219 632 219 906 c 4
 219 1118.34 432.2 1278 643 1278 c 4
 763.328 1278 868.759 1245 957 1178 c 5
 852 832 l 5
 764 851 l 5
 757 1101 l 5
 732 1142 670.075 1184 598 1184 c 4
 497.547 1184 411 1109.54 411 1005 c 4
 411 791 875 602 875 348 c 4
 875 119.581 648.456 -24 431 -24 c 4
 261.461 -24 70 57.7939 70 232 c 132
 70 372.732 192 446 292 415 c 5
EndSplineSet
Colour: ffffff
EndChar

StartChar: T
Encoding: 53 84 52
Width: 1228
VWidth: 1655
GlyphClass: 2
Flags: HMW
LayerCount: 2
Fore
SplineSet
496 1123 m 1
 411 1135 354 1141 323 1140 c 128
 292 1139 271 1140 261 1138 c 1
 165 818 l 1
 70 832 l 1
 70 1224 l 1
 251 1240 455 1249 682 1252 c 1
 793 1252 l 1
 1158 1246 l 1
 1077 818 l 1
 982 832 l 1
 952 1117 l 1
 858 1133 773 1141 698 1143 c 1
 574 109 l 1
 824 80 l 1
 806 -2 l 1
 137 -2 l 1
 160 80 l 1
 377 134 l 1
 496 1123 l 1
EndSplineSet
Colour: ffffff
EndChar

StartChar: U
Encoding: 54 85 53
Width: 1553
VWidth: 1655
GlyphClass: 2
Flags: HMW
LayerCount: 2
Fore
SplineSet
292 1087 m 1
 70 1123 l 1
 92 1201 l 1
 253 1230 417 1245 584 1245 c 1
 708 1243 l 1
 690 1166 l 1
 491 1138 l 1
 443 745 l 2
 443 743 443 735 441 721 c 128
 439 707 437 682 432 647 c 128
 427 612 426 585 424 566 c 128
 422 547 422 520 422 487 c 128
 422 454 423 426 426 404 c 0
 429 382 433 357 440 329 c 0
 455 274 486 227 534 188 c 1
 584 145 644 123 713 123 c 128
 782 123 841 139 888 170 c 128
 935 201 970 241 995 291 c 128
 1020 341 1040 422 1056 534 c 1
 1130 1111 l 1
 905 1120 l 1
 923 1197 l 1
 1064 1228 1213 1243 1371 1243 c 0
 1379 1243 1416 1242 1483 1239 c 1
 1463 1163 l 1
 1256 1096 l 1
 1171 517 l 1
 1148 362 1113 249 1067 178 c 1
 1042 140 1016 109 987 85 c 128
 958 61 923 40 882 19 c 0
 808 -16 731 -34 651 -34 c 2
 641 -34 l 1
 513 -28 413 11 342 83 c 0
 261 164 221 277 220 425 c 0
 220 477 228 569 246 702 c 1
 292 1087 l 1
EndSplineSet
Colour: ffffff
EndChar

StartChar: V
Encoding: 55 86 54
Width: 1203
VWidth: 1655
GlyphClass: 2
Flags: HMW
LayerCount: 2
Fore
SplineSet
781 1201 m 5
 823 1243 872 1264 928 1264 c 4
 1009 1264 1068 1226 1107 1150 c 4
 1125 1117 1133 1075 1133 1024 c 4
 1133 1019 1132 999 1130 962 c 5
 1117 836 1077 698 1009 547 c 132
 941 396 861 261 768 142 c 5
 719 83 678 37 645 5 c 5
 501 -26 l 5
 292 1081 l 5
 70 1122 l 5
 90 1197 l 5
 225 1228 355 1244 480 1246 c 5
 667 188 l 5
 675 188 l 5
 712 227 748 273 783 327 c 5
 856 442 903 572 926 716 c 4
 931 743 933 777 933 817 c 4
 933 904 917 985 884 1058 c 5
 855 1118 821 1166 781 1201 c 5
EndSplineSet
Colour: ffffff
EndChar

StartChar: W
Encoding: 56 87 55
Width: 1670
VWidth: 1655
GlyphClass: 2
Flags: HMW
LayerCount: 2
Fore
SplineSet
897 -28 m 1
 868 621 l 1
 858 621 l 1
 799 455 729 301 647 158 c 0
 625 121 594 70 553 5 c 1
 379 -26 l 1
 287 1081 l 1
 70 1122 l 1
 97 1197 l 1
 237 1228 369 1244 494 1246 c 1
 561 237 l 1
 571 237 l 1
 671 382 751 553 812 752 c 0
 835 829 858 912 879 999 c 1
 1028 1034 l 1
 1080 195 l 1
 1088 195 l 1
 1224 339 1312 510 1354 709 c 1
 1367 776 1373 835 1373 888 c 0
 1373 996 1350 1102 1305 1207 c 1
 1348 1238 1395 1253 1445 1252 c 2
 1451 1252 l 1
 1530 1246 1577 1206 1593 1130 c 0
 1598 1110 1600 1081 1600 1041 c 128
 1600 1001 1594 951 1580 892 c 1
 1556 773 1506 648 1429 517 c 1
 1360 395 1277 276 1180 162 c 1
 1157 131 1110 78 1039 3 c 1
 897 -28 l 1
EndSplineSet
Colour: ffffff
EndChar

StartChar: X
Encoding: 57 88 56
Width: 1425
VWidth: 1655
GlyphClass: 2
Flags: HMW
LayerCount: 2
Fore
SplineSet
397.125 1071 m 1
 155.125 1122 l 1
 174.125 1197 l 1
 277.125 1220 354.125 1233 404.125 1237 c 128
 454.125 1241 503.125 1244 549.125 1246 c 1
 782.125 729 l 1
 797.125 770 811.125 803 825.125 829 c 1
 853.125 891 890.125 960 937.125 1036 c 128
 984.125 1112 1025.12 1163 1060.12 1192 c 0
 1110.12 1232 1161.12 1252 1211.12 1252 c 128
 1279.98 1252 1341.12 1199.99 1353.12 1140 c 128
 1355.12 1130 1355.12 1114 1355.12 1092 c 128
 1355.12 1070 1348.12 1045 1332.12 1019 c 1
 1305.12 1026 1278.12 1029 1252.12 1029 c 1
 1206.12 1026 l 1
 1088.12 1010 985.125 934 899.125 797 c 1
 872.125 750 848.125 698 825.125 639 c 1
 953.125 357 l 2
 992.125 272 1027.12 214 1056.12 184 c 0
 1072.12 168 1088.12 161 1107.12 162 c 128
 1126.12 163 1142.12 169 1158.12 184 c 1
 1189.12 207 1221.12 245 1255.12 298 c 1
 1304.12 264 l 1
 1292.12 219 1277.12 181 1258.12 151 c 0
 1210.12 75 1152.12 24 1083.12 -2 c 1
 1057.12 -11 1033.12 -15 1012.12 -14 c 0
 963.125 -14 921.125 4 886.125 39 c 0
 868.125 57 855.125 73 846.125 88 c 128
 837.125 103 815.125 147 782.125 220 c 1
 644.125 529 l 1
 609.125 435 558.125 329 491.125 211 c 1
 441.125 126 395.125 68 352.125 35 c 1
 313.125 4 271.125 -11 228.125 -10 c 1
 203.125 -8 l 1
 168.125 -2 139.125 13 116.125 39 c 0
 85.125 73 71.125 107 70.125 142 c 128
 69.125 177 74.125 205 85.125 228 c 1
 105.125 226 126.125 225 149.125 225 c 1
 211.125 228 l 1
 343.125 242 444.125 314 517.125 446 c 0
 540.125 487 567.125 546 599.125 623 c 1
 397.125 1071 l 1
EndSplineSet
Colour: ffffff
EndChar

StartChar: Y
Encoding: 58 89 57
Width: 1205
VWidth: 1655
GlyphClass: 2
Flags: HMW
LayerCount: 2
Fore
SplineSet
670 680 m 1
 641 583 619 476 605 359 c 2
 576 106 l 1
 789 81 l 1
 768 0 l 1
 142 0 l 1
 161 83 l 1
 382 129 l 1
 421 423 l 2
 428 470 431 519 431 569 c 0
 431 688 409 796 364 893 c 1
 303 1019 206 1092 70 1111 c 1
 80 1160 101 1197 135 1221 c 128
 169 1245 209 1259 253 1262 c 1
 264 1262 l 2
 372 1262 453 1203 508 1086 c 0
 545 1006 566 915 574 812 c 1
 576 749 577 713 576 702 c 2
 576 664 l 1
 592 664 l 1
 615 763 649 863 694 962 c 1
 777 1153 878 1249 995 1249 c 2
 1013 1249 l 1
 1050 1245 1080 1231 1102 1204 c 128
 1124 1177 1135 1149 1135 1118 c 0
 1135 1105 1134 1095 1131 1087 c 1
 1092 1085 1048 1078 998 1063 c 128
 948 1048 902 1026 861 995 c 1
 814 957 777 915 750 869 c 128
 723 823 697 760 670 680 c 1
EndSplineSet
Colour: ffffff
EndChar

StartChar: Z
Encoding: 59 90 58
Width: 1217
VWidth: 1655
GlyphClass: 2
Flags: HMW
LayerCount: 2
Fore
SplineSet
224 1248 m 5
 1147 1248 l 5
 1138 1171 l 5
 292 94 l 5
 502 103 l 5
 653 112 775 123 868 139 c 5
 918 257 952 362 970 453 c 5
 1061 440 l 5
 1061 428 1061 418 1063 409 c 5
 1063 378 l 5
 1061 241 1052 129 1033 42 c 5
 1023 0 l 5
 70 0 l 5
 75 103 l 5
 910 1152 l 5
 385 1135 l 5
 310 874 l 5
 208 900 l 5
 224 1248 l 5
EndSplineSet
Colour: ffffff
EndChar

StartChar: bracketleft
Encoding: 60 91 59
Width: 692
VWidth: 1655
GlyphClass: 2
Flags: HMW
LayerCount: 2
Fore
SplineSet
428 -378 m 1
 67 -380 l 1
 270 1266 l 1
 625 1266 l 1
 625 1175 l 1
 408 1154 l 1
 233 -263 l 1
 451 -282 l 1
 428 -378 l 1
EndSplineSet
Colour: ffffff
EndChar

StartChar: backslash
Encoding: 61 92 60
Width: 530
VWidth: 1655
GlyphClass: 2
Flags: HMW
LayerCount: 2
Fore
SplineSet
200 1275 m 1
 463 -380 l 1
 334 -372 l 1
 67 1283 l 1
 200 1275 l 1
EndSplineSet
Colour: ffffff
EndChar

StartChar: bracketright
Encoding: 62 93 61
Width: 695
VWidth: 1655
GlyphClass: 2
Flags: HMW
LayerCount: 2
Fore
SplineSet
67 -378 m 1
 69 -282 l 1
 289 -263 l 1
 463 1154 l 1
 250 1175 l 1
 273 1266 l 1
 628 1266 l 1
 428 -380 l 1
 67 -378 l 1
EndSplineSet
Colour: ffffff
EndChar

StartChar: asciicircum
Encoding: 63 94 62
Width: 768
VWidth: 1655
GlyphClass: 2
Flags: HMW
LayerCount: 2
Fore
SplineSet
456 1224 m 1
 698 808 l 1
 636 771 l 1
 403 1052 l 1
 394 1052 l 1
 116 776 l 1
 70 809 l 1
 403 1212 l 1
 456 1224 l 1
EndSplineSet
Colour: ffffff
EndChar

StartChar: underscore
Encoding: 64 95 63
Width: 1016
VWidth: 1655
GlyphClass: 2
Flags: HMW
LayerCount: 2
Fore
SplineSet
103 -28 m 1
 937 -28 l 1
 913 -134 l 1
 78 -134 l 1
 103 -28 l 1
EndSplineSet
Colour: ffffff
EndChar

StartChar: grave
Encoding: 65 96 64
Width: 422
VWidth: 1655
GlyphClass: 2
Flags: HMW
LayerCount: 2
Fore
SplineSet
90 1626 m 1
 204 1663 l 1
 332 1336 l 1
 276 1303 l 1
 90 1626 l 1
EndSplineSet
Colour: ffffff
EndChar

StartChar: a
Encoding: 66 97 65
Width: 972
VWidth: 1655
GlyphClass: 2
Flags: HMW
LayerCount: 2
Back
SplineSet
496 528 m 1
 500 665 513 760 539 816 c 128
 565 872 607 900 666 900 c 0
 668 900 682 899 708 896 c 1
 722 869 l 1
 640 484 l 1
 618 252 l 2
 616 224 615 199 615 176 c 0
 615 127 627 103 652 104 c 0
 665 104 685 121 714 154 c 128
 743 187 768 222 789 259 c 1
 837 221 l 1
 810 148 767 85 711 31 c 128
 655 -23 597 -51 537 -51 c 0
 485 -51 459 -16 460 54 c 0
 460 84 464 119 473 159 c 0
 483 200 488 228 491 245 c 0
 499 280 502 298 501 299 c 1
 490 305 l 1
 460 214 415 135 356 71 c 128
 297 7 241 -25 188 -25 c 128
 135 -25 95 -11 69 16 c 128
 43 43 30 78 30 122 c 128
 30 166 33 210 39 257 c 1
 83 619 l 2
 87 648 88 672 88 691 c 0
 88 731 77 751 54 751 c 128
 31 751 4 739 -28 716 c 128
 -60 693 -86 663 -106 626 c 1
 -149 656 l 1
 -89 816 12 896 155 896 c 0
 220 896 253 854 253 771 c 0
 253 760 246 695 232 577 c 2
 209 384 l 2
 199 301 195 247 194 223 c 0
 194 174 213 150 250 151 c 0
 355 151 437 277 496 528 c 1
EndSplineSet
Fore
SplineSet
819 900 m 1
 843 881 l 1
 751 491 l 1
 721 253 l 2
 712.858 189.491 713 116 758 116 c 0
 810.835 116 885.578 231.893 911 275 c 1
 952 240 l 1
 894.118 94.5117 832.392 -31 660 -31 c 0
 520.95 -31 564.652 175.79 593 287 c 1
 580 287 l 1
 545 203 499 131 442 70 c 128
 385 9 329 -21 274 -21 c 128
 133.948 -21 108 86.3643 108 225 c 128
 108 484 297.642 895 556 895 c 128
 610.25 895 651.583 873.333 680 830 c 1
 689 830 l 1
 720.2 876.667 760.067 900 819 900 c 1
279 288 m 0
 279 202.213 294.113 132 344 132 c 0
 393 132 448 183 511 285 c 128
 551.463 350.512 584.089 425.512 609.141 510 c 1
 624 670 l 1
 605.567 715.14 531.564 760 486 760 c 128
 326.989 760 279 449.577 279 288 c 0
EndSplineSet
Colour: ffffff
EndChar

StartChar: b
Encoding: 67 98 66
Width: 877
VWidth: 1655
GlyphClass: 2
Flags: HMW
LayerCount: 2
Back
SplineSet
442 762 m 4
 397 762 349 714 298 618 c 132
 247 522 214 400 196 249 c 5
 183 153 l 5
 214 108 269 86 346 88 c 4
 404 88 455 120 499 184 c 132
 543 248 565 355 565 505 c 4
 565 581 555 643 534 691 c 132
 513 739 483 762 442 762 c 4
318 1245 m 5
 269 845 l 5
 219 592 l 5
 228 592 l 5
 248 677 284 748 336 806 c 132
 388 864 447 893 511 893 c 132
 575 893 629 859 670 792 c 132
 711 725 732 639 732 535 c 132
 732 431 712 335 672 250 c 132
 632 165 574 99 500 50 c 132
 426 1 341 -24 244 -24 c 132
 147 -24 72 0 17 49 c 5
 149 1142 l 5
 13 1170 l 5
 24 1243 l 5
 303 1266 l 5
 318 1245 l 5
10 0 m 5
 21 79 l 5
 175 116 l 5
 175 1147 l 5
 15 1201 l 5
 27 1277 l 5
 316 1299 l 5
 341 1275 l 5
 341 850 l 5
 325 744 l 5
 335 744 l 5
 418 836 516 900 629 900 c 4
 767 900 872 842 872 599 c 6
 872 114 l 5
 1017 79 l 5
 1005 0 l 5
 556 0 l 5
 568 74 l 5
 703 114 l 5
 706 580 l 6
 706 722 613 764 534 764 c 4
 477 764 411 748 341 675 c 5
 341 116 l 5
 487 80 l 5
 475 0 l 5
 10 0 l 5
EndSplineSet
Fore
SplineSet
517 762 m 0
 373.638 762 291.822 423.675 271 249 c 1
 258 153 l 1
 289 108 344 86 421 88 c 1
 589.075 88 640 291.005 640 505 c 0
 640 619.589 616.735 762 517 762 c 0
395 1278 m 1
 344 845 l 1
 294 592 l 1
 303 592 l 1
 334.969 727.867 433.729 893 586 893 c 128
 738.672 893 807 703.961 807 535 c 128
 807 223.642 627.237 -24 319 -24 c 128
 222 -24 147 -0 92 49 c 1
 130 318 l 1
 226 1175 l 1
 90 1203 l 1
 101 1276 l 1
 380 1299 l 1
 395 1278 l 1
EndSplineSet
Colour: ffffff
EndChar

StartChar: c
Encoding: 68 99 67
Width: 735
VWidth: 1655
GlyphClass: 2
Flags: HMW
LayerCount: 2
Fore
SplineSet
576 652 m 1
 553.94 719.133 481.428 771.219 417.952 771.219 c 0
 291.974 771.219 258 541.031 258 392 c 0
 258 230.669 279.238 98 385 98 c 0
 490.622 98 592.979 210 630 267 c 1
 666 235 l 1
 628.674 129 459.11 -31 345 -31 c 0
 167.024 -31 98 135.991 98 332 c 0
 98 596.939 305 893 512 893 c 128
 605.274 893 675 839.258 675 759 c 128
 675 708 619 660 576 652 c 1
EndSplineSet
Colour: ffffff
EndChar

StartChar: d
Encoding: 69 100 68
Width: 932
VWidth: 1655
GlyphClass: 2
Flags: HMW
LayerCount: 2
Back
SplineSet
168 287 m 2
 168 224 171 179 178 151 c 128
 185 123 200 109 223 109 c 0
 264 109 304 136 346 188 c 128
 388 240 424 310 455 398 c 128
 486 486 507 579 517 678 c 1
 486 743 442 776 385 775 c 0
 344 775 306 752 271 705 c 128
 236 658 210 600 193 529 c 128
 176 458 168 384 168 305 c 2
 168 287 l 2
608 284 m 1
 601 242 597 209 598 185 c 128
 599 161 602 145 609 136 c 128
 616 127 627 123 643 123 c 128
 659 123 682 139 713 170 c 0
 745 201 770 234 790 270 c 1
 830 242 l 1
 778 64 680 -25 534 -24 c 0
 478 -24 450 17 450 98 c 0
 450 146 458 200 476 259 c 1
 463 263 l 1
 430 172 388 102 338 51 c 128
 288 0 234 -26 176 -26 c 128
 118 -26 75 -3 48 41 c 128
 21 85 8 146 8 225 c 128
 8 304 26 394 63 494 c 128
 100 594 151 684 217 763 c 128
 283 842 356 882 434 882 c 0
 486 882 517 872 527 851 c 1
 541 855 l 1
 561 1142 l 5
 427 1170 l 5
 437 1243 l 5
 712 1269 l 5
 731 1245 l 5
 608 284 l 1
EndSplineSet
Fore
SplineSet
813 1275 m 1
 690 284 l 2
 682 220 678.666 123 725 123 c 128
 773.709 123 850.204 230.768 872 270 c 1
 912 242 l 1
 860 64 762 -24 616 -24 c 0
 501.4 -24 528.133 161.103 558 259 c 1
 545 263 l 1
 497.105 130.926 408.374 -26 258 -26 c 128
 128.979 -26 90 86.5264 90 225 c 128
 90 476.188 265.262 882 516 882 c 0
 568 882 599 872 609 851 c 1
 623 855 l 1
 643 1172 l 1
 509 1200 l 1
 519 1273 l 1
 794 1299 l 1
 813 1275 l 1
305 109 m 0
 420.676 109 497.888 286.972 537 398 c 128
 568 486 589 579 599 678 c 1
 568 743 521 775 467 775 c 0
 300.652 775 250 478 250 305 c 0
 250 193 251 109 305 109 c 0
EndSplineSet
Colour: ffffff
EndChar

StartChar: e
Encoding: 70 101 69
Width: 736
VWidth: 1655
GlyphClass: 2
Flags: HMW
LayerCount: 2
Fore
SplineSet
258.26 350 m 1
 262.26 184.987 315.26 103 420.26 103 c 0
 497.26 103 566.26 157.713 626.26 266 c 5
 663.26 234 l 5
 621.142 101.292 499.528 -31 339.26 -31 c 128
 172.071 -31 98.2598 115.553 98.2598 293 c 128
 98.2598 560.583 275.339 897 495.26 897 c 0
 593.101 897 666 803.649 666 700.432 c 0
 666 486 479.26 399 258.26 350 c 1
419.26 760 m 0
 338.76 760 271.677 644.053 258.26 414 c 1
 377.26 453 502.181 516 502.181 644.957 c 0
 502.181 707.597 475.927 760 419.26 760 c 0
EndSplineSet
Colour: ffffff
EndChar

StartChar: f
Encoding: 71 102 70
Width: 550
VWidth: 1655
GlyphClass: 2
Flags: HMW
LayerCount: 2
Back
SplineSet
409 1238 m 132
 426 1218 434 1193 434 1163 c 132
 434 1133 423 1104 401 1079 c 132
 379 1054 353 1041 325 1041 c 132
 297 1041 276 1049 259 1068 c 132
 242 1087 234 1111 234 1140 c 132
 234 1169 242.735 1198 261 1226 c 132
 286.176 1254 312.446 1268 342 1268 c 132
 369 1268 392 1258 409 1238 c 132
345 254 m 5
 341 225 340 201 340 181 c 4
 340 142 351 123 374 123 c 132
 397 123 424 134 456 157 c 132
 488 180 514 209 534 246 c 5
 576 217 l 5
 516 57 420 -23 288 -23 c 4
 247 -23 217 -10 200 15 c 132
 183 40 175 71 175 108 c 132
 175 145 179 208 188 296 c 5
 224 611 l 6
 250.259 840.77 152.561 747.619 53 599 c 5
 5 631 l 5
 48.0264 743.759 161.278 906 299 906 c 4
 425.723 906 389 745 373 569 c 6
 345 254 l 5
EndSplineSet
Fore
SplineSet
-161 -132 m 1
 -101.567 -196 -41.2334 -228 20 -228 c 0
 102.436 -228 136.861 -194.812 150 -127 c 1
 194.197 38.7646 201.459 509.419 214 742 c 1
 99 753 l 1
 111 845 l 1
 219 849 l 1
 231.192 987.676 278.75 1110.08 367.468 1194 c 0
 435.395 1265.85 530.783 1309 657 1309 c 0
 746.24 1304.72 811 1241.2 811 1165 c 0
 811 1106.34 776.837 1066.35 737 1041 c 1
 687.93 1113.02 610.781 1160.39 535.389 1160.39 c 0
 461.971 1160.39 428.977 1145.48 411.642 1089 c 0
 388.773 1021.7 381.83 930.815 378 844 c 1
 612 845 l 1
 593 747 l 1
 376 738 l 1
 365.108 260.547 369 -381 -85 -381 c 0
 -167.756 -381 -220 -331.574 -220 -242 c 0
 -214.851 -200.811 -187.543 -156.982 -161 -132 c 1
EndSplineSet
Colour: ffffff
EndChar

StartChar: g
Encoding: 72 103 71
Width: 869
VWidth: 1655
GlyphClass: 2
Flags: HMW
LayerCount: 2
Back
SplineSet
58 360 m 132
 58 621.322 191.454 895 447 895 c 132
 623.977 895 732 716 732 526 c 132
 732 264.391 598.426 -26 327 -26 c 132
 146.702 -26 58 146 58 360 c 132
222 460 m 4
 222 272 277.811 90 397 90 c 132
 526.371 90 570 230 570 424 c 4
 570 581.558 505.667 784 377 784 c 132
 263.747 784 222 642 222 460 c 4
EndSplineSet
Fore
SplineSet
568 377 m 1
 586 685 l 1
 563.086 733.219 527.445 772 463 772 c 128
 291.241 772 260.595 470.453 259 305 c 0
 259 226.947 269.853 129 313 129 c 128
 394.223 129 484.472 241.307 586 494 c 1
 604.339 470.656 613.157 463.976 621 459 c 1
 558.396 219.952 411.069 -26 271 -26 c 128
 141.426 -26 107 111.118 107 244 c 128
 107 485.736 282.782 897 492 897 c 0
 545.945 897 585.578 862.521 612 792 c 1
 622 792 l 1
 655.773 864.706 729.28 908.329 771 895 c 1
 789 880 l 1
 720 412 l 17
 868 -137 504.694 -378.023 298 -378.023 c 0
 139.847 -378.023 40 -341.39 40 -275 c 0
 40 -203.359 102 -155.121 162 -148 c 1
 187.096 -213 284.968 -247 359 -247 c 0
 545.735 -247 604.451 -83.709 604.451 99.8926 c 0
 604.451 193.278 589.261 291.919 568 377 c 1
EndSplineSet
Colour: ffffff
EndChar

StartChar: h
Encoding: 73 104 72
Width: 939
VWidth: 1655
GlyphClass: 2
Flags: HMW
LayerCount: 2
Back
SplineSet
336 364 m 5
 329.003 133.088 318.069 -47.7976 104 -24 c 5
 90 3 l 5
 192 388 l 5
 211 567 232 768 180 768 c 4
 138.314 768 63.4918 649.105 43 613 c 5
 -5 651 l 5
 36.9156 764.327 154.106 923 295 923 c 4
 415 923 358 651.314 331 553 c 5
 342 547 l 5
 384.914 659.424 537.205 897 666 897 c 132
 778.823 897 823.146 829.09 823.146 713.126 c 4
 823.146 571 706.721 286 706.721 156.993 c 4
 706.721 133.391 713.037 121 730 121 c 132
 806.745 121 861.84 195.437 889 246 c 5
 932 216 l 5
 873.382 56 774.707 -24 635 -24 c 4
 557.051 -24 532.279 3.25322 532.279 74.6055 c 4
 532.279 202 650.969 442 650.969 644.743 c 4
 650.969 695.722 632.334 721 594 721 c 4
 503.297 721 397.878 601.684 336 364 c 5
EndSplineSet
Fore
SplineSet
278 1180 m 1
 142 1208 l 1
 152 1281 l 1
 439 1304 l 1
 455 1283 l 1
 385 825 l 1
 322 564 l 1
 334 561 l 1
 407.14 731.036 540.7 898 652 898 c 128
 768.819 898 801.696 818.184 801.696 707.854 c 0
 801.696 520.505 686.542 265 686.542 168.56 c 0
 686.542 144.324 693.426 123 719 123 c 128
 783.568 123 850.924 195.91 878 246 c 1
 919 217 l 1
 866.209 80.7646 789.815 -23 618 -23 c 0
 541.116 -23 520.788 18.5566 520.788 74.8428 c 0
 520.788 186.991 631.819 455.082 631.819 636.39 c 0
 631.819 695.325 616.442 716 585 716 c 0
 463 716 369.746 541.983 329 386 c 1
 321.917 141.599 308.009 -42.1592 95 -19 c 1
 80 8 l 1
 180 434 l 1
 278 1180 l 1
EndSplineSet
Colour: ffffff
EndChar

StartChar: i
Encoding: 74 105 73
Width: 641
VWidth: 1655
GlyphClass: 2
Flags: HMW
LayerCount: 2
Fore
SplineSet
519 1163 m 132
 519 1104.39 467.939 1041 410 1041 c 132
 353.332 1041 319 1083.24 319 1140 c 132
 319 1203.43 367.23 1268 427 1268 c 132
 483.661 1268 519 1220.91 519 1163 c 132
367.717 187.354 m 0
 367.717 152.77 374.137 123 401 123 c 128
 465.468 123 532.02 189.565 559 236 c 1
 601 207 l 1
 541 53.667 445 -23 313 -23 c 0
 220.765 -23 198.159 44.8193 198.159 129.938 c 0
 198.159 253 293.33 490.497 293.33 676.479 c 0
 293.33 728.158 281.93 749.552 263.188 749.552 c 0
 225.63 749.552 162.154 683.172 98 599 c 1
 50 631 l 1
 97.417 743.759 222.225 906 374 906 c 0
 443.314 906 461.493 853.326 461.493 775.301 c 0
 461.493 588.646 367.717 379.456 367.717 187.354 c 0
EndSplineSet
Colour: ffffff
EndChar

StartChar: j
Encoding: 75 106 74
Width: 558
VWidth: 1655
GlyphClass: 2
Flags: HMW
LayerCount: 2
Back
SplineSet
429 1163 m 132
 429 1104.39 377.939 1041 320 1041 c 132
 263.332 1041 229 1083.24 229 1140 c 132
 229 1203.43 277.23 1268 337 1268 c 132
 393.661 1268 429 1220.91 429 1163 c 132
327.717 187.354 m 4
 327.717 152.77 334.137 123 361 123 c 132
 429.548 123 500.312 195.456 529 246 c 5
 571 217 l 5
 508.917 57 409.583 -23 273 -23 c 4
 180.765 -23 158.159 44.8193 158.159 129.938 c 4
 158.159 253 233.33 490.497 233.33 676.479 c 4
 233.33 728.158 221.93 749.552 203.188 749.552 c 4
 167.903 749.552 108.271 683.172 48 599 c 5
 0 631 l 5
 45.9531 743.759 166.909 906 314 906 c 4
 383.314 906 401.493 853.326 401.493 775.301 c 4
 401.493 588.647 327.717 379.456 327.717 187.354 c 4
EndSplineSet
Fore
SplineSet
480 1163 m 128
 480 1104.39 428.939 1041 371 1041 c 128
 314.332 1041 280 1083.24 280 1140 c 128
 280 1203.43 328.23 1268 388 1268 c 128
 444.661 1268 480 1220.91 480 1163 c 128
-120 -132 m 1
 -57.3174 -196 5.36719 -228 69 -228 c 0
 194 -228 178 -94 212.831 182 c 0
 229.497 314.064 290.111 609.483 290.111 681.359 c 0
 290.111 720.079 279.99 752 250 752 c 0
 203.068 752 126.855 620.711 114 595 c 1
 63 631 l 1
 104.735 743.685 217.683 909 360 909 c 128
 444.198 909 466.891 844.498 466.891 764.942 c 0
 466.891 705.503 414.415 457.78 374 210 c 0
 362.274 129.919 356.724 64.1611 347.658 -14 c 0
 334.008 -116.081 288.252 -192.748 259 -230 c 128
 202.016 -317.345 83.2275 -381 -34 -381 c 1
 -121.902 -373.572 -179 -331.374 -179 -242 c 1
 -173.851 -200.811 -146.543 -156.982 -120 -132 c 1
EndSplineSet
Colour: ffffff
EndChar

StartChar: k
Encoding: 76 107 75
Width: 877
VWidth: 1655
GlyphClass: 2
Flags: HMW
LayerCount: 2
Back
SplineSet
194 885 m 5
 226 1175 l 5
 90 1203 l 5
 101 1276 l 5
 380 1299 l 5
 395 1278 l 5
 318 623 l 5
 278 253 l 6
 276 230 275 208 275 188 c 4
 275 143 286 121 309 121 c 132
 332 121 359 133 391 156 c 132
 423 179 449 209 470 246 c 5
 512 216 l 5
 452 56 351 -24 207 -24 c 4
 138 -24 104 24 104 120 c 4
 104 158 109 216 120 295 c 5
 194 885 l 5
EndSplineSet
Fore
SplineSet
408 401 m 1
 555.206 504.677 643.664 631.581 643.664 700.086 c 0
 643.664 729.681 632.343 748 608 748 c 0
 524 748 344 495 311 405 c 1
 305.292 153.973 289.119 -86.8311 96 -13 c 1
 90 0 l 1
 173 440 l 1
 260 1175 l 1
 125 1203 l 1
 135 1276 l 1
 422 1299 l 1
 438 1278 l 1
 380 832 l 1
 315 551 l 1
 328 546 l 1
 362.824 600.613 548 906 698 906 c 0
 738.981 906 792.1 851.235 792.1 765.239 c 0
 792.1 675.643 728.9 551.89 521 421 c 1
 549 317.072 631 123 681 123 c 0
 709 123 783 164 830 246 c 1
 872 216 l 1
 834 103 717 -13 614 -13 c 0
 457 -13 420 260.738 397 383 c 1
 408 401 l 1
EndSplineSet
Colour: ffffff
EndChar

StartChar: l
Encoding: 77 108 76
Width: 525
VWidth: 1655
GlyphClass: 2
Flags: HMW
LayerCount: 2
Back
SplineSet
409 1238 m 132
 426 1218 434 1193 434 1163 c 132
 434 1133 423 1104 401 1079 c 132
 379 1054 353 1041 325 1041 c 132
 297 1041 276 1049 259 1068 c 132
 242 1087 234 1111 234 1140 c 132
 234 1169 242.735 1198 261 1226 c 132
 286.176 1254 312.446 1268 342 1268 c 132
 369 1268 392 1258 409 1238 c 132
345 254 m 5
 341 225 340 201 340 181 c 4
 340 142 351 123 374 123 c 132
 397 123 424 134 456 157 c 132
 488 180 514 209 534 246 c 5
 576 217 l 5
 516 57 420 -23 288 -23 c 4
 247 -23 217 -10 200 15 c 132
 183 40 175 71 175 108 c 132
 175 145 179 208 188 296 c 5
 224 611 l 6
 250.259 840.77 152.561 747.619 53 599 c 5
 5 631 l 5
 48.0264 743.759 161.278 906 299 906 c 4
 425.723 906 389 745 373 569 c 6
 345 254 l 5
EndSplineSet
Fore
SplineSet
194 885 m 5
 226 1175 l 1
 90 1203 l 1
 101 1276 l 1
 388 1299 l 1
 403 1278 l 1
 318 623 l 1
 281 253 l 2
 276.647 202.942 270.641 121 312 121 c 128
 377.475 121 444.462 195.718 473 246 c 1
 515 216 l 1
 455 56 354 -24 210 -24 c 0
 78.0391 -24 106 154 123 295 c 2
 194 885 l 5
EndSplineSet
Colour: ffffff
EndChar

StartChar: m
Encoding: 78 109 77
Width: 1422
VWidth: 1655
GlyphClass: 2
Flags: HMW
LayerCount: 2
Back
SplineSet
756 364 m 1
 749.003 133.088 738.069 -47.7976 524 -24 c 1
 510 3 l 1
 612 388 l 1
 631 567 652 768 600 768 c 0
 558.314 768 483.492 649.105 463 613 c 1
 415 651 l 1
 456.916 764.327 574.106 923 715 923 c 0
 835 923 778 651.314 751 553 c 1
 762 547 l 1
 804.914 659.424 957.205 897 1086 897 c 132
 1198.82 897 1243.15 829.09 1243.15 713.126 c 4
 1243.15 571 1126.72 286 1126.72 156.993 c 4
 1126.72 133.391 1133.04 121 1150 121 c 132
 1226.75 121 1281.84 195.437 1309 246 c 5
 1352 216 l 5
 1293.38 56 1194.71 -24 1055 -24 c 4
 977.051 -24 952.279 3.25323 952.279 74.6055 c 0
 952.279 202 1070.97 442 1070.97 644.743 c 4
 1070.97 695.722 1052.33 721 1014 721 c 4
 923.297 721 817.878 601.684 756 364 c 1
EndSplineSet
Fore
SplineSet
1120.97 644.743 m 0
 1120.97 695.722 1102.33 721 1064 721 c 0
 930.821 723.038 844.38 520.72 801 343 c 1
 793.939 122.471 786.366 -44.8965 574 -30 c 1
 558 -2 l 1
 657 378 l 1
 675.212 500.929 724.405 712 622 712 c 0
 500 712 425.314 513.939 386 344 c 1
 378.931 122.744 368.275 -39.9785 154 -19 c 1
 140 8 l 1
 242 378 l 1
 247.812 441.204 296.47 761.319 230.941 761.319 c 0
 190.705 761.319 127.783 670.417 93 605 c 1
 45 641 l 1
 87.2021 759.297 202.797 923 345 923 c 0
 449 923 407 665.878 381 562 c 1
 392 560 l 1
 435.637 686.299 551.075 888 694 888 c 128
 844.015 888 851 762 823 618 c 1
 833 613 l 1
 913.433 802.675 1014.8 897 1136 897 c 128
 1248.82 897 1293.15 829.09 1293.15 713.126 c 0
 1293.15 571 1176.72 286 1176.72 156.993 c 0
 1176.72 133.391 1183.04 121 1200 121 c 128
 1276.75 121 1331.84 195.437 1359 246 c 1
 1402 216 l 1
 1343.38 56 1244.71 -24 1105 -24 c 0
 1016.16 -24 999 11.9863 999 61 c 0
 999 223 1120.97 427 1120.97 644.743 c 0
EndSplineSet
Colour: ffffff
EndChar

StartChar: n
Encoding: 79 110 78
Width: 1002
VWidth: 1655
GlyphClass: 2
Flags: HMW
LayerCount: 2
Fore
SplineSet
386 364 m 5
 379.003 133.088 368.069 -47.7979 154 -24 c 5
 140 3 l 5
 242 388 l 5
 261 567 282 768 230 768 c 4
 188.314 768 113.492 649.105 93 613 c 5
 45 651 l 5
 86.916 764.327 204.106 923 345 923 c 4
 465 923 408 651.314 381 553 c 5
 392 547 l 5
 434.914 659.424 587.205 897 716 897 c 132
 828.823 897 873.146 829.09 873.146 713.126 c 4
 873.146 571 756.721 286 756.721 156.993 c 4
 756.721 133.391 763.037 121 780 121 c 132
 856.745 121 911.84 195.437 939 246 c 5
 982 216 l 5
 923.382 56 824.707 -24 685 -24 c 4
 607.051 -24 582.279 3.25293 582.279 74.6055 c 4
 582.279 202 700.969 442 700.969 644.743 c 4
 700.969 695.722 682.334 721 644 721 c 4
 553.297 721 447.878 601.684 386 364 c 5
EndSplineSet
Colour: ffffff
EndChar

StartChar: o
Encoding: 80 111 79
Width: 842
VWidth: 1655
GlyphClass: 2
Flags: HMW
LayerCount: 2
Fore
SplineSet
98 360 m 132
 98 621.322 231.454 895 487 895 c 132
 663.977 895 772 716 772 526 c 132
 772 264.391 638.426 -26 367 -26 c 132
 186.702 -26 98 146 98 360 c 132
262 460 m 4
 262 272 317.811 90 437 90 c 132
 566.371 90 610 230 610 424 c 4
 610 581.558 545.667 784 417 784 c 132
 303.747 784 262 642 262 460 c 4
EndSplineSet
Colour: ffffff
EndChar

StartChar: p
Encoding: 81 112 80
Width: 929
VWidth: 1655
GlyphClass: 2
Flags: HMW
LayerCount: 2
Back
SplineSet
326 204 m 5
 316.698 -32.8959 286.465 -197.167 226 -294 c 132
 200 -350 158 -378 99 -378 c 4
 97 -378 83 -377 57 -374 c 5
 43 -347 l 5
 182 248 l 5
 214 620 l 2
 216 648 217 673 217 696 c 0
 217 745 205 769 180 768 c 0
 167 768 147 751 118 718 c 128
 89 685 64 650 43 613 c 1
 -5 651 l 1
 22 724 65 787 121 841 c 128
 177 895 235 923 295 923 c 0
 347 923 373 888 372 818 c 0
 372 788 368 753 359 713 c 0
 349 672 344 644 341 627 c 0
 333 592 330 574 331 573 c 1
 342 567 l 1
 372 658 417 737 476 801 c 128
 535 865 591 897 644 897 c 128
 697 897 737 883 763 856 c 128
 789 829 802 794 802 750 c 128
 802 706 799 662 793 615 c 1
 749 253 l 2
 745 224 744 200 744 181 c 0
 744 141 755 121 778 121 c 128
 801 121 828 133 860 156 c 128
 892 179 918 209 938 246 c 1
 981 216 l 1
 921 56 820 -24 677 -24 c 0
 612 -24 579 18 579 101 c 0
 579 112 586 177 600 295 c 2
 623 488 l 2
 633 571 637 625 638 649 c 0
 638 698 619 722 582 721 c 0
 472.732 721 387.398 548.21 326 204 c 5
EndSplineSet
Fore
SplineSet
312 112 m 1
 338.632 306.35 383.789 459.3 444 572 c 128
 496 670 548 719 600 719 c 0
 678.271 719 685 622.581 685 524 c 0
 685 243.536 616.367 91.6221 383 62 c 1
 390 -12 l 1
 687.766 -12 859 218.779 859 540 c 128
 859 697.034 802.227 877 664 877 c 128
 516.069 877 421.709 681.829 371 553 c 1
 361 555 l 1
 361 557 362 561 364 570 c 128
 383.597 658.185 461.059 915 322 915 c 0
 179.068 915 67.5576 748.977 26 632 c 1
 72 595 l 1
 92.5068 632.107 167.021 754 209 754 c 0
 258.189 754 250.677 664.902 241 602 c 2
 174 131 l 17
 53 -347 l 1
 67 -374 l 1
 269.787 -402.78 312 -258.205 312 112 c 1
EndSplineSet
Colour: ffffff
EndChar

StartChar: q
Encoding: 82 113 81
Width: 889
VWidth: 1655
GlyphClass: 2
Flags: HMW
LayerCount: 2
Fore
SplineSet
659 -108 m 2
 650 -214 656 -239 697 -239 c 0
 762 -239 830 -178 857 -136 c 1
 889 -185 l 1
 825 -318 722 -385 581 -385 c 0
 510 -385 468 -320 468 -254 c 0
 468 -122.223 518.617 95.3623 568 268 c 1
 555 268 l 1
 440 54 364 -26 262 -26 c 0
 139.927 -26 108 111 108 244 c 0
 108 486 284 897 493 897 c 0
 551 897 593 863 621 792 c 1
 631 792 l 1
 667 865 747 908 792 895 c 1
 810 880 l 1
 676 103 l 1
 659 -108 l 2
599 505 m 1
 595 685 l 1
 571 733 533 772 464 772 c 0
 292 772 262 470 260 305 c 0
 260 227 271 129 314 129 c 0
 380 129 493.604 245.277 599 505 c 1
EndSplineSet
Colour: ffffff
EndChar

StartChar: r
Encoding: 83 114 82
Width: 787
VWidth: 1655
GlyphClass: 2
Flags: HMW
LayerCount: 2
Back
SplineSet
293 1180 m 5
 157 1208 l 5
 167 1281 l 5
 454 1304 l 5
 470 1283 l 5
 400 825 l 5
 337 564 l 5
 349 561 l 5
 418 727 544 890 649 890 c 132
 780.646 890 817.696 813.542 817.696 707.854 c 4
 817.696 520.505 701.542 265 701.542 168.56 c 4
 701.542 144.325 708.426 123 734 123 c 132
 798.568 123 865.924 195.91 893 246 c 5
 934 217 l 5
 881.209 80.7647 804.815 -23 633 -23 c 4
 556.116 -23 535.788 18.5564 535.788 74.8428 c 4
 535.788 186.991 646.819 455.082 646.819 636.39 c 4
 646.819 695.326 631.443 716 600 716 c 4
 438.756 716 384.746 520.89 344 346 c 5
 336.917 125.737 323.009 -39.8721 110 -19 c 5
 95 8 l 5
 195 434 l 5
 293 1180 l 5
EndSplineSet
Fore
SplineSet
402 345 m 129
 414 154 420.253 -42 193 -14 c 1
 179 13 l 1
 252 388 l 1
 253.136 431.034 258.611 551.448 258.611 640.982 c 0
 258.611 700.778 248.782 746.801 217.356 746.801 c 0
 179.958 746.801 103.84 642.712 93 619 c 1
 45 655 l 1
 85.7637 757.682 180.946 899 314 899 c 0
 418.144 899 417 793 405 693 c 2
 372 430 l 1
 386 427 l 1
 444.649 607 488.162 866 631 866 c 0
 701.879 866 751 820.178 751 755 c 0
 751 695.247 726.049 649.979 705 641 c 1
 705 641 678.525 669 588 669 c 128
 532.959 669 474.122 557.694 402 345 c 129
EndSplineSet
Colour: ffffff
EndChar

StartChar: s
Encoding: 84 115 83
Width: 717
VWidth: 1655
GlyphClass: 2
Flags: HMW
LayerCount: 2
Fore
SplineSet
112 610 m 0
 112 768.838 279.039 897 460 897 c 0
 551.649 897 647 858.933 647 775 c 0
 647 717 615 675 551 648 c 1
 516.252 717.919 468.98 798 387 798 c 128
 303.72 798 239 749.205 239 686 c 0
 239 514 634.261 425.857 630 239 c 128
 626.301 66.6191 459.439 -35 282 -35 c 128
 187.204 -35 70 13.8525 70 99 c 128
 70 169.578 121.491 225.302 185 233 c 1
 210.981 149.491 269.45 67 375 67 c 128
 438.708 67 483 99 483 171 c 1
 475.041 334.406 112 358 112 610 c 0
EndSplineSet
Colour: ffffff
EndChar

StartChar: t
Encoding: 85 116 84
Width: 691
VWidth: 1655
GlyphClass: 2
Flags: HMW
LayerCount: 2
Fore
SplineSet
345 151 m 0
 426 151 483.721 272.015 552 393 c 1
 601 355 l 1
 554.432 179.243 457.119 -23 267 -23 c 0
 96.5332 -23 146 168 173 354 c 2
 229 745 l 1
 117 758 l 1
 142 843 l 1
 239 854 l 1
 277 1032 l 1
 414 1051 l 1
 425 1038 l 1
 404 854 l 1
 621 850 l 1
 595 753 l 1
 388 745 l 1
 337 392 l 2
 320 274 296.144 151 345 151 c 0
EndSplineSet
Colour: ffffff
EndChar

StartChar: u
Encoding: 86 117 85
Width: 1026
VWidth: 1655
GlyphClass: 2
Flags: HMW
LayerCount: 2
Fore
SplineSet
657 507 m 1
 660.372 724.675 690 923.467 885 895 c 1
 901 867 l 1
 801 484 l 1
 784 284 l 2
 776.963 212.225 755.128 123 819 123 c 128
 867.767 123 942.961 230.329 965 270 c 1
 1006 242 l 1
 954 64 843 -24 711 -24 c 0
 588.691 -24 619.723 165.384 650 283 c 1
 639 285 l 1
 580.57 147.44 429.981 -26 291 -26 c 128
 192.746 -26 161.719 35.1221 161.719 116.13 c 0
 161.719 247 270.456 508 270.456 672.951 c 0
 270.456 707.846 262.942 736.828 236 738 c 0
 205 738 157 689 93 592 c 1
 45 623 l 1
 87.8896 735.4 201.993 899 339 899 c 0
 428.539 899 454.093 844.69 454.093 770.309 c 0
 454.093 646 342.979 364 342.979 216.477 c 0
 342.979 180.227 355.95 150 402 150 c 0
 510 150 614.929 347.114 657 507 c 1
EndSplineSet
Colour: ffffff
EndChar

StartChar: v
Encoding: 87 118 86
Width: 928
VWidth: 1655
GlyphClass: 2
Flags: HMW
LayerCount: 2
Fore
SplineSet
386 400 m 2
 364.265 239.952 376.132 91 497 91 c 128
 651.117 91 706 378.888 706 545 c 0
 706 667 664 768 580 845 c 1
 611 879 647.988 896 691 896 c 128
 774 896 828 790.931 828 688 c 0
 828 389.45 699.118 -21 410 -21 c 0
 249.932 -21 197.358 123.904 227 349 c 2
 259 592 l 2
 271.147 684.244 274.819 735 232 735 c 128
 223.137 735 174 705 88 579 c 1
 40 611 l 1
 85.957 722.188 203.26 887 342 887 c 1
 397 887 424 840 424 744 c 0
 424 719 415 631 397 481 c 2
 386 400 l 2
EndSplineSet
Colour: ffffff
EndChar

StartChar: w
Encoding: 88 119 87
Width: 1274
VWidth: 1655
GlyphClass: 2
Flags: HMW
LayerCount: 2
Fore
SplineSet
258 618 m 2
 271 675 295.424 760 254 760 c 0
 231 760 175 709 86 607 c 1
 45 637 l 1
 101.021 744.686 230.616 913 366 913 c 0
 428.558 913 448.64 876.628 448.64 822.849 c 0
 448.64 678 337 442 337 249 c 0
 337 161 371 117 438 116 c 1
 567 116 615.921 296.592 636 484 c 1
 626.629 676.097 619.806 859.024 812 835 c 1
 823 817 l 1
 764 456 l 1
 757 300 750.482 106 869 106 c 0
 1012.11 106 1057 370.832 1057 534 c 0
 1057 654.286 1005.22 781.213 957 858 c 1
 994 886 1029 900 1064 900 c 128
 1149.3 900 1179 774.214 1179 676 c 128
 1179 384.688 1039 -24 768 -24 c 0
 659.033 -24 629 56.9082 629 193 c 1
 616 195 l 1
 576.322 75.9668 482.335 -26 335 -26 c 0
 227 -26 173 42 173 178 c 0
 173 225 178.085 268.209 197 351 c 2
 258 618 l 2
EndSplineSet
Colour: ffffff
EndChar

StartChar: x
Encoding: 89 120 88
Width: 996
VWidth: 1655
GlyphClass: 2
Flags: HMW
LayerCount: 2
Fore
SplineSet
462 312 m 1
 361 83.3926 264 -31.9404 171 -34 c 0
 138 -34 113 -24 96 -4 c 128
 79 16 70 41 70 70 c 0
 70 127 86 170 118 197 c 1
 147 171 181 158 220 158 c 0
 293 158 362 239 427 401 c 1
 402.286 502 333.801 731 254 731 c 0
 232 731 196 685 147 592 c 1
 100 629 l 1
 162 798 245 882 350 882 c 0
 474.39 882 529.122 674 554 542 c 1
 598 641.161 644 721.798 693 785 c 128
 742 843 783 871 818 871 c 128
 853 871 879 863 898 846 c 128
 917 829 926 810 926 786 c 0
 926 733 911 690 880 657 c 1
 860 675 828 683 781 683 c 0
 710 683 643 614 582 474 c 1
 596 394 666.445 113 723 113 c 128
 741 113 761 124 785 146 c 128
 809 168 832 198 854 237 c 1
 897 207 l 1
 840 54 753 -23 636 -23 c 0
 525.921 -23 482 190 462 312 c 1
EndSplineSet
Colour: ffffff
EndChar

StartChar: y
Encoding: 90 121 89
Width: 952
VWidth: 1655
GlyphClass: 2
Flags: HMW
LayerCount: 2
Fore
SplineSet
99 662 m 1
 50 699 l 1
 85.5059 779.862 184.636 902 305 902 c 128
 511.952 902 503 318 485 154 c 1
 494 154 l 1
 625.27 278.186 688 419.07 688 585 c 128
 688 714 608 813 553 848 c 1
 575.986 876.29 629.283 906 679 906 c 0
 773.412 906 844 822 844 677 c 0
 844 435 687.027 231.521 481 56 c 1
 459.395 -138.09 346.003 -381 148 -381 c 128
 58.2676 -381 -18 -339.494 -18 -254 c 0
 -10.0811 -193.545 7.2627 -173.45 57 -141 c 1
 104.622 -189 152.236 -212 198 -212 c 128
 316.389 -212 345.569 -168.925 345.569 -42.8711 c 0
 345.569 171 309.881 748 225 748 c 128
 173.776 748 122.408 689.956 99 662 c 1
EndSplineSet
Colour: ffffff
EndChar

StartChar: z
Encoding: 91 122 90
Width: 878
VWidth: 1655
GlyphClass: 2
Flags: HMW
LayerCount: 2
Fore
SplineSet
644 858 m 0
 716.92 858 778.216 866 830 883 c 1
 848 855 l 1
 504 414 l 5
 300 113 l 1
 394.399 143.251 481.205 56 559 56 c 0
 604.819 56 626.738 86.0225 629 129 c 128
 631.253 171.803 607.609 269.623 596 303 c 1
 628 319 657 327 683 327 c 0
 743.706 327 784 289.897 784 227 c 0
 784 102.251 662.667 -13 524 -13 c 0
 453.741 -13 335.953 16 213 16 c 128
 170 16 125 10 79 -2 c 1
 60 26 l 1
 344 395 l 5
 608 765 l 1
 508.285 749.048 437.127 815 350 815 c 0
 307 815 284 776 280 699 c 0
 280 657.05 281.776 621.528 289 583 c 1
 208.193 552.697 112 595.498 112 681 c 128
 112 792.396 237 877 373 877 c 0
 457.377 877 543.903 859.43 644 858 c 0
EndSplineSet
Colour: ffffff
EndChar

StartChar: braceleft
Encoding: 92 123 91
Width: 767
VWidth: 1655
GlyphClass: 2
Flags: HMW
LayerCount: 2
Fore
SplineSet
507 -280 m 1
 503 -381 l 1
 398 -381 l 2
 327 -381 276 -361 246 -321 c 128
 216 -281 201 -220 201 -139 c 0
 201 -108 205 -53 214 25 c 128
 223 103 226 160 226 199 c 0
 226 311 190 373 119 385 c 2
 67 393 l 1
 80 492 l 1
 131 500 l 2
 176 508 212 531 240 572 c 128
 268 613 286 662 296 721 c 0
 319 874 341 993 362 1080 c 0
 377 1136 405 1181 445 1215 c 128
 485 1249 536 1266 599 1266 c 2
 700 1266 l 1
 679 1164 l 1
 597 1158 l 2
 544 1153 510 1076 496 925 c 0
 491 880 489 853 487 843 c 128
 485 833 484 818 481 797 c 128
 478 776 476 762 474 752 c 128
 472 742 470 729 466 711 c 128
 462 693 459 680 455 669 c 128
 451 658 446 646 440 630 c 0
 405 532 347 471 266 448 c 1
 264 442 l 1
 352 415 396 331 397 191 c 0
 397 155 393 95 383 11 c 128
 373 -73 369 -129 369 -158 c 0
 369 -232 390 -271 433 -275 c 2
 507 -280 l 1
EndSplineSet
Colour: ffffff
EndChar

StartChar: bar
Encoding: 93 124 92
Width: 438
VWidth: 1655
GlyphClass: 2
Flags: HMW
LayerCount: 2
Fore
SplineSet
180 -355 m 1
 67 -343 l 1
 259 1229 l 1
 371 1218 l 1
 180 -355 l 1
EndSplineSet
Colour: ffffff
EndChar

StartChar: braceright
Encoding: 94 125 93
Width: 773
VWidth: 1655
GlyphClass: 2
Flags: HMW
LayerCount: 2
Fore
SplineSet
376 686 m 2
 376 706 l 2
 376 753 380 816 391 894 c 128
 402 972 407 1024 407 1053 c 0
 407 1120 389 1155 352 1158 c 2
 270 1164 l 1
 275 1266 l 1
 376 1266 l 2
 446 1266 496 1246 527 1205 c 128
 558 1164 573 1104 573 1026 c 0
 573 985 569 926 560 850 c 128
 551 774 548 722 548 693 c 0
 548 578 585 514 658 500 c 2
 705 492 l 1
 693 393 l 1
 640 385 l 2
 597 377 561 354 534 314 c 128
 507 274 490 224 482 165 c 0
 459 11 436 -109 413 -195 c 0
 397 -252 370 -296 328 -330 c 128
 286 -364 233 -381 170 -381 c 2
 67 -381 l 1
 89 -280 l 1
 163 -275 l 1
 222 -270 259 -192 277 -40 c 1
 295 107 310 200 326 239 c 128
 342 278 356 311 372 336 c 0
 407 390 452 425 509 442 c 1
 509 448 l 1
 420 473 376 552 376 686 c 2
EndSplineSet
Colour: ffffff
EndChar

StartChar: asciitilde
Encoding: 95 126 94
Width: 960
VWidth: 1655
GlyphClass: 2
Flags: HMW
LayerCount: 2
Fore
SplineSet
71 416 m 1
 73 423 76 430 81 440 c 0
 113 514 154 566 204 595 c 0
 227 609 250 616 274 616 c 2
 280 616 l 1
 282 614 284 614 288 615 c 2
 730 571 l 1
 735 571 l 2
 756 571 781 586 810 616 c 2
 825 631 l 1
 890 631 l 1
 883 611 872 589 856 562 c 128
 840 535 824 513 808 495 c 128
 792 477 774 462 751 448 c 128
 728 434 704 427 681 427 c 2
 665 427 l 1
 221 472 l 1
 216 472 l 2
 192 472 166 455 138 421 c 1
 124 402 l 1
 71 416 l 1
EndSplineSet
Colour: ffffff
EndChar

StartChar: exclamdown
Encoding: 97 161 96
Width: 441
VWidth: 1655
GlyphClass: 2
Flags: HMW
LayerCount: 2
Fore
SplineSet
331.767 -296 m 1
 300.767 -318 264.767 -329 223.767 -328 c 128
 182.767 -327 149.767 -316 123.767 -293 c 128
 97.7666 -270 80.7666 -236 72.7666 -191 c 1
 67.7666 -171 65.7666 -149 67.7666 -123 c 0
 67.7666 -48 85.7666 81 120.767 263 c 1
 196.767 623 l 1
 267.767 636 l 1
 256.767 467 l 2
 250.767 381 248.767 275 248.767 150 c 2
 248.767 88 l 1
 253.767 -61 280.767 -189 331.767 -296 c 1
202.767 755 m 128
 191.767 761 181.767 770 170.767 783 c 128
 159.767 796 155.767 807 152.767 818 c 128
 149.767 829 148.767 836 148.767 841 c 128
 148.767 846 150.767 861 156.767 888 c 128
 162.767 915 176.767 939 199.767 962 c 128
 222.767 985 249.767 996 279.767 996 c 1
 306.767 994 326.767 985 342.767 969 c 128
 358.767 953 366.767 937 369.767 919 c 128
 372.767 901 373.767 892 373.767 890 c 128
 373.767 888 372.767 876 367.767 853 c 128
 362.767 830 349.767 808 326.767 785 c 128
 303.767 762 280.767 749 256.767 748 c 128
 232.767 747 213.767 749 202.767 755 c 128
EndSplineSet
Colour: ffffff
EndChar

StartChar: cent
Encoding: 98 162 97
Width: 752
VWidth: 0
GlyphClass: 2
Flags: HMW
LayerCount: 2
Fore
SplineSet
391 92 m 3
 474 92 524 122 574 157 c 1
 598 106 l 1
 537 30 427 -30 330 -30 c 3
 168 -30 67 92 67 307 c 0
 67 674 345 900 517 900 c 3
 624 900 685 842 685 756 c 27
 685 687 620 649 546 642 c 1
 541 710 523 806 467 806 c 3
 370 806 239 621 239 330 c 0
 239 191 284 92 391 92 c 3
472.595 1114 m 1
 621.275 1131 l 1
 555.011 863 l 1
 464.011 863 l 1
 472.595 1114 l 1
200.05 -266 m 1
 268 0 l 1
 357 0 l 1
 350.573 -250 l 1
 200.05 -266 l 1
EndSplineSet
Colour: ffffff
EndChar

StartChar: sterling
Encoding: 99 163 98
Width: 1180
VWidth: 1655
GlyphClass: 2
Flags: HMW
LayerCount: 2
Fore
SplineSet
989 877 m 1
 909 890 l 1
 891 1099 l 1
 864 1115 838 1122 811 1122 c 0
 732 1122 676 1092 645 1032 c 1
 611 971 582 857 557 690 c 1
 550 643 l 1
 769 655 l 1
 746 557 l 1
 539 543 l 1
 532 505 l 1
 505 309 467 173 420 98 c 1
 873 94 l 1
 1031 341 l 1
 1113 323 l 1
 1036 0 l 1
 67 0 l 1
 86 73 l 1
 251 118 l 1
 280 183 308 294 333 451 c 1
 343 537 l 1
 167 527 l 1
 193 627 l 1
 360 636 l 1
 379 770 l 1
 402 918 453 1031 534 1108 c 128
 615 1185 716 1224 834 1224 c 0
 924 1224 999 1211 1059 1186 c 1
 989 877 l 1
EndSplineSet
Colour: ffffff
EndChar

StartChar: currency
Encoding: 100 164 99
Width: 795
VWidth: 1655
GlyphClass: 2
Flags: HMW
LayerCount: 2
Fore
SplineSet
550 512 m 0
 550 557 538 592 513 618 c 128
 488 644 454 657 410 657 c 128
 366 657 328 641 297 609 c 0
 258 570 239 523 239 468 c 128
 239 413 250 373 274 347 c 128
 298 321 332 308 375 308 c 0
 418 307 456 323 489 354 c 0
 530 393 550 445 550 512 c 0
655 514 m 0
 655 442 634 382 592 334 c 1
 675 251 l 1
 578 170 l 1
 512 259 l 1
 456 228 406 212 360 212 c 128
 314 212 270 226 228 253 c 1
 141 165 l 1
 69 249 l 1
 160 325 l 1
 142 358 134 403 134 460 c 128
 134 517 153 568 190 615 c 1
 114 699 l 1
 207 780 l 1
 269 695 l 1
 322 734 377 753 432 752 c 0
 487 752 534 736 575 704 c 1
 664 781 l 1
 726 696 l 1
 634 623 l 1
 648 593 655 557 655 514 c 0
EndSplineSet
Colour: ffffff
EndChar

StartChar: yen
Encoding: 101 165 100
Width: 1178
VWidth: 1655
GlyphClass: 2
Flags: HMW
LayerCount: 2
Fore
SplineSet
408 484 m 1
 101 484 l 1
 124 583 l 1
 391 583 l 1
 210 1133 l 1
 82 1176 l 1
 103 1252 l 1
 568 1252 l 1
 545 1176 l 1
 407 1137 l 1
 564 641 l 1
 845 1133 l 1
 691 1176 l 1
 712 1252 l 1
 1111 1252 l 1
 1091 1176 l 1
 963 1137 l 1
 638 583 l 1
 940 583 l 1
 917 484 l 1
 599 484 l 1
 579 339 l 1
 907 339 l 1
 884 242 l 1
 569 242 l 1
 552 113 l 1
 712 78 l 1
 693 0 l 1
 188 0 l 1
 208 72 l 1
 366 120 l 1
 379 242 l 1
 67 242 l 1
 92 339 l 1
 391 339 l 1
 408 484 l 1
EndSplineSet
Colour: ffffff
EndChar

StartChar: brokenbar
Encoding: 102 166 101
Width: 433
VWidth: 1655
GlyphClass: 2
Flags: HMW
LayerCount: 2
Fore
SplineSet
67 -343 m 1
 161 423 l 1
 268 411 l 1
 174 -355 l 1
 67 -343 l 1
173 529 m 1
 259 1229 l 1
 366 1218 l 1
 274 517 l 1
 173 529 l 1
EndSplineSet
Colour: ffffff
EndChar

StartChar: section
Encoding: 103 167 102
Width: 1048
VWidth: 1655
GlyphClass: 2
Flags: HMW
LayerCount: 2
Fore
SplineSet
916.393 832 m 1
 828.393 851 l 1
 821.393 1101 l 1
 789.393 1144 749.393 1170 702.393 1179 c 1
 689.393 1183 676.393 1184 662.393 1184 c 0
 616.393 1184 575.393 1169 537.393 1139 c 128
 499.393 1109 479.393 1068 475.393 1016 c 1
 475.393 1005 l 2
 475.393 956 488.393 914 513.393 878 c 128
 538.393 842 582.393 799 644.393 749 c 128
 706.393 699 755.393 658 792.393 623 c 128
 829.393 588 860.393 552 887.393 513 c 128
 914.393 474 931.393 429 938.393 376 c 1
 940.393 371 941.393 353 940.393 322 c 128
 939.393 291 931.393 258 914.393 225 c 1
 594.393 493 l 1
 489.393 577 411.393 650 360.393 712 c 128
 309.393 774 283.393 839 283.393 906 c 0
 283.393 911 283.393 914 284.393 918 c 1
 284.393 928 l 1
 288.393 969 299.393 1007 319.393 1043 c 0
 354.393 1109 404.393 1163 471.393 1206 c 128
 538.393 1249 608.393 1272 683.393 1278 c 1
 707.393 1278 l 2
 812.393 1278 904.393 1245 981.393 1178 c 1
 916.393 832 l 1
325.393 46 m 1
 305.393 -7 295.393 -56 296.393 -99 c 0
 296.393 -166 318.393 -214 363.393 -241 c 1
 392.393 -264 428.393 -276 471.393 -277 c 128
 514.393 -278 553.393 -266 588.393 -244 c 128
 623.393 -222 647.393 -191 662.393 -150 c 1
 670.393 -131 674.393 -110 672.393 -86 c 0
 672.393 -29 651.393 22 609.393 67 c 1
 597.393 81 556.393 117 483.393 176 c 128
 410.393 235 351.393 291 304.393 346 c 1
 272.393 386 250.393 421 237.393 452 c 128
 224.393 483 219.393 508 219.393 528 c 128
 219.393 548 219.393 558 220.393 561 c 1
 220.393 574 l 1
 224.393 607 232.393 641 247.393 676 c 1
 556.393 414 712.393 281 716.393 277 c 0
 765.393 232 802.393 191 827.393 152 c 128
 852.393 113 866.393 68 871.393 19 c 1
 873.393 14 873.393 4 873.393 -12 c 0
 873.393 -95 842.393 -170 779.393 -237 c 0
 733.393 -286 678.393 -322 614.393 -345 c 128
 550.393 -368 489.393 -380 431.393 -380 c 0
 327.393 -380 242.393 -356 175.393 -307 c 1
 146.393 -288 122.393 -263 102.393 -231 c 128
 82.3926 -199 72.3926 -172 69.3926 -149 c 1
 67.3926 -145 66.3926 -137 67.3926 -123 c 128
 68.3926 -109 70.3926 -92 75.3926 -72 c 1
 92.3926 -20 127.393 17 180.393 39 c 1
 203.393 50 228.393 55 254.393 56 c 128
 280.393 57 304.393 53 325.393 46 c 1
EndSplineSet
Colour: ffffff
EndChar

StartChar: dieresis
Encoding: 104 168 103
Width: 612
VWidth: 1655
GlyphClass: 2
Flags: HMW
LayerCount: 2
Fore
SplineSet
496 1490 m 128
 513 1475 521 1457 521 1435 c 128
 521 1413 513 1393 496 1378 c 128
 479 1363 459 1356 436 1356 c 128
 413 1356 395 1363 378 1378 c 128
 361 1393 353 1412 353 1435 c 128
 353 1458 361 1475 378 1490 c 128
 395 1505 413 1512 436 1512 c 128
 459 1512 479 1505 496 1490 c 128
234 1490 m 128
 251 1475 258 1457 258 1434 c 128
 258 1411 251 1393 234 1378 c 128
 217 1363 197 1356 174 1356 c 128
 151 1356 133 1363 116 1378 c 128
 99 1393 91 1412 91 1435 c 128
 91 1458 99 1475 116 1490 c 128
 133 1505 151 1512 174 1512 c 128
 197 1512 217 1505 234 1490 c 128
EndSplineSet
Colour: ffffff
EndChar

StartChar: copyright
Encoding: 105 169 104
Width: 1389
VWidth: 1655
GlyphClass: 2
Flags: HMW
LayerCount: 2
Fore
SplineSet
550 421 m 128
 599 366 665 338 747 338 c 128
 829 338 899 361 957 408 c 1
 966 399 975 383 985 360 c 1
 908 286 813 249 701 249 c 0
 633 249 571 264 516 294 c 128
 461 324 416 367 382 425 c 128
 348 483 332 548 332 623 c 0
 332 771 390 886 506 971 c 1
 570 1016 646 1039 734 1038 c 128
 822 1037 893 1016 947 975 c 1
 931 780 l 1
 878 786 l 1
 856 916 l 1
 828 951 778 968 705 967 c 128
 632 966 575 940 535 886 c 128
 495 832 476 756 476 655 c 128
 476 554 501 476 550 421 c 128
680 -28 m 128
 592 -28 509 -11 433 22 c 128
 357 55 292 101 239 158 c 128
 186 215 144 284 114 364 c 128
 84 444 68 531 68 622 c 128
 68 713 85 800 119 882 c 128
 153 964 197 1035 254 1093 c 128
 311 1151 378 1198 454 1233 c 128
 530 1268 612 1285 702 1285 c 128
 792 1285 878 1267 959 1232 c 128
 1040 1197 1107 1149 1161 1087 c 1
 1269 958 1323 804 1322 625 c 0
 1322 539 1306 455 1272 375 c 128
 1238 295 1193 226 1137 167 c 128
 1081 108 1012 62 932 26 c 128
 852 -10 768 -28 680 -28 c 128
254 908 m 128
 210 824 189 730 189 627 c 128
 189 524 210 430 253 346 c 128
 296 262 354 196 430 149 c 128
 506 102 585 78 668 78 c 128
 751 78 825 91 888 118 c 128
 951 145 1006 182 1052 230 c 128
 1098 278 1134 335 1161 402 c 128
 1188 469 1202 540 1202 615 c 0
 1202 767 1161 898 1080 1008 c 0
 1039 1063 984 1106 916 1137 c 128
 848 1168 770 1184 683 1184 c 128
 596 1184 513 1159 436 1109 c 128
 359 1059 298 992 254 908 c 128
EndSplineSet
Colour: ffffff
EndChar

StartChar: ordfeminine
Encoding: 106 170 105
Width: 801
VWidth: 0
GlyphClass: 2
Flags: HMW
LayerCount: 2
Fore
SplineSet
485.787 932 m 1
 491.172 966 l 2
 507.777 1074 514.919 1169.6 412.97 1169.6 c 0
 342.919 1169.6 322.113 1114 288.21 977.6 c 1
 207.306 970 165.673 1004 165.673 1066 c 0
 165.673 1168 367.237 1254 484.537 1254 c 0
 635.837 1254 682.091 1177 655.588 1008.4 c 2
 614.345 748 l 2
 602.688 674.4 618.306 648 691.615 634.8 c 2
 732.975 627.6 l 1
 712.137 565.8 l 1
 665.458 529 639.369 519.6 589.22 519.6 c 0
 481.19 519.6 447.447 582.606 456.349 638.8 c 1
 446.999 638.8 l 1
 417.333 596.4 353.86 514.8 214.459 514.8 c 0
 133.734 514.8 70 573.613 70 654.585 c 0
 70 796.262 198.046 932 485.787 932 c 1
247.12 700.979 m 0
 247.12 665.387 265.447 631.2 319.611 631.2 c 0
 379.111 631.2 417.417 679.8 450.155 709.4 c 1
 475.506 874.4 l 1
 316.878 846.688 247.12 793.795 247.12 700.979 c 0
EndSplineSet
Colour: ffffff
EndChar

StartChar: guillemotleft
Encoding: 107 171 106
Width: 745
VWidth: 0
GlyphClass: 2
Flags: HMW
LayerCount: 2
Fore
SplineSet
318 469 m 5
 642 821 l 5
 677 761 l 5
 464 461 l 5
 581 140 l 5
 518 78 l 5
 317 449 l 5
 318 469 l 5
71 469 m 5
 394 821 l 5
 429 761 l 5
 216 461 l 5
 333 140 l 5
 270 78 l 5
 69 449 l 5
 71 469 l 5
EndSplineSet
Colour: ffffff
EndChar

StartChar: logicalnot
Encoding: 108 172 107
Width: 916
VWidth: 0
GlyphClass: 2
Flags: HMW
LayerCount: 2
Fore
SplineSet
100 664 m 1
 845 664 l 1
 797 350 l 1
 688 332 l 1
 724 558 l 1
 72 558 l 1
 100 664 l 1
EndSplineSet
Colour: ffffff
EndChar

StartChar: softhyphen
Encoding: 109 173 108
Width: 589
VWidth: 0
GlyphClass: 2
Flags: HMW
LayerCount: 2
Fore
SplineSet
98 522 m 1
 516 581 l 1
 490 466 l 1
 72 406 l 1
 98 522 l 1
EndSplineSet
Colour: ffffff
EndChar

StartChar: registered
Encoding: 110 174 109
Width: 1110
VWidth: 0
GlyphClass: 2
Flags: HMW
LayerCount: 2
Fore
SplineSet
268.15 776.9 m 1
 274.9 824.601 l 1
 355 852.95 l 1
 355 1248.5 l 1
 273.55 1265.6 l 1
 278.5 1319.15 l 1
 344.2 1329.5 457.6 1341.2 524.2 1341.2 c 0
 676.75 1341.2 769 1304.3 769 1193.6 c 0
 769 1123.4 710.15 1051.3 643.55 1027.9 c 1
 642.9 1026 l 5
 720.5 935.2 l 2
 770.9 877 789.979 862.651 840.2 839.4 c 2
 856.4 831.9 l 1
 846.05 776.9 l 1
 826.7 770.601 795.5 766.101 764 766.101 c 0
 673.1 766.101 631.404 822.362 581.5 917.5 c 2
 537.7 1001 l 1
 481.9 1001 l 1
 481.9 857 l 1
 556.15 830.45 l 1
 551.2 776.9 l 1
 268.15 776.9 l 1
481.9 1068.5 m 1
 560.65 1068.5 l 1
 600.25 1085.6 632.2 1117.1 632.2 1170.2 c 0
 632.2 1232.75 589 1271.8 516.1 1271.8 c 0
 498.1 1271.8 484.6 1270.45 481.9 1270.45 c 1
 481.9 1068.5 l 1
68 1022.5 m 0
 68 1344 279 1522.5 547 1522.5 c 0
 823 1522.5 1042 1352 1042 1026.5 c 0
 1042 716 819 540.5 537 540.5 c 0
 275 540.5 68 724 68 1022.5 c 0
156 1036.5 m 0
 156 776 327 616.5 545 616.5 c 0
 773 616.5 954 784 954 1016.5 c 0
 954 1280 773 1446.5 547 1446.5 c 0
 325 1446.5 156 1300 156 1036.5 c 0
EndSplineSet
Colour: ffffff
EndChar

StartChar: macron
Encoding: 111 175 110
Width: 627
VWidth: 1655
GlyphClass: 2
Flags: HMW
LayerCount: 2
Fore
SplineSet
104 1450 m 1
 536 1450 l 1
 523 1351 l 1
 91 1351 l 1
 104 1450 l 1
EndSplineSet
Colour: ffffff
EndChar

StartChar: degree
Encoding: 112 176 111
Width: 474
VWidth: 1655
GlyphClass: 2
Flags: HMW
LayerCount: 2
Fore
SplineSet
359 1243 m 128
 387 1213 400 1173 400 1125 c 128
 400 1077 384 1036 353 1002 c 128
 322 968 282 951 234 951 c 128
 186 951 148 966 119 996 c 128
 90 1026 76 1065 76 1114 c 128
 76 1163 93 1203 126 1237 c 128
 159 1271 200 1288 247 1288 c 128
 294 1288 331 1273 359 1243 c 128
170 1210 m 128
 155 1189 148 1160 148 1126 c 128
 148 1092 156 1062 173 1037 c 128
 190 1012 213 999 242 999 c 0
 301 999 330 1037 331 1113 c 0
 331 1150 322 1181 304 1205 c 128
 286 1229 263 1241 235 1241 c 128
 207 1241 185 1231 170 1210 c 128
EndSplineSet
Colour: ffffff
EndChar

StartChar: plusminus
Encoding: 113 177 112
Width: 799
VWidth: 0
GlyphClass: 2
Flags: HMW
LayerCount: 2
Fore
SplineSet
84.5273 117 m 1
 696.419 124 l 1
 679.891 20 l 1
 68 13 l 1
 84.5273 117 l 1
EndSplineSet
Refer: 11 43 S 1 0 -4.47035e-07 1 143.23 81 2
Colour: ffffff
EndChar

StartChar: two.superior
Encoding: 114 178 113
Width: 770
VWidth: 0
GlyphClass: 2
Flags: HMW
LayerCount: 2
Fore
SplineSet
94.9463 638 m 1
 269.427 761 l 1
 406.842 860.438 495.742 928.414 495.742 1056.71 c 0
 495.742 1109.26 476.824 1153 405.514 1153 c 0
 356.514 1153 312.396 1127 292.328 1095 c 1
 249.896 966 l 1
 182.688 971 l 1
 194.614 1141 l 1
 247.809 1218 384.986 1257 485.986 1257 c 0
 623.925 1257 700.277 1201.73 700.277 1104.38 c 0
 700.277 922.489 510.202 804.898 327.132 696 c 2
 253.164 652 l 1
 523.164 652 l 1
 626.396 805 l 1
 680.071 784 l 1
 621 531 l 1
 70 531 l 1
 94.9463 638 l 1
EndSplineSet
Colour: ffffff
EndChar

StartChar: three.superior
Encoding: 115 179 114
Width: 742
VWidth: 0
GlyphClass: 2
Flags: HMW
LayerCount: 2
Fore
SplineSet
69 563 m 1
 130.517 762 l 1
 204.251 754 l 1
 190.869 619 l 1
 205.543 598 240.534 579 283.534 579 c 0
 377.181 579 457.836 639.22 457.836 733.142 c 0
 457.836 797.666 386.164 849 273.298 849 c 1
 266.642 908 l 1
 321.352 924.291 478.06 975.102 478.06 1092.15 c 0
 478.06 1141.95 450.868 1189 388.148 1189 c 0
 357.148 1189 325.673 1186 301.664 1167 c 1
 252.798 1010 l 1
 177.748 1016 l 1
 192.831 1187 l 1
 230.801 1231 353.402 1279 456.402 1279 c 0
 581.11 1279 672.648 1231.21 672.648 1140.37 c 0
 672.648 1018.9 564.814 955.477 461.651 927 c 1
 460.543 920 l 1
 588.426 906.55 651.93 852.098 651.93 766.735 c 0
 651.93 604.157 459.867 495 266.229 495 c 0
 171.229 495 82.3477 521 69 563 c 1
EndSplineSet
Colour: ffffff
EndChar

StartChar: acute
Encoding: 116 180 115
Width: 410
VWidth: 1655
GlyphClass: 2
Flags: HMW
LayerCount: 2
Fore
SplineSet
320 1633 m 1
 140 1322 l 1
 90 1352 l 1
 209 1671 l 1
 320 1633 l 1
EndSplineSet
Colour: ffffff
EndChar

StartChar: micro
Encoding: 117 181 116
Width: 1046
VWidth: 1655
GlyphClass: 2
Flags: HMW
LayerCount: 2
Fore
SplineSet
229 738 m 1
 98 792 l 1
 121 874 l 1
 393 895 l 1
 413 871 l 1
 345 317 l 2
 343 299 342 282 341 264 c 0
 341 159 386 107 476 106 c 0
 503 106 524 108 539 114 c 128
 554 120 564 123 571 125 c 128
 578 127 588 132 600 140 c 128
 612 148 619 152 623 154 c 0
 650 170 666 180 673 188 c 1
 739 734 l 1
 584 775 l 1
 605 867 l 1
 905 895 l 1
 921 871 l 1
 843 214 l 1
 840 178 l 1
 840 144 848 122 867 111 c 128
 886 100 908 94 935 88 c 1
 979 78 l 1
 959 -7 l 1
 902 -20 852 -26 808 -26 c 128
 764 -26 730 -15 708 7 c 128
 686 29 675 59 675 98 c 0
 675 103 675 106 677 108 c 1
 677 121 l 2
 677 123 677 123 678 125 c 1
 678 129 l 1
 666 129 l 1
 559 26 456 -26 357 -26 c 0
 295 -26 251 -4 225 39 c 1
 219 39 l 1
 219 -16 l 2
 219 -51 219 -74 217 -86 c 2
 197 -390 l 1
 67 -364 l 1
 130 -2 174 284 199 495 c 2
 229 738 l 1
EndSplineSet
Colour: ffffff
EndChar

StartChar: paragraph
Encoding: 118 182 117
Width: 1395
VWidth: 0
GlyphClass: 2
Flags: HMW
LayerCount: 2
Fore
SplineSet
583.112 1245 m 2
 929.114 1245 l 1
 731.924 0 l 1
 325.924 0 l 1
 344.645 74 l 1
 593.088 121 l 1
 756.383 1152 l 1
 716.541 1153 659.699 1154 649.699 1154 c 0
 417.019 1154 279.166 1039.23 279.166 816.553 c 0
 279.166 675.835 358.32 546 547.402 546 c 9
 513.88 448 l 1
 276.015 448 68 551.091 68 785.08 c 0
 68 1071.96 323.218 1245 583.112 1245 c 2
810.924 0 m 1
 1008.11 1245 l 1
 1328.11 1245 l 1
 1306.91 1168 l 1
 1130.89 1130 l 1
 969.984 114 l 1
 1145.59 80 l 1
 1122.92 0 l 1
 810.924 0 l 1
EndSplineSet
Colour: ffffff
EndChar

StartChar: periodcentered
Encoding: 119 183 118
Width: 387
VWidth: 1655
GlyphClass: 2
Flags: HMW
LayerCount: 2
Fore
SplineSet
109 419 m 128
 85 444 73 473 73 507 c 128
 73 541 85 568 108 589 c 128
 131 610 160 620 193 620 c 128
 226 620 254 608 278 586 c 128
 302 564 314 537 314 504 c 128
 314 471 302 443 278 418 c 128
 254 393 226 381 193 381 c 128
 160 381 133 394 109 419 c 128
EndSplineSet
Colour: ffffff
EndChar

StartChar: cedilla
Encoding: 120 184 119
Width: 366
VWidth: 1655
GlyphClass: 2
Flags: HMW
LayerCount: 2
Fore
SplineSet
203 -75 m 1
 262 -126 291 -174 290 -221 c 0
 290 -290 225 -343 95 -381 c 1
 75 -323 l 1
 131 -303 159 -276 159 -242 c 0
 159 -215 135 -179 88 -134 c 1
 183 3 l 1
 257 3 l 1
 203 -75 l 1
EndSplineSet
Colour: ffffff
EndChar

StartChar: one.superior
Encoding: 121 185 120
Width: 641
VWidth: 0
GlyphClass: 2
Flags: HMW
LayerCount: 2
Fore
SplineSet
70 531 m 5
 85.7188 605 l 5
 242.679 630 l 5
 320.604 1122 l 5
 175.604 1122 l 5
 191.8 1199 l 5
 501.085 1245 l 5
 520.085 1245 l 5
 422.204 627 l 5
 572.145 614 l 5
 553 531 l 5
 70 531 l 5
EndSplineSet
Colour: ffffff
EndChar

StartChar: ordmasculine
Encoding: 122 186 121
Width: 859
VWidth: 0
GlyphClass: 2
Flags: HMW
LayerCount: 2
Fore
SplineSet
506.199 1258 m 0
 688.466 1258 790.084 1144.33 790.084 969.448 c 0
 790.084 697.528 586.487 514 367.961 514 c 0
 171.206 514 70 634.545 70 802.837 c 0
 70 1090.28 301.548 1258 506.199 1258 c 0
245.628 810.639 m 0
 245.628 691.238 273.446 593.6 399.152 593.6 c 0
 556.234 593.6 612.444 784.34 612.444 948.204 c 0
 612.444 1067.75 577.084 1175 457.195 1175 c 0
 294.511 1175 245.628 984.086 245.628 810.639 c 0
EndSplineSet
Colour: ffffff
EndChar

StartChar: onequarter
Encoding: 124 188 123
Width: 1444
VWidth: 0
GlyphClass: 2
Flags: HMW
LayerCount: 2
Fore
SplineSet
771 270 m 1
 1255 737 l 1
 1310 726 l 1
 1290 641 1272 542 1254 430 c 2
 1229 272 l 1
 1377 272 l 1
 1353 175 l 1
 1214 175 l 1
 1199 83 l 1
 1318 65 l 1
 1301 0 l 1
 887 0 l 1
 900 58 l 1
 1041 85 l 1
 1056 178 l 1
 769 178 l 1
 771 270 l 1
878 272 m 1
 1068 272 l 1
 1106 508 l 1
 878 272 l 1
67 531 m 1
 83 605 l 1
 240 630 l 1
 318 1122 l 1
 173 1122 l 1
 189 1199 l 1
 498 1245 l 1
 517 1245 l 1
 420 627 l 1
 569 614 l 1
 550 531 l 1
 67 531 l 1
193 -10 m 1
 694 588 l 1
 1184 1210 l 1
 1359 1207 l 1
 1353 1178 l 1
 859 591 l 1
 389 -32 l 1
 193 -10 l 1
EndSplineSet
Colour: ffffff
EndChar

StartChar: onehalf
Encoding: 125 189 124
Width: 1517
VWidth: 0
GlyphClass: 2
Flags: HMW
LayerCount: 2
Fore
SplineSet
844 109 m 1
 1019 232 l 2
 1053 256 1078 276 1096 290 c 128
 1114 304 1135 320 1157 341 c 128
 1179 362 1195 381 1206 398 c 128
 1217 415 1226 433 1234 456 c 128
 1242 479 1245 503 1245 528 c 0
 1245 592 1215 624 1155 624 c 0
 1131 624 1109 618 1088 607 c 128
 1067 596 1052 583 1041 566 c 1
 999 437 l 1
 932 442 l 1
 944 612 l 1
 969 648 1010 676 1067 697 c 128
 1124 718 1180 728 1235 728 c 0
 1304 728 1357 715 1394 688 c 128
 1431 661 1450 624 1450 575 c 0
 1450 550 1446 526 1438 501 c 128
 1430 476 1420 454 1408 434 c 128
 1396 414 1381 394 1360 372 c 128
 1339 350 1319 333 1301 317 c 128
 1283 301 1259 284 1230 264 c 128
 1201 244 1175 228 1155 215 c 128
 1135 202 1110 187 1077 167 c 2
 1002 123 l 1
 1272 123 l 1
 1376 276 l 1
 1429 255 l 1
 1370 2 l 1
 820 2 l 1
 844 109 l 1
67 531 m 1
 83 605 l 1
 240 630 l 1
 318 1122 l 1
 173 1122 l 1
 189 1199 l 1
 498 1245 l 1
 517 1245 l 1
 420 627 l 1
 569 614 l 1
 550 531 l 1
 67 531 l 1
173 -10 m 1
 674 588 l 1
 1164 1210 l 1
 1339 1207 l 1
 1333 1178 l 1
 839 591 l 1
 369 -32 l 1
 173 -10 l 1
EndSplineSet
Colour: ffffff
EndChar

StartChar: threequarters
Encoding: 126 190 125
Width: 1420
VWidth: 0
GlyphClass: 2
Flags: HMW
LayerCount: 2
Fore
SplineSet
67 546 m 5
 128 745 l 5
 202 737 l 5
 188 602 l 5
 196 591 208 582 225 574 c 132
 242 566 260 562 281 562 c 4
 329 562 371 576 405 605 c 132
 439 634 455 670 455 716 c 4
 455 749 439 777 405 799 c 132
 371 821 326 832 271 832 c 5
 264 891 l 5
 280 896 294 900 308 905 c 132
 322 910 339 918 361 929 c 132
 383 940 403 951 418 964 c 132
 433 977 446 992 458 1012 c 132
 470 1032 475 1053 475 1075 c 4
 475 1102 468 1125 453 1144 c 132
 438 1163 415 1172 385 1172 c 4
 346 1172 318 1165 299 1150 c 5
 250 993 l 5
 175 999 l 5
 190 1170 l 5
 210 1193 247 1214 300 1233 c 132
 353 1252 404 1262 454 1262 c 4
 518 1262 570 1250 610 1226 c 132
 650 1202 670 1167 670 1123 c 4
 670 1094 664 1067 652 1043 c 132
 640 1019 624 998 603 981 c 132
 582 964 560 951 536 939 c 132
 512 927 487 918 459 910 c 5
 458 903 l 5
 521 896 569 880 601 854 c 132
 633 828 650 793 650 750 c 4
 650 698 631 650 593 608 c 132
 555 566 507 534 449 512 c 132
 391 490 328 478 263 478 c 4
 214 478 171 484 133 497 c 132
 95 510 74 525 67 546 c 5
182 -10 m 5
 684 588 l 5
 1174 1210 l 5
 1349 1207 l 5
 1343 1178 l 5
 849 591 l 5
 379 -32 l 5
 182 -10 l 5
747 270 m 5
 1231 737 l 5
 1286 726 l 5
 1266 641 1248 542 1230 430 c 6
 1205 272 l 5
 1353 272 l 5
 1329 175 l 5
 1190 175 l 5
 1175 83 l 5
 1294 65 l 5
 1277 0 l 5
 863 0 l 5
 876 58 l 5
 1017 85 l 5
 1032 178 l 5
 745 178 l 5
 747 270 l 5
854 272 m 5
 1044 272 l 5
 1082 508 l 5
 854 272 l 5
EndSplineSet
Colour: ffffff
EndChar

StartChar: questiondown
Encoding: 127 191 126
Width: 685
VWidth: 1655
GlyphClass: 2
Flags: HMW
LayerCount: 2
Fore
SplineSet
414 778 m 1
 404 791 400 802 397 813 c 128
 394 824 393 831 393 836 c 128
 393 841 395 857 401 884 c 128
 407 911 421 937 444 959 c 128
 467 981 493 992 524 992 c 1
 551 990 571 981 586 964 c 128
 601 947 610 932 613 914 c 128
 616 896 618 887 618 885 c 128
 618 883 616 871 611 848 c 128
 606 825 593 803 570 780 c 128
 547 757 524 745 500 744 c 128
 476 743 460 745 449 750 c 128
 438 755 427 764 414 778 c 1
538 453 m 1
 543 401 l 1
 543 361 531 326 508 295 c 128
 485 264 463 241 439 225 c 128
 415 209 384 195 347 180 c 128
 310 165 282 152 264 141 c 128
 246 130 227 113 208 91 c 128
 189 69 178 43 174 14 c 1
 174 7 l 1
 172 3 172 1 173 -3 c 0
 173 -56 197 -101 245 -136 c 1
 265 -149 287 -156 310 -160 c 1
 320 -160 l 1
 322 -162 327 -162 335 -162 c 128
 343 -162 360 -159 386 -151 c 0
 445 -135 488 -114 514 -89 c 1
 525 -94 535 -101 545 -113 c 1
 563 -133 571 -151 571 -169 c 128
 571 -187 571 -196 569 -200 c 1
 561 -248 530 -285 475 -311 c 0
 443 -327 409 -334 374 -334 c 2
 352 -334 l 1
 293 -330 242 -312 198 -278 c 128
 154 -244 121 -199 99 -146 c 128
 77 -93 67 -44 67 -1 c 128
 67 42 69 73 74 93 c 0
 87 156 120 211 174 258 c 1
 205 283 227 299 242 305 c 0
 265 315 279 319 284 321 c 128
 289 323 294 325 301 328 c 128
 308 331 311 331 313 332 c 128
 315 333 318 334 324 337 c 128
 330 340 332 341 335 343 c 128
 339 345 339 345 346 349 c 128
 351 352 354 353 357 355 c 128
 360 357 363 359 367 362 c 0
 377 370 386 380 397 392 c 0
 415 412 424 443 424 484 c 2
 424 505 l 1
 422 512 422 517 422 521 c 128
 422 525 421 542 418 571 c 1
 494 587 l 1
 518 528 532 484 538 453 c 1
EndSplineSet
Colour: ffffff
EndChar

StartChar: Agrave
Encoding: 128 192 127
Width: 1373
VWidth: 1655
GlyphClass: 2
Flags: HMW
LayerCount: 2
Fore
SplineSet
862 505 m 1
 774 1062 l 1
 770 1062 l 1
 673 724 l 1
 644 627 624 564 614 536 c 1
 862 505 l 1
916 1271 m 1
 1126 132 l 1
 1304 81 l 1
 1281 0 l 1
 705 0 l 1
 728 72 l 1
 926 108 l 1
 875 430 l 1
 583 446 l 1
 534 310 493 215 460 157 c 128
 427 99 397 56 369 29 c 128
 341 2 306 -16 267 -24 c 1
 249 -26 240 -27 236 -28 c 0
 198 -28 163 -16 131 8 c 128
 99 32 76 62 63 101 c 1
 113 120 158 142 197 168 c 1
 266 213 330 274 389 349 c 0
 466 450 539 596 608 786 c 1
 663 947 707 1098 738 1241 c 1
 916 1271 l 1
637 1655 m 1
 751 1693 l 1
 880 1365 l 1
 823 1332 l 1
 637 1655 l 1
EndSplineSet
Colour: ffffff
EndChar

StartChar: Aacute
Encoding: 129 193 128
Width: 1373
VWidth: 1655
GlyphClass: 2
Flags: HMW
LayerCount: 2
Fore
SplineSet
862 505 m 1
 774 1062 l 1
 770 1062 l 1
 673 724 l 1
 644 627 624 564 614 536 c 1
 862 505 l 1
916 1271 m 1
 1126 132 l 1
 1304 81 l 1
 1281 0 l 1
 705 0 l 1
 728 72 l 1
 926 108 l 1
 875 430 l 1
 583 446 l 1
 534 310 493 215 460 157 c 128
 427 99 397 56 369 29 c 128
 341 2 306 -16 267 -24 c 1
 249 -26 240 -27 236 -28 c 0
 198 -28 163 -16 131 8 c 128
 99 32 76 62 63 101 c 1
 113 120 158 142 197 168 c 1
 266 213 330 274 389 349 c 0
 466 450 539 596 608 786 c 1
 663 947 707 1098 738 1241 c 1
 916 1271 l 1
1058 1661 m 1
 879 1351 l 1
 828 1382 l 1
 949 1701 l 1
 1058 1661 l 1
EndSplineSet
Colour: ffffff
EndChar

StartChar: Acircumflex
Encoding: 130 194 129
Width: 1373
VWidth: 1655
GlyphClass: 2
Flags: HMW
LayerCount: 2
Fore
SplineSet
862 505 m 1
 774 1062 l 1
 770 1062 l 1
 673 724 l 1
 644 627 624 564 614 536 c 1
 862 505 l 1
916 1271 m 1
 1126 132 l 1
 1304 81 l 1
 1281 0 l 1
 705 0 l 1
 728 72 l 1
 926 108 l 1
 875 430 l 1
 583 446 l 1
 534 310 493 215 460 157 c 128
 427 99 397 56 369 29 c 128
 341 2 306 -16 267 -24 c 1
 249 -26 240 -27 236 -28 c 0
 198 -28 163 -16 131 8 c 128
 99 32 76 62 63 101 c 1
 113 120 158 142 197 168 c 1
 266 213 330 274 389 349 c 0
 466 450 539 596 608 786 c 1
 663 947 707 1098 738 1241 c 1
 916 1271 l 1
859 1577 m 1
 1034 1396 l 1
 986 1361 l 1
 825 1468 l 1
 815 1468 l 1
 677 1359 l 1
 640 1388 l 1
 806 1564 l 1
 859 1577 l 1
EndSplineSet
Colour: ffffff
EndChar

StartChar: Atilde
Encoding: 131 195 130
Width: 1373
VWidth: 1655
GlyphClass: 2
Flags: HMW
LayerCount: 2
Fore
SplineSet
862 505 m 1
 774 1062 l 1
 770 1062 l 1
 673 724 l 1
 644 627 624 564 614 536 c 1
 862 505 l 1
916 1271 m 1
 1126 132 l 1
 1304 81 l 1
 1281 0 l 1
 705 0 l 1
 728 72 l 1
 926 108 l 1
 875 430 l 1
 583 446 l 1
 534 310 493 215 460 157 c 128
 427 99 397 56 369 29 c 128
 341 2 306 -16 267 -24 c 1
 249 -26 240 -27 236 -28 c 0
 198 -28 163 -16 131 8 c 128
 99 32 76 62 63 101 c 1
 113 120 158 142 197 168 c 1
 266 213 330 274 389 349 c 0
 466 450 539 596 608 786 c 1
 663 947 707 1098 738 1241 c 1
 916 1271 l 1
705 1419 m 2
 688 1419 669 1403 647 1372 c 1
 609 1380 l 1
 611 1387 614 1397 618 1411 c 128
 622 1425 630 1441 644 1462 c 0
 669 1501 697 1521 730 1522 c 2
 737 1522 l 1
 739 1520 741 1520 743 1520 c 2
 961 1490 l 1
 965 1490 l 2
 979 1490 997 1504 1019 1531 c 1
 1067 1529 l 1
 1036 1435 993 1388 939 1388 c 2
 928 1388 l 1
 709 1419 l 1
 705 1419 l 2
EndSplineSet
Colour: ffffff
EndChar

StartChar: Adieresis
Encoding: 132 196 131
Width: 1373
VWidth: 1655
GlyphClass: 2
Flags: HMW
LayerCount: 2
Fore
SplineSet
862 505 m 1
 774 1062 l 1
 770 1062 l 1
 673 724 l 1
 644 627 624 564 614 536 c 1
 862 505 l 1
916 1271 m 1
 1126 132 l 1
 1304 81 l 1
 1281 0 l 1
 705 0 l 1
 728 72 l 1
 926 108 l 1
 875 430 l 1
 583 446 l 1
 534 310 493 215 460 157 c 128
 427 99 397 56 369 29 c 128
 341 2 306 -16 267 -24 c 1
 249 -26 240 -27 236 -28 c 0
 198 -28 163 -16 131 8 c 128
 99 32 76 62 63 101 c 1
 113 120 158 142 197 168 c 1
 266 213 330 274 389 349 c 0
 466 450 539 596 608 786 c 1
 663 947 707 1098 738 1241 c 1
 916 1271 l 1
1028 1519 m 128
 1045 1504 1053 1486 1053 1464 c 128
 1053 1442 1045 1424 1028 1408 c 128
 1011 1392 991 1385 968 1385 c 128
 945 1385 925 1392 909 1408 c 128
 893 1424 885 1443 885 1465 c 128
 885 1488 893 1504 909 1519 c 128
 925 1534 945 1541 968 1541 c 128
 991 1541 1011 1534 1028 1519 c 128
766 1519 m 128
 783 1504 790 1486 790 1464 c 128
 790 1442 783 1423 766 1408 c 128
 749 1393 729 1385 706 1385 c 128
 683 1385 665 1392 648 1408 c 128
 631 1424 623 1443 623 1465 c 128
 623 1488 631 1504 648 1519 c 128
 665 1534 683 1541 706 1541 c 128
 729 1541 749 1534 766 1519 c 128
EndSplineSet
Colour: ffffff
EndChar

StartChar: Aring
Encoding: 133 197 132
Width: 1373
VWidth: 1655
GlyphClass: 2
Flags: HMW
LayerCount: 2
Fore
SplineSet
862 505 m 1
 774 1062 l 1
 770 1062 l 1
 673 724 l 1
 644 627 624 564 614 536 c 1
 862 505 l 1
916 1271 m 1
 1126 132 l 1
 1304 81 l 1
 1281 0 l 1
 705 0 l 1
 728 72 l 1
 926 108 l 1
 875 430 l 1
 583 446 l 1
 534 310 493 215 460 157 c 128
 427 99 397 56 369 29 c 128
 341 2 306 -16 267 -24 c 1
 249 -26 240 -27 236 -28 c 0
 198 -28 163 -16 131 8 c 128
 99 32 76 62 63 101 c 1
 113 120 158 142 197 168 c 1
 266 213 330 274 389 349 c 0
 466 450 539 596 608 786 c 1
 663 947 707 1098 738 1241 c 1
 916 1271 l 1
772 1615 m 128
 756 1594 749 1568 749 1535 c 128
 749 1502 757 1473 775 1448 c 128
 793 1423 815 1410 842 1410 c 0
 898 1411 926 1448 928 1523 c 0
 928 1558 920 1587 902 1611 c 128
 884 1635 862 1647 835 1647 c 128
 808 1647 788 1636 772 1615 c 128
955 1649 m 128
 983 1619 998 1582 998 1535 c 128
 998 1488 982 1448 950 1414 c 128
 918 1380 879 1363 833 1363 c 128
 787 1363 749 1378 721 1408 c 128
 693 1438 679 1476 679 1523 c 128
 679 1570 695 1609 728 1643 c 128
 761 1677 800 1694 845 1694 c 128
 890 1694 927 1679 955 1649 c 128
EndSplineSet
Colour: ffffff
EndChar

StartChar: AE
Encoding: 134 198 133
Width: 1568
VWidth: 1655
GlyphClass: 2
Flags: HMW
LayerCount: 2
Fore
SplineSet
794 507 m 1
 774 1064 l 1
 768 1064 l 1
 674 726 l 1
 658 671 638 607 613 534 c 1
 794 507 l 1
1489 430 m 1
 1494 412 1496 375 1496 317 c 0
 1496 187 1476 81 1436 0 c 1
 1409 0 l 2
 1378 0 1353 0 1332 2 c 1
 1107 2 l 2
 1054 2 1015 2 991 3 c 1
 819 3 l 1
 566 -3 l 1
 589 80 l 1
 806 134 l 1
 796 432 l 1
 584 444 l 1
 533 307 490 208 455 146 c 1
 422 91 392 52 366 26 c 128
 340 0 312 -16 284 -21 c 128
 256 -26 241 -28 237 -28 c 0
 200 -28 165 -16 132 8 c 128
 99 32 77 63 63 101 c 1
 113 120 158 142 198 168 c 1
 264 210 327 270 388 349 c 1
 497 495 600 733 695 1066 c 1
 711 1119 725 1178 737 1241 c 1
 1480 1280 l 1
 1440 862 l 1
 1353 869 l 1
 1297 1125 l 1
 1267 1128 l 1
 1194 1135 1098 1139 979 1142 c 1
 947 1143 l 1
 967 681 l 1
 1334 698 l 1
 1295 557 l 1
 972 578 l 1
 1000 101 l 1
 1085 108 l 2
 1199 120 1266 127 1287 132 c 1
 1307 157 1330 203 1355 270 c 128
 1380 337 1395 391 1402 434 c 1
 1489 430 l 1
EndSplineSet
Colour: ffffff
EndChar

StartChar: Ccedilla
Encoding: 135 199 134
Width: 1071
VWidth: 1655
GlyphClass: 2
Flags: HMW
LayerCount: 2
Fore
SplineSet
585 -75 m 1
 644 -126 673 -174 672 -221 c 0
 672 -290 607 -343 477 -381 c 1
 457 -323 l 1
 513 -303 541 -276 542 -242 c 0
 542 -215 518 -179 470 -134 c 1
 544 -30 l 1
 521 -30 l 2
 482 -30 440 -24 395 -12 c 1
 302 17 226 71 165 151 c 128
 104 231 72 332 66 455 c 1
 66 471 l 1
 64 477 64 482 64 488 c 0
 64 707 135 899 277 1064 c 1
 387 1192 517 1255 667 1254 c 0
 815 1254 918 1197 977 1085 c 1
 995 1055 1003 1021 1002 982 c 2
 1002 971 l 1
 1001 932 989 897 965 865 c 128
 941 833 914 814 885 806 c 128
 856 798 834 794 817 794 c 128
 800 794 784 796 768 802 c 1
 777 847 781 885 781 917 c 128
 781 949 779 978 774 1005 c 0
 764 1058 730 1097 671 1123 c 1
 648 1132 619 1136 582 1134 c 128
 545 1132 506 1117 464 1087 c 128
 422 1057 388 1018 363 971 c 0
 320 894 295 785 286 641 c 0
 284 604 283 583 283 578 c 0
 283 405 327 278 415 196 c 0
 467 148 528 124 597 125 c 0
 639 125 679 133 718 149 c 128
 757 165 792 190 825 223 c 128
 858 256 881 285 897 310 c 1
 939 248 l 1
 925 213 905 177 876 142 c 0
 815 69 739 19 650 -10 c 0
 639 -14 631 -15 625 -16 c 1
 585 -75 l 1
EndSplineSet
Colour: ffffff
EndChar

StartChar: Egrave
Encoding: 136 200 135
Width: 1321
VWidth: 1655
GlyphClass: 2
Flags: HMW
LayerCount: 2
Fore
SplineSet
1113 0 m 1
 745 2 538 3 495 3 c 1
 63 -3 l 1
 86 80 l 1
 304 134 l 1
 429 1094 l 1
 202 1117 l 1
 222 1194 l 1
 295 1209 403 1221 548 1233 c 128
 693 1245 829 1250 955 1250 c 2
 1028 1250 l 1
 1252 1246 l 1
 1172 835 l 1
 1086 848 l 1
 1054 1111 l 1
 1026 1117 l 1
 925 1136 802 1145 657 1143 c 2
 624 1143 l 1
 569 680 l 1
 1024 712 l 1
 990 569 l 1
 557 578 l 1
 495 99 l 1
 712 108 l 1
 834 115 918 122 963 132 c 1
 986 169 1012 222 1043 292 c 128
 1074 362 1093 415 1103 451 c 1
 1190 440 l 1
 1190 434 l 2
 1190 345 1183 262 1169 182 c 128
 1155 102 1137 41 1113 0 c 1
654 1655 m 1
 767 1693 l 1
 896 1365 l 1
 840 1332 l 1
 654 1655 l 1
EndSplineSet
Colour: ffffff
EndChar

StartChar: Eacute
Encoding: 137 201 136
Width: 1321
VWidth: 1655
GlyphClass: 2
Flags: HMW
LayerCount: 2
Fore
SplineSet
1113 0 m 1
 745 2 538 3 495 3 c 1
 63 -3 l 1
 86 80 l 1
 304 134 l 1
 429 1094 l 1
 202 1117 l 1
 222 1194 l 1
 295 1209 403 1221 548 1233 c 128
 693 1245 829 1250 955 1250 c 2
 1028 1250 l 1
 1252 1246 l 1
 1172 835 l 1
 1086 848 l 1
 1054 1111 l 1
 1026 1117 l 1
 925 1136 802 1145 657 1143 c 2
 624 1143 l 1
 569 680 l 1
 1024 712 l 1
 990 569 l 1
 557 578 l 1
 495 99 l 1
 712 108 l 1
 834 115 918 122 963 132 c 1
 986 169 1012 222 1043 292 c 128
 1074 362 1093 415 1103 451 c 1
 1190 440 l 1
 1190 434 l 2
 1190 345 1183 262 1169 182 c 128
 1155 102 1137 41 1113 0 c 1
1074 1661 m 1
 894 1351 l 1
 845 1382 l 1
 964 1701 l 1
 1074 1661 l 1
EndSplineSet
Colour: ffffff
EndChar

StartChar: Ecircumflex
Encoding: 138 202 137
Width: 1321
VWidth: 1655
GlyphClass: 2
Flags: HMW
LayerCount: 2
Fore
SplineSet
1113 0 m 1
 745 2 538 3 495 3 c 1
 63 -3 l 1
 86 80 l 1
 304 134 l 1
 429 1094 l 1
 202 1117 l 1
 222 1194 l 1
 295 1209 403 1221 548 1233 c 128
 693 1245 829 1250 955 1250 c 2
 1028 1250 l 1
 1252 1246 l 1
 1172 835 l 1
 1086 848 l 1
 1054 1111 l 1
 1026 1117 l 1
 925 1136 802 1145 657 1143 c 2
 624 1143 l 1
 569 680 l 1
 1024 712 l 1
 990 569 l 1
 557 578 l 1
 495 99 l 1
 712 108 l 1
 834 115 918 122 963 132 c 1
 986 169 1012 222 1043 292 c 128
 1074 362 1093 415 1103 451 c 1
 1190 440 l 1
 1190 434 l 2
 1190 345 1183 262 1169 182 c 128
 1155 102 1137 41 1113 0 c 1
875 1577 m 1
 1050 1396 l 1
 1001 1361 l 1
 841 1468 l 1
 831 1468 l 1
 694 1359 l 1
 657 1388 l 1
 821 1564 l 1
 875 1577 l 1
EndSplineSet
Colour: ffffff
EndChar

StartChar: Edieresis
Encoding: 139 203 138
Width: 1321
VWidth: 1655
GlyphClass: 2
Flags: HMW
LayerCount: 2
Fore
SplineSet
1113 0 m 1
 745 2 538 3 495 3 c 1
 63 -3 l 1
 86 80 l 1
 304 134 l 1
 429 1094 l 1
 202 1117 l 1
 222 1194 l 1
 295 1209 403 1221 548 1233 c 128
 693 1245 829 1250 955 1250 c 2
 1028 1250 l 1
 1252 1246 l 1
 1172 835 l 1
 1086 848 l 1
 1054 1111 l 1
 1026 1117 l 1
 925 1136 802 1145 657 1143 c 2
 624 1143 l 1
 569 680 l 1
 1024 712 l 1
 990 569 l 1
 557 578 l 1
 495 99 l 1
 712 108 l 1
 834 115 918 122 963 132 c 1
 986 169 1012 222 1043 292 c 128
 1074 362 1093 415 1103 451 c 1
 1190 440 l 1
 1190 434 l 2
 1190 345 1183 262 1169 182 c 128
 1155 102 1137 41 1113 0 c 1
1044 1519 m 128
 1062 1504 1070 1486 1070 1464 c 128
 1070 1442 1062 1424 1044 1408 c 128
 1026 1392 1007 1385 984 1385 c 128
 961 1385 942 1392 925 1408 c 128
 908 1424 901 1443 901 1465 c 128
 901 1488 908 1504 925 1519 c 128
 942 1534 961 1541 984 1541 c 128
 1007 1541 1026 1534 1044 1519 c 128
780 1519 m 128
 797 1504 805 1486 805 1464 c 128
 805 1442 797 1423 780 1408 c 128
 763 1393 745 1385 722 1385 c 128
 699 1385 679 1392 662 1408 c 128
 645 1424 638 1443 638 1465 c 128
 638 1488 645 1504 662 1519 c 128
 679 1534 699 1541 722 1541 c 128
 745 1541 763 1534 780 1519 c 128
EndSplineSet
Colour: ffffff
EndChar

StartChar: Igrave
Encoding: 140 204 139
Width: 909
VWidth: 1655
GlyphClass: 2
Flags: HMW
LayerCount: 2
Fore
SplineSet
689 0 m 1
 63 0 l 1
 81 78 l 1
 304 129 l 1
 427 1090 l 1
 201 1123 l 1
 220 1199 l 1
 368 1230 522 1246 684 1246 c 0
 725 1246 777 1244 840 1239 c 1
 821 1164 l 1
 622 1142 l 1
 495 106 l 1
 713 81 l 1
 689 0 l 1
365 1650 m 1
 479 1687 l 1
 608 1361 l 1
 552 1327 l 1
 365 1650 l 1
EndSplineSet
Colour: ffffff
EndChar

StartChar: Iacute
Encoding: 141 205 140
Width: 909
VWidth: 1655
GlyphClass: 2
Flags: HMW
LayerCount: 2
Fore
SplineSet
689 0 m 1
 63 0 l 1
 81 78 l 1
 304 129 l 1
 427 1090 l 1
 201 1123 l 1
 220 1199 l 1
 368 1230 522 1246 684 1246 c 0
 725 1246 777 1244 840 1239 c 1
 821 1164 l 1
 622 1142 l 1
 495 106 l 1
 713 81 l 1
 689 0 l 1
786 1657 m 1
 606 1345 l 1
 557 1377 l 1
 676 1696 l 1
 786 1657 l 1
EndSplineSet
Colour: ffffff
EndChar

StartChar: Icircumflex
Encoding: 142 206 141
Width: 909
VWidth: 1655
GlyphClass: 2
Flags: HMW
LayerCount: 2
Fore
SplineSet
689 0 m 1
 63 0 l 1
 81 78 l 1
 304 129 l 1
 427 1090 l 1
 201 1123 l 1
 220 1199 l 1
 368 1230 522 1246 684 1246 c 0
 725 1246 777 1244 840 1239 c 1
 821 1164 l 1
 622 1142 l 1
 495 106 l 1
 713 81 l 1
 689 0 l 1
587 1572 m 1
 762 1391 l 1
 713 1356 l 1
 554 1463 l 1
 544 1463 l 1
 406 1354 l 1
 368 1383 l 1
 534 1559 l 1
 587 1572 l 1
EndSplineSet
Colour: ffffff
EndChar

StartChar: Idieresis
Encoding: 143 207 142
Width: 910
VWidth: 1655
GlyphClass: 2
Flags: HMW
LayerCount: 2
Fore
SplineSet
689 0 m 1
 63 0 l 1
 81 78 l 1
 304 129 l 1
 427 1090 l 1
 201 1123 l 1
 220 1199 l 1
 368 1230 522 1246 684 1246 c 0
 727 1246 779 1244 841 1239 c 1
 821 1164 l 1
 622 1142 l 1
 495 106 l 1
 713 81 l 1
 689 0 l 1
756 1514 m 128
 773 1499 781 1481 781 1459 c 128
 781 1437 773 1419 756 1403 c 128
 739 1387 719 1380 696 1380 c 128
 673 1380 654 1387 637 1403 c 128
 620 1419 613 1438 613 1460 c 128
 613 1483 620 1499 637 1514 c 128
 654 1529 673 1536 696 1536 c 128
 719 1536 739 1529 756 1514 c 128
493 1514 m 128
 510 1499 518 1481 518 1459 c 128
 518 1437 510 1418 493 1403 c 128
 476 1388 456 1380 433 1380 c 128
 410 1380 391 1387 375 1403 c 128
 359 1419 351 1438 351 1460 c 128
 351 1483 359 1499 375 1514 c 128
 391 1529 410 1536 433 1536 c 128
 456 1536 476 1529 493 1514 c 128
EndSplineSet
Colour: ffffff
EndChar

StartChar: Eth
Encoding: 144 208 143
Width: 1507
VWidth: 1655
GlyphClass: 2
Flags: HMW
LayerCount: 2
Fore
SplineSet
543 551 m 1
 489 106 l 1
 499 106 l 1
 503 104 513 104 534 104 c 128
 555 104 593 107 650 113 c 0
 790 126 907 160 1001 218 c 128
 1095 276 1161 353 1198 450 c 1
 1223 515 1235 589 1235 672 c 0
 1235 755 1217 832 1182 904 c 1
 1157 957 1123 1001 1081 1037 c 128
 1039 1073 980 1104 904 1132 c 128
 828 1160 768 1174 723 1175 c 128
 678 1176 642 1175 616 1171 c 1
 554 649 l 1
 805 660 l 1
 777 561 l 1
 543 551 l 1
63 0 m 1
 83 77 l 1
 292 129 l 1
 348 541 l 1
 182 536 l 1
 208 634 l 1
 362 641 l 1
 419 1068 l 1
 202 1085 l 1
 223 1158 l 1
 388 1220 579 1251 796 1250 c 0
 836 1250 861 1250 872 1249 c 1
 1052 1240 1186 1200 1275 1127 c 1
 1315 1094 1348 1055 1374 1009 c 0
 1417 932 1439 846 1438 752 c 0
 1438 727 1437 704 1433 681 c 1
 1415 507 1339 358 1205 234 c 0
 1080 119 923 47 735 18 c 0
 656 6 542 0 391 0 c 2
 63 0 l 1
EndSplineSet
Colour: ffffff
EndChar

StartChar: Ntilde
Encoding: 145 209 144
Width: 1625
VWidth: 1655
GlyphClass: 2
Flags: HMW
LayerCount: 2
Fore
SplineSet
1066 -31 m 1
 511 999 l 1
 508 999 l 1
 489 486 l 2
 484 381 476 298 462 239 c 128
 448 180 421 124 382 70 c 1
 329 3 273 -31 213 -31 c 2
 206 -31 l 1
 147 -25 106 1 81 49 c 1
 72 69 67 87 63 103 c 1
 142 140 205 186 252 242 c 1
 346 359 396 567 404 864 c 1
 406 984 407 1053 408 1071 c 1
 182 1125 l 1
 204 1201 l 1
 297 1220 371 1230 428 1235 c 128
 485 1240 546 1243 613 1246 c 1
 701 1078 l 1
 1136 274 l 1
 1207 1106 l 1
 980 1122 l 1
 1000 1197 l 1
 1103 1220 1187 1233 1249 1238 c 128
 1311 1243 1366 1245 1413 1245 c 128
 1460 1245 1508 1243 1556 1239 c 1
 1535 1163 l 1
 1330 1109 l 1
 1226 2 l 1
 1066 -31 l 1
753 1419 m 2
 736 1419 717 1403 694 1372 c 1
 657 1380 l 1
 659 1387 661 1397 665 1411 c 128
 669 1425 677 1441 691 1462 c 0
 716 1501 744 1521 776 1522 c 2
 782 1522 l 1
 784 1520 785 1520 789 1520 c 2
 1007 1490 l 1
 1011 1490 l 2
 1025 1490 1043 1504 1066 1531 c 1
 1113 1529 l 1
 1082 1435 1039 1388 984 1388 c 2
 975 1388 l 1
 756 1419 l 1
 753 1419 l 2
EndSplineSet
Colour: ffffff
EndChar

StartChar: Ograve
Encoding: 146 210 145
Width: 1199
VWidth: 1655
GlyphClass: 2
Flags: HMW
LayerCount: 2
Fore
SplineSet
272 651 m 0
 272 495 302 368 362 269 c 128
 422 170 501 120 597 120 c 128
 693 120 771 167 832 260 c 128
 893 353 923 475 923 625 c 0
 923 720 910 805 883 881 c 128
 856 957 815 1018 762 1063 c 128
 709 1108 648 1130 581 1130 c 128
 514 1130 457 1108 410 1064 c 1
 317 975 271 838 272 651 c 0
1130 744 m 1
 1128 596 1093 457 1025 325 c 1
 948 179 849 78 731 21 c 0
 664 -12 590 -28 508 -28 c 128
 426 -28 350 -4 280 45 c 128
 210 94 157 158 120 238 c 128
 83 318 64 408 64 505 c 0
 64 642 90 769 142 886 c 128
 194 1003 268 1098 363 1169 c 128
 458 1240 567 1275 687 1275 c 0
 778 1275 858 1249 929 1196 c 128
 1000 1143 1052 1077 1083 998 c 128
 1114 919 1130 836 1130 748 c 2
 1130 744 l 1
470 1655 m 1
 583 1693 l 1
 713 1365 l 1
 656 1332 l 1
 470 1655 l 1
EndSplineSet
Colour: ffffff
EndChar

StartChar: Oacute
Encoding: 147 211 146
Width: 1199
VWidth: 1655
GlyphClass: 2
Flags: HMW
LayerCount: 2
Fore
SplineSet
272 651 m 0
 272 495 302 368 362 269 c 128
 422 170 501 120 597 120 c 128
 693 120 771 167 832 260 c 128
 893 353 923 475 923 625 c 0
 923 720 910 805 883 881 c 128
 856 957 815 1018 762 1063 c 128
 709 1108 648 1130 581 1130 c 128
 514 1130 457 1108 410 1064 c 1
 317 975 271 838 272 651 c 0
1130 744 m 1
 1128 596 1093 457 1025 325 c 1
 948 179 849 78 731 21 c 0
 664 -12 590 -28 508 -28 c 128
 426 -28 350 -4 280 45 c 128
 210 94 157 158 120 238 c 128
 83 318 64 408 64 505 c 0
 64 642 90 769 142 886 c 128
 194 1003 268 1098 363 1169 c 128
 458 1240 567 1275 687 1275 c 0
 778 1275 858 1249 929 1196 c 128
 1000 1143 1052 1077 1083 998 c 128
 1114 919 1130 836 1130 748 c 2
 1130 744 l 1
891 1661 m 1
 711 1351 l 1
 661 1382 l 1
 780 1701 l 1
 891 1661 l 1
EndSplineSet
Colour: ffffff
EndChar

StartChar: Ocircumflex
Encoding: 148 212 147
Width: 1199
VWidth: 1655
GlyphClass: 2
Flags: HMW
LayerCount: 2
Fore
SplineSet
272 651 m 0
 272 495 302 368 362 269 c 128
 422 170 501 120 597 120 c 128
 693 120 771 167 832 260 c 128
 893 353 923 475 923 625 c 0
 923 720 910 805 883 881 c 128
 856 957 815 1018 762 1063 c 128
 709 1108 648 1130 581 1130 c 128
 514 1130 457 1108 410 1064 c 1
 317 975 271 838 272 651 c 0
1130 744 m 1
 1128 596 1093 457 1025 325 c 1
 948 179 849 78 731 21 c 0
 664 -12 590 -28 508 -28 c 128
 426 -28 350 -4 280 45 c 128
 210 94 157 158 120 238 c 128
 83 318 64 408 64 505 c 0
 64 642 90 769 142 886 c 128
 194 1003 268 1098 363 1169 c 128
 458 1240 567 1275 687 1275 c 0
 778 1275 858 1249 929 1196 c 128
 1000 1143 1052 1077 1083 998 c 128
 1114 919 1130 836 1130 748 c 2
 1130 744 l 1
692 1577 m 1
 867 1396 l 1
 818 1361 l 1
 658 1468 l 1
 648 1468 l 1
 511 1359 l 1
 474 1388 l 1
 639 1564 l 1
 692 1577 l 1
EndSplineSet
Colour: ffffff
EndChar

StartChar: Otilde
Encoding: 149 213 148
Width: 1199
VWidth: 1655
GlyphClass: 2
Flags: HMW
LayerCount: 2
Fore
SplineSet
272 651 m 0
 272 495 302 368 362 269 c 128
 422 170 501 120 597 120 c 128
 693 120 771 167 832 260 c 128
 893 353 923 475 923 625 c 0
 923 720 910 805 883 881 c 128
 856 957 815 1018 762 1063 c 128
 709 1108 648 1130 581 1130 c 128
 514 1130 457 1108 410 1064 c 1
 317 975 271 838 272 651 c 0
1130 744 m 1
 1128 596 1093 457 1025 325 c 1
 948 179 849 78 731 21 c 0
 664 -12 590 -28 508 -28 c 128
 426 -28 350 -4 280 45 c 128
 210 94 157 158 120 238 c 128
 83 318 64 408 64 505 c 0
 64 642 90 769 142 886 c 128
 194 1003 268 1098 363 1169 c 128
 458 1240 567 1275 687 1275 c 0
 778 1275 858 1249 929 1196 c 128
 1000 1143 1052 1077 1083 998 c 128
 1114 919 1130 836 1130 748 c 2
 1130 744 l 1
539 1419 m 2
 522 1419 503 1403 480 1372 c 1
 442 1380 l 1
 444 1387 447 1397 451 1411 c 128
 455 1425 463 1441 477 1462 c 0
 502 1501 530 1521 563 1522 c 2
 570 1522 l 1
 572 1520 573 1520 575 1520 c 2
 794 1490 l 1
 797 1490 l 2
 811 1490 829 1504 852 1531 c 1
 899 1529 l 1
 868 1435 825 1388 772 1388 c 2
 760 1388 l 1
 542 1419 l 1
 539 1419 l 2
EndSplineSet
Colour: ffffff
EndChar

StartChar: Odieresis
Encoding: 150 214 149
Width: 1199
VWidth: 1655
GlyphClass: 2
Flags: HMW
LayerCount: 2
Fore
SplineSet
272 651 m 0
 272 495 302 368 362 269 c 128
 422 170 501 120 597 120 c 128
 693 120 771 167 832 260 c 128
 893 353 923 475 923 625 c 0
 923 720 910 805 883 881 c 128
 856 957 815 1018 762 1063 c 128
 709 1108 648 1130 581 1130 c 128
 514 1130 457 1108 410 1064 c 1
 317 975 271 838 272 651 c 0
1130 744 m 1
 1128 596 1093 457 1025 325 c 1
 948 179 849 78 731 21 c 0
 664 -12 590 -28 508 -28 c 128
 426 -28 350 -4 280 45 c 128
 210 94 157 158 120 238 c 128
 83 318 64 408 64 505 c 0
 64 642 90 769 142 886 c 128
 194 1003 268 1098 363 1169 c 128
 458 1240 567 1275 687 1275 c 0
 778 1275 858 1249 929 1196 c 128
 1000 1143 1052 1077 1083 998 c 128
 1114 919 1130 836 1130 748 c 2
 1130 744 l 1
861 1519 m 128
 878 1504 886 1486 886 1464 c 128
 886 1442 878 1424 861 1408 c 128
 844 1392 824 1385 801 1385 c 128
 778 1385 760 1392 743 1408 c 128
 726 1424 718 1443 718 1465 c 128
 718 1488 726 1504 743 1519 c 128
 760 1534 778 1541 801 1541 c 128
 824 1541 844 1534 861 1519 c 128
597 1519 m 128
 614 1504 622 1486 622 1464 c 128
 622 1442 614 1423 597 1408 c 128
 580 1393 561 1385 538 1385 c 128
 515 1385 496 1392 480 1408 c 128
 464 1424 456 1443 456 1465 c 128
 456 1488 464 1504 480 1519 c 128
 496 1534 515 1541 538 1541 c 128
 561 1541 580 1534 597 1519 c 128
EndSplineSet
Colour: ffffff
EndChar

StartChar: multiply
Encoding: 151 215 150
Width: 626
VWidth: 1655
GlyphClass: 2
Flags: HMW
LayerCount: 2
Fore
SplineSet
300 380 m 1
 118 223 l 1
 63 305 l 1
 234 453 l 1
 101 607 l 1
 190 672 l 1
 322 520 l 1
 504 678 l 1
 557 595 l 1
 385 448 l 1
 521 291 l 1
 432 227 l 1
 300 380 l 1
EndSplineSet
Colour: ffffff
EndChar

StartChar: Oslash
Encoding: 152 216 151
Width: 1200
VWidth: 1655
GlyphClass: 2
Flags: HMW
LayerCount: 2
Fore
SplineSet
410 205 m 5
 464 148 526 119 597 120 c 0
 694 120 772 167 833 260 c 128
 894 353 924 474 924 623 c 128
 924 772 892 895 828 992 c 5
 692.479 730.513 567.562 471.382 410 205 c 5
273 651 m 0
 273 496 303 370 362 272 c 1
 775 1053 l 1
 718 1104 654 1130 585 1130 c 128
 516 1130 458 1108 411 1064 c 1
 318 975 272 838 273 651 c 0
881 1296 m 1
 1023 1304 l 1
 956 1176 l 1
 1012 1128 1056 1066 1086 989 c 128
 1116 912 1131 832 1131 748 c 2
 1131 744 l 1
 1129 596 1094 457 1026 325 c 1
 949 179 850 78 732 21 c 0
 665 -12 597 -28 526 -28 c 128
 455 -28 391 -14 334 14 c 1
 284 -73 l 1
 141 -81 l 1
 233 84 l 1
 116.28 211.753 65 327 65 521 c 128
 65 648 91 769 143 886 c 128
 195 1003 269 1098 364 1169 c 128
 459 1240 568 1275 688 1275 c 0
 746 1275 800 1264 851 1243 c 1
 881 1296 l 1
EndSplineSet
Colour: ffffff
EndChar

StartChar: Ugrave
Encoding: 153 217 152
Width: 1545
VWidth: 1655
GlyphClass: 2
Flags: HMW
LayerCount: 2
Fore
SplineSet
285 1087 m 1
 63 1123 l 1
 85 1199 l 1
 195 1219 291 1231 373 1237 c 128
 455 1243 525 1245 585 1245 c 128
 645 1245 683 1245 701 1243 c 1
 683 1166 l 1
 484 1138 l 1
 436 745 l 2
 436 743 436 735 434 721 c 128
 432 707 430 682 425 647 c 128
 420 612 419 585 417 566 c 128
 415 547 415 521 415 488 c 128
 415 455 416 428 419 405 c 0
 422 382 426 357 433 330 c 0
 448 274 479 227 527 188 c 1
 577 145 636 123 705 123 c 0
 835 123 929 179 986 290 c 1
 1013 343 1033 425 1049 534 c 2
 1123 1111 l 1
 898 1120 l 1
 916 1197 l 1
 1057 1228 1203 1243 1356 1243 c 0
 1367 1243 1407 1242 1476 1239 c 1
 1456 1163 l 1
 1249 1096 l 1
 1164 517 l 2
 1135 325 1084 191 1009 114 c 0
 974 77 925 43 863 12 c 128
 801 -19 727 -34 642 -34 c 2
 634 -34 l 1
 506 -28 406 11 335 83 c 0
 254 164 214 277 213 425 c 0
 213 460 221 552 239 702 c 2
 285 1087 l 1
606 1655 m 1
 720 1693 l 1
 849 1365 l 1
 793 1332 l 1
 606 1655 l 1
EndSplineSet
Colour: ffffff
EndChar

StartChar: Uacute
Encoding: 154 218 153
Width: 1545
VWidth: 1655
GlyphClass: 2
Flags: HMW
LayerCount: 2
Fore
SplineSet
285 1087 m 1
 63 1123 l 1
 85 1199 l 1
 195 1219 291 1231 373 1237 c 128
 455 1243 525 1245 585 1245 c 128
 645 1245 683 1245 701 1243 c 1
 683 1166 l 1
 484 1138 l 1
 436 745 l 2
 436 743 436 735 434 721 c 128
 432 707 430 682 425 647 c 128
 420 612 419 585 417 566 c 128
 415 547 415 521 415 488 c 128
 415 455 416 428 419 405 c 0
 422 382 426 357 433 330 c 0
 448 274 479 227 527 188 c 1
 577 145 636 123 705 123 c 0
 835 123 929 179 986 290 c 1
 1013 343 1033 425 1049 534 c 2
 1123 1111 l 1
 898 1120 l 1
 916 1197 l 1
 1057 1228 1203 1243 1356 1243 c 0
 1367 1243 1407 1242 1476 1239 c 1
 1456 1163 l 1
 1249 1096 l 1
 1164 517 l 2
 1135 325 1084 191 1009 114 c 0
 974 77 925 43 863 12 c 128
 801 -19 727 -34 642 -34 c 2
 634 -34 l 1
 506 -28 406 11 335 83 c 0
 254 164 214 277 213 425 c 0
 213 460 221 552 239 702 c 2
 285 1087 l 1
1028 1661 m 1
 847 1351 l 1
 798 1382 l 1
 917 1701 l 1
 1028 1661 l 1
EndSplineSet
Colour: ffffff
EndChar

StartChar: Ucircumflex
Encoding: 155 219 154
Width: 1545
VWidth: 1655
GlyphClass: 2
Flags: HMW
LayerCount: 2
Fore
SplineSet
285 1087 m 1
 63 1123 l 1
 85 1199 l 1
 195 1219 291 1231 373 1237 c 128
 455 1243 525 1245 585 1245 c 128
 645 1245 683 1245 701 1243 c 1
 683 1166 l 1
 484 1138 l 1
 436 745 l 2
 436 743 436 735 434 721 c 128
 432 707 430 682 425 647 c 128
 420 612 419 585 417 566 c 128
 415 547 415 521 415 488 c 128
 415 455 416 428 419 405 c 0
 422 382 426 357 433 330 c 0
 448 274 479 227 527 188 c 1
 577 145 636 123 705 123 c 0
 835 123 929 179 986 290 c 1
 1013 343 1033 425 1049 534 c 2
 1123 1111 l 1
 898 1120 l 1
 916 1197 l 1
 1057 1228 1203 1243 1356 1243 c 0
 1367 1243 1407 1242 1476 1239 c 1
 1456 1163 l 1
 1249 1096 l 1
 1164 517 l 2
 1135 325 1084 191 1009 114 c 0
 974 77 925 43 863 12 c 128
 801 -19 727 -34 642 -34 c 2
 634 -34 l 1
 506 -28 406 11 335 83 c 0
 254 164 214 277 213 425 c 0
 213 460 221 552 239 702 c 2
 285 1087 l 1
828 1577 m 1
 1003 1396 l 1
 955 1361 l 1
 794 1468 l 1
 784 1468 l 1
 647 1359 l 1
 610 1388 l 1
 775 1564 l 1
 828 1577 l 1
EndSplineSet
Colour: ffffff
EndChar

StartChar: Udieresis
Encoding: 156 220 155
Width: 1545
VWidth: 1655
GlyphClass: 2
Flags: HMW
LayerCount: 2
Fore
SplineSet
285 1087 m 1
 63 1123 l 1
 85 1199 l 1
 195 1219 291 1231 373 1237 c 128
 455 1243 525 1245 585 1245 c 128
 645 1245 683 1245 701 1243 c 1
 683 1166 l 1
 484 1138 l 1
 436 745 l 2
 436 743 436 735 434 721 c 128
 432 707 430 682 425 647 c 128
 420 612 419 585 417 566 c 128
 415 547 415 521 415 488 c 128
 415 455 416 428 419 405 c 0
 422 382 426 357 433 330 c 0
 448 274 479 227 527 188 c 1
 577 145 636 123 705 123 c 0
 835 123 929 179 986 290 c 1
 1013 343 1033 425 1049 534 c 2
 1123 1111 l 1
 898 1120 l 1
 916 1197 l 1
 1057 1228 1203 1243 1356 1243 c 0
 1367 1243 1407 1242 1476 1239 c 1
 1456 1163 l 1
 1249 1096 l 1
 1164 517 l 2
 1135 325 1084 191 1009 114 c 0
 974 77 925 43 863 12 c 128
 801 -19 727 -34 642 -34 c 2
 634 -34 l 1
 506 -28 406 11 335 83 c 0
 254 164 214 277 213 425 c 0
 213 460 221 552 239 702 c 2
 285 1087 l 1
997 1519 m 128
 1014 1504 1022 1486 1022 1464 c 128
 1022 1442 1014 1424 997 1408 c 128
 980 1392 960 1385 937 1385 c 128
 914 1385 896 1392 879 1408 c 128
 862 1424 854 1443 854 1465 c 128
 854 1488 862 1504 879 1519 c 128
 896 1534 914 1541 937 1541 c 128
 960 1541 980 1534 997 1519 c 128
734 1519 m 128
 751 1504 759 1486 759 1464 c 128
 759 1442 751 1423 734 1408 c 128
 717 1393 697 1385 674 1385 c 128
 651 1385 632 1392 616 1408 c 128
 600 1424 592 1443 592 1465 c 128
 592 1488 600 1504 616 1519 c 128
 632 1534 651 1541 674 1541 c 128
 697 1541 717 1534 734 1519 c 128
EndSplineSet
Colour: ffffff
EndChar

StartChar: Yacute
Encoding: 157 221 156
Width: 1197
VWidth: 1655
GlyphClass: 2
Flags: HMW
LayerCount: 2
Fore
SplineSet
663 680 m 1
 634 583 612 476 598 359 c 2
 569 106 l 1
 782 81 l 1
 761 0 l 1
 135 0 l 1
 154 83 l 1
 375 129 l 1
 414 423 l 2
 421 470 424 519 424 569 c 0
 424 688 402 796 357 893 c 1
 296 1019 199 1092 63 1111 c 1
 73 1160 94 1197 128 1221 c 128
 162 1245 202 1259 246 1262 c 0
 248 1262 250 1262 252 1264 c 1
 257 1264 l 2
 364 1264 446 1204 501 1086 c 0
 548 985 571 857 569 702 c 2
 569 664 l 1
 585 664 l 1
 608 763 639 855 677 940 c 128
 715 1025 751 1088 784 1132 c 128
 817 1176 851 1206 888 1224 c 128
 925 1242 957 1250 986 1250 c 2
 996 1250 l 1
 1000 1248 1002 1248 1006 1249 c 0
 1043 1245 1073 1231 1095 1205 c 128
 1117 1179 1128 1150 1128 1120 c 0
 1128 1107 1127 1097 1124 1087 c 1
 1085 1085 1041 1078 991 1063 c 128
 941 1048 895 1026 854 995 c 1
 807 957 770 915 743 869 c 128
 716 823 690 760 663 680 c 1
863 1661 m 1
 683 1351 l 1
 633 1382 l 1
 753 1701 l 1
 863 1661 l 1
EndSplineSet
Colour: ffffff
EndChar

StartChar: Thorn
Encoding: 158 222 157
Width: 1258
VWidth: 1655
GlyphClass: 2
Flags: HMW
LayerCount: 2
Fore
SplineSet
693 0 m 1
 63 0 l 1
 80 78 l 1
 302 130 l 1
 428 1099 l 1
 202 1131 l 1
 219 1205 l 1
 404 1239 559 1256 684 1255 c 0
 729 1255 783 1253 846 1249 c 1
 827 1171 l 1
 623 1150 l 1
 611 1039 l 1
 674 1045 722 1047 755 1047 c 0
 896 1047 1004 1017 1078 957 c 128
 1152 897 1189 809 1189 696 c 0
 1189 581 1137 480 1032 393 c 1
 924 304 771 250 573 232 c 1
 566 315 l 1
 725 333 841 379 914 453 c 0
 968 508 996 579 995 665 c 128
 994 751 963 824 903 885 c 128
 843 946 762 977 660 977 c 0
 640 977 622 975 602 971 c 1
 500 108 l 1
 718 80 l 1
 693 0 l 1
EndSplineSet
Colour: ffffff
EndChar

StartChar: germandbls
Encoding: 159 223 158
Width: 1371
VWidth: 1655
GlyphClass: 2
Flags: HMW
LayerCount: 2
Fore
SplineSet
811 233 m 1
 848 125 902 66 974 57 c 1
 982 57 l 1
 984 55 989 55 998 56 c 128
 1007 57 1022 60 1044 70 c 128
 1066 80 1083 92 1095 106 c 1
 1106 123 1111 140 1111 158 c 2
 1111 165 l 1
 1109 167 1109 173 1107 185 c 0
 1085.82 338.532 808 407.263 808 575 c 128
 808 772.84 1086 856.53 1086 1058 c 0
 1086 1159.93 1031.28 1224.91 960 1222 c 1
 842.503 1222 742.35 1169.15 702 1074 c 0
 677 1023 662 949 655 851 c 1
 650 806 l 1
 629 468 615 251 607 155 c 128
 599 59 587 -21 570 -84 c 128
 553 -147 526 -200 491 -242 c 0
 444 -301 385 -342 314 -365 c 1
 277 -375 242 -378 211 -379 c 128
 180 -380 151 -373 126 -359 c 0
 84 -334 63 -297 63 -248 c 0
 63 -201 81 -163 118 -132 c 1
 182 -196 248 -228 315 -228 c 0
 337 -228 355 -224 371 -217 c 128
 387 -210 396 -200 402 -185 c 128
 447.356 -71.6113 430.426 -3.03027 453 313 c 2
 486 775 l 1
 375 766 l 1
 390 871 l 1
 495 855 l 1
 501 882 506 907 512 931 c 0
 533 1007 564 1070 606 1119 c 128
 701.212 1242.64 858.635 1299 1059 1299 c 128
 1145.52 1299 1251 1236 1251 1110 c 0
 1251 879.253 932 778 932 656 c 128
 932 629 941 601 961 573 c 1
 990 538 1015 512 1037 494 c 128
 1059 476 1083 456 1109 435 c 128
 1135 414 1152 399 1163 389 c 0
 1194 362 1216 335 1231 306 c 128
 1246 277 1253 252 1255 230 c 1
 1255 218 l 2
 1255 179 1240 139 1209 98 c 1
 1177 59 1134 27 1080 2 c 128
 1026 -23 974 -35 925 -35 c 0
 830 -36 764 -13 725 34 c 0
 706 56 697 83 697 116 c 128
 697 149 714 179 749 207 c 1
 768 221 788 229 811 233 c 1
EndSplineSet
Colour: ffffff
EndChar

StartChar: agrave
Encoding: 160 224 159
Width: 959
VWidth: 1655
GlyphClass: 2
Flags: HMW
LayerCount: 2
Fore
SplineSet
642 918 m 1
 761 881 l 1
 689 491 l 1
 659 253 l 1
 654 214 652 186 652 168 c 0
 652 133 667 116 696 116 c 0
 714 116 738 133 768 166 c 128
 798 199 826 236 849 275 c 1
 890 240 l 1
 853 147 813 79 769 35 c 128
 725 -9 668 -31 598 -31 c 0
 565 -31 539 -18 521 6 c 128
 503 30 495 66 495 113 c 0
 495 161 507 219 531 287 c 1
 518 287 l 1
 483 203 437 131 380 70 c 128
 323 9 267 -21 212 -21 c 128
 157 -21 118 0 96 41 c 128
 74 82 63 143 63 225 c 128
 63 307 82 401 120 505 c 128
 158 609 209 701 273 779 c 128
 337 857 401 895 464 895 c 128
 527 895 575 870 608 820 c 1
 617 820 l 1
 631 909 l 1
 642 918 l 1
269 595 m 0
 235 490 218 398 218 317 c 128
 218 236 222 186 230 165 c 128
 238 144 255 134 282 134 c 0
 330 134 385 185 448 286 c 1
 511 387 555 512 582 660 c 1
 572 688 553 713 523 736 c 128
 493 759 463 770 431 770 c 128
 399 770 369 754 339 722 c 128
 309 690 286 648 269 595 c 0
341 1303 m 1
 453 1339 l 1
 582 1013 l 1
 526 978 l 1
 341 1303 l 1
EndSplineSet
Colour: ffffff
EndChar

StartChar: aacute
Encoding: 161 225 160
Width: 959
VWidth: 1655
GlyphClass: 2
Flags: HMW
LayerCount: 2
Fore
SplineSet
642 918 m 1
 761 881 l 1
 689 491 l 1
 659 253 l 1
 654 214 652 186 652 168 c 0
 652 133 667 116 696 116 c 0
 714 116 738 133 768 166 c 128
 798 199 826 236 849 275 c 1
 890 240 l 1
 853 147 813 79 769 35 c 128
 725 -9 668 -31 598 -31 c 0
 565 -31 539 -18 521 6 c 128
 503 30 495 66 495 113 c 0
 495 161 507 219 531 287 c 1
 518 287 l 1
 483 203 437 131 380 70 c 128
 323 9 267 -21 212 -21 c 128
 157 -21 118 0 96 41 c 128
 74 82 63 143 63 225 c 128
 63 307 82 401 120 505 c 128
 158 609 209 701 273 779 c 128
 337 857 401 895 464 895 c 128
 527 895 575 870 608 820 c 1
 617 820 l 1
 631 909 l 1
 642 918 l 1
269 595 m 0
 235 490 218 398 218 317 c 128
 218 236 222 186 230 165 c 128
 238 144 255 134 282 134 c 0
 330 134 385 185 448 286 c 1
 511 387 555 512 582 660 c 1
 572 688 553 713 523 736 c 128
 493 759 463 770 431 770 c 128
 399 770 369 754 339 722 c 128
 309 690 286 648 269 595 c 0
761 1309 m 1
 580 998 l 1
 531 1029 l 1
 650 1347 l 1
 761 1309 l 1
EndSplineSet
Colour: ffffff
EndChar

StartChar: acircumflex
Encoding: 162 226 161
Width: 959
VWidth: 1655
GlyphClass: 2
Flags: HMW
LayerCount: 2
Fore
SplineSet
642 918 m 1
 761 881 l 1
 689 491 l 1
 659 253 l 1
 654 214 652 186 652 168 c 0
 652 133 667 116 696 116 c 0
 714 116 738 133 768 166 c 128
 798 199 826 236 849 275 c 1
 890 240 l 1
 853 147 813 79 769 35 c 128
 725 -9 668 -31 598 -31 c 0
 565 -31 539 -18 521 6 c 128
 503 30 495 66 495 113 c 0
 495 161 507 219 531 287 c 1
 518 287 l 1
 483 203 437 131 380 70 c 128
 323 9 267 -21 212 -21 c 128
 157 -21 118 0 96 41 c 128
 74 82 63 143 63 225 c 128
 63 307 82 401 120 505 c 128
 158 609 209 701 273 779 c 128
 337 857 401 895 464 895 c 128
 527 895 575 870 608 820 c 1
 617 820 l 1
 631 909 l 1
 642 918 l 1
269 595 m 0
 235 490 218 398 218 317 c 128
 218 236 222 186 230 165 c 128
 238 144 255 134 282 134 c 0
 330 134 385 185 448 286 c 1
 511 387 555 512 582 660 c 1
 572 688 553 713 523 736 c 128
 493 759 463 770 431 770 c 128
 399 770 369 754 339 722 c 128
 309 690 286 648 269 595 c 0
562 1224 m 1
 736 1043 l 1
 687 1008 l 1
 527 1115 l 1
 518 1115 l 1
 380 1006 l 1
 343 1036 l 1
 508 1212 l 1
 562 1224 l 1
EndSplineSet
Colour: ffffff
EndChar

StartChar: atilde
Encoding: 163 227 162
Width: 959
VWidth: 1655
GlyphClass: 2
Flags: HMW
LayerCount: 2
Fore
SplineSet
642 918 m 1
 761 881 l 1
 689 491 l 1
 659 253 l 1
 654 214 652 186 652 168 c 0
 652 133 667 116 696 116 c 0
 714 116 738 133 768 166 c 128
 798 199 826 236 849 275 c 1
 890 240 l 1
 853 147 813 79 769 35 c 128
 725 -9 668 -31 598 -31 c 0
 565 -31 539 -18 521 6 c 128
 503 30 495 66 495 113 c 0
 495 161 507 219 531 287 c 1
 518 287 l 1
 483 203 437 131 380 70 c 128
 323 9 267 -21 212 -21 c 128
 157 -21 118 0 96 41 c 128
 74 82 63 143 63 225 c 128
 63 307 82 401 120 505 c 128
 158 609 209 701 273 779 c 128
 337 857 401 895 464 895 c 128
 527 895 575 870 608 820 c 1
 617 820 l 1
 631 909 l 1
 642 918 l 1
269 595 m 0
 235 490 218 398 218 317 c 128
 218 236 222 186 230 165 c 128
 238 144 255 134 282 134 c 0
 330 134 385 185 448 286 c 1
 511 387 555 512 582 660 c 1
 572 688 553 713 523 736 c 128
 493 759 463 770 431 770 c 128
 399 770 369 754 339 722 c 128
 309 690 286 648 269 595 c 0
408 1066 m 2
 391 1066 372 1050 350 1019 c 1
 313 1027 l 1
 315 1034 318 1044 322 1058 c 128
 326 1072 333 1089 346 1110 c 0
 371 1149 399 1169 432 1168 c 2
 438 1168 l 1
 440 1166 442 1166 445 1166 c 2
 663 1137 l 1
 666 1137 l 2
 680 1137 699 1151 722 1178 c 1
 769 1176 l 1
 738 1082 695 1035 640 1036 c 2
 629 1036 l 1
 410 1066 l 1
 408 1066 l 2
EndSplineSet
Colour: ffffff
EndChar

StartChar: adieresis
Encoding: 164 228 163
Width: 959
VWidth: 1655
GlyphClass: 2
Flags: HMW
LayerCount: 2
Fore
SplineSet
642 918 m 1
 761 881 l 1
 689 491 l 1
 659 253 l 1
 654 214 652 186 652 168 c 0
 652 133 667 116 696 116 c 0
 714 116 738 133 768 166 c 128
 798 199 826 236 849 275 c 1
 890 240 l 1
 853 147 813 79 769 35 c 128
 725 -9 668 -31 598 -31 c 0
 565 -31 539 -18 521 6 c 128
 503 30 495 66 495 113 c 0
 495 161 507 219 531 287 c 1
 518 287 l 1
 483 203 437 131 380 70 c 128
 323 9 267 -21 212 -21 c 128
 157 -21 118 0 96 41 c 128
 74 82 63 143 63 225 c 128
 63 307 82 401 120 505 c 128
 158 609 209 701 273 779 c 128
 337 857 401 895 464 895 c 128
 527 895 575 870 608 820 c 1
 617 820 l 1
 631 909 l 1
 642 918 l 1
269 595 m 0
 235 490 218 398 218 317 c 128
 218 236 222 186 230 165 c 128
 238 144 255 134 282 134 c 0
 330 134 385 185 448 286 c 1
 511 387 555 512 582 660 c 1
 572 688 553 713 523 736 c 128
 493 759 463 770 431 770 c 128
 399 770 369 754 339 722 c 128
 309 690 286 648 269 595 c 0
731 1165 m 128
 748 1150 756 1132 756 1110 c 128
 756 1088 748 1071 731 1055 c 128
 714 1039 693 1032 670 1032 c 128
 647 1032 629 1039 612 1055 c 128
 595 1071 587 1089 587 1111 c 128
 587 1133 595 1151 612 1166 c 128
 629 1181 647 1187 670 1187 c 128
 693 1187 714 1180 731 1165 c 128
467 1165 m 128
 484 1150 492 1132 492 1110 c 128
 492 1088 484 1070 467 1055 c 128
 450 1040 430 1032 407 1032 c 128
 384 1032 365 1039 349 1055 c 128
 333 1071 325 1089 325 1111 c 128
 325 1133 333 1151 349 1166 c 128
 365 1181 384 1187 407 1187 c 128
 430 1187 450 1180 467 1165 c 128
EndSplineSet
Colour: ffffff
EndChar

StartChar: aring
Encoding: 165 229 164
Width: 959
VWidth: 1655
GlyphClass: 2
Flags: HMW
LayerCount: 2
Fore
SplineSet
642 918 m 1
 761 881 l 1
 689 491 l 1
 659 253 l 1
 654 214 652 186 652 168 c 0
 652 133 667 116 696 116 c 0
 714 116 738 133 768 166 c 128
 798 199 826 236 849 275 c 1
 890 240 l 1
 853 147 813 79 769 35 c 128
 725 -9 668 -31 598 -31 c 0
 565 -31 539 -18 521 6 c 128
 503 30 495 66 495 113 c 0
 495 161 507 219 531 287 c 1
 518 287 l 1
 483 203 437 131 380 70 c 128
 323 9 267 -21 212 -21 c 128
 157 -21 118 0 96 41 c 128
 74 82 63 143 63 225 c 128
 63 307 82 401 120 505 c 128
 158 609 209 701 273 779 c 128
 337 857 401 895 464 895 c 128
 527 895 575 870 608 820 c 1
 617 820 l 1
 631 909 l 1
 642 918 l 1
269 595 m 0
 235 490 218 398 218 317 c 128
 218 236 222 186 230 165 c 128
 238 144 255 134 282 134 c 0
 330 134 385 185 448 286 c 1
 511 387 555 512 582 660 c 1
 572 688 553 713 523 736 c 128
 493 759 463 770 431 770 c 128
 399 770 369 754 339 722 c 128
 309 690 286 648 269 595 c 0
475 1262 m 128
 460 1241 452 1215 452 1182 c 128
 452 1149 461 1120 478 1095 c 128
 495 1070 517 1058 546 1058 c 0
 602 1058 630 1095 629 1170 c 0
 629 1205 621 1234 603 1258 c 128
 585 1282 564 1294 537 1294 c 128
 510 1294 490 1283 475 1262 c 128
657 1296 m 128
 685 1267 699 1229 699 1182 c 128
 699 1135 683 1096 652 1062 c 128
 621 1028 581 1011 535 1011 c 128
 489 1011 452 1026 424 1056 c 128
 396 1086 382 1124 382 1171 c 128
 382 1218 398 1258 430 1291 c 128
 462 1324 501 1340 547 1340 c 128
 593 1340 629 1325 657 1296 c 128
EndSplineSet
Colour: ffffff
EndChar

StartChar: ae
Encoding: 166 230 165
Width: 1143
VWidth: 1655
GlyphClass: 2
Flags: HMW
LayerCount: 2
Fore
SplineSet
908 897 m 0
 960 897 1001 881 1030 850 c 128
 1059 819 1074 775 1074 718 c 128
 1074 661 1051 604 1005 544 c 128
 959 484 904 434 838 393 c 128
 772 352 709 323 648 305 c 1
 649 235 662 184 688 152 c 128
 714 120 750 104 797 104 c 0
 884 104 957 151 1017 246 c 1
 1053 214 l 1
 1031 148 991 91 932 42 c 128
 873 -7 807 -31 736 -31 c 128
 665 -31 608 -8 565 39 c 128
 522 86 498 151 492 235 c 1
 450 159 404 97 355 50 c 128
 306 3 256 -21 207 -21 c 0
 111 -21 63 59 63 218 c 0
 63 305 82 400 120 505 c 128
 158 610 211 701 275 779 c 128
 339 857 405 895 474 895 c 0
 509 895 542 879 571 847 c 128
 600 815 620 775 632 726 c 1
 715 840 807 897 908 897 c 0
281 628 m 128
 263 587 248 537 236 479 c 128
 224 421 218 360 218 294 c 128
 218 228 222 186 230 165 c 128
 238 144 255 134 281 134 c 0
 329 134 385 185 448 286 c 1
 511 387 555 512 582 660 c 1
 572 688 553 713 523 736 c 128
 493 759 465 770 436 770 c 128
 407 770 377 757 349 730 c 128
 321 703 299 669 281 628 c 128
849 512 m 128
 898 571 922 632 922 696 c 128
 922 760 896 791 843 791 c 0
 733 791 668 653 650 377 c 1
 733 408 800 453 849 512 c 128
EndSplineSet
Colour: ffffff
EndChar

StartChar: ccedilla
Encoding: 167 231 166
Width: 720
VWidth: 1655
GlyphClass: 2
Flags: HMW
LayerCount: 2
Fore
SplineSet
346 -75 m 1
 405 -126 434 -174 433 -221 c 0
 433 -290 368 -343 237 -381 c 1
 218 -323 l 1
 274 -303 302 -276 302 -242 c 0
 302 -215 278 -179 230 -134 c 1
 304 -31 l 1
 161 0 64 68.4365 64 322 c 128
 64 410.227 76 485.587 100 549 c 128
 124 618 156 677 194 727 c 128
 232 777 276 817 325 847 c 128
 374 877 426 893 478 893 c 128
 530 893 572 878 604 847 c 128
 636 816 651 778 651 732 c 128
 651 686 640 653 618 632 c 128
 596 611 561 598 512 592 c 1
 512 602 509 625 502 663 c 0
 489 732 469 774 442 790 c 0
 432 795 422 797 410 796 c 0
 350 796 304 760 273 687 c 128
 242 614 226 521 226 411 c 128
 226 301 239 221 267 172 c 128
 295 123 342 98 409 98 c 2
 411 98 l 2
 443 98 474 110 506 133 c 128
 538 156 565 188 586 227 c 1
 622 195 l 1
 609 146 579 101 533 59 c 128
 487 17 436 -11 379 -24 c 1
 346 -75 l 1
EndSplineSet
Colour: ffffff
EndChar

StartChar: egrave
Encoding: 168 232 167
Width: 716
VWidth: 1655
GlyphClass: 2
Flags: HMW
LayerCount: 2
Fore
SplineSet
603 849 m 128
 633 817 647 777 647 726 c 0
 647 630 598 547 499 477 c 1
 416 418 323 373 222 341 c 1
 226 183 280 104 385 104 c 0
 423 104 460 118 496 144 c 128
 532 170 563 204 591 246 c 1
 628 214 l 1
 605 147 563 89 505 41 c 128
 447 -7 380 -31 304 -31 c 128
 228 -31 170 -2 127 56 c 128
 84 114 63 193 63 293 c 128
 63 393 82 488 121 580 c 128
 160 672 212 749 277 808 c 128
 342 867 409 897 480 897 c 0
 532 897 573 881 603 849 c 128
495 698 m 0
 495 760 468 791 415 790 c 0
 303 790 239 664 223 414 c 1
 404 481 495 576 495 698 c 0
296 1315 m 1
 409 1351 l 1
 539 1024 l 1
 482 990 l 1
 296 1315 l 1
EndSplineSet
Colour: ffffff
EndChar

StartChar: eacute
Encoding: 169 233 168
Width: 786
VWidth: 1655
GlyphClass: 2
Flags: HMW
LayerCount: 2
Fore
SplineSet
603 849 m 128
 633 817 647 777 647 726 c 0
 647 630 598 547 499 477 c 1
 416 418 323 373 222 341 c 1
 226 183 280 104 385 104 c 0
 423 104 460 118 496 144 c 128
 532 170 563 204 591 246 c 1
 628 214 l 1
 605 147 563 89 505 41 c 128
 447 -7 380 -31 304 -31 c 128
 228 -31 170 -2 127 56 c 128
 84 114 63 193 63 293 c 128
 63 393 82 488 121 580 c 128
 160 672 212 749 277 808 c 128
 342 867 409 897 480 897 c 0
 532 897 573 881 603 849 c 128
495 698 m 0
 495 760 468 791 415 790 c 0
 303 790 239 664 223 414 c 1
 404 481 495 576 495 698 c 0
617 1320 m 5
 438 1010 l 5
 387 1041 l 5
 506 1359 l 5
 617 1320 l 5
EndSplineSet
Colour: ffffff
EndChar

StartChar: ecircumflex
Encoding: 170 234 169
Width: 761
VWidth: 1655
GlyphClass: 2
Flags: HMW
LayerCount: 2
Fore
SplineSet
603 849 m 128
 633 817 647 777 647 726 c 0
 647 630 598 547 499 477 c 1
 416 418 323 373 222 341 c 1
 226 183 280 104 385 104 c 0
 423 104 460 118 496 144 c 128
 532 170 563 204 591 246 c 1
 628 214 l 1
 605 147 563 89 505 41 c 128
 447 -7 380 -31 304 -31 c 128
 228 -31 170 -2 127 56 c 128
 84 114 63 193 63 293 c 128
 63 393 82 488 121 580 c 128
 160 672 212 749 277 808 c 128
 342 867 409 897 480 897 c 0
 532 897 573 881 603 849 c 128
495 698 m 0
 495 760 468 791 415 790 c 0
 303 790 239 664 223 414 c 1
 404 481 495 576 495 698 c 0
478 1236 m 1
 652 1055 l 1
 604 1019 l 1
 444 1127 l 1
 434 1127 l 1
 297 1018 l 1
 259 1047 l 1
 424 1224 l 1
 478 1236 l 1
EndSplineSet
Colour: ffffff
EndChar

StartChar: edieresis
Encoding: 171 235 170
Width: 781
VWidth: 1655
GlyphClass: 2
Flags: HMW
LayerCount: 2
Fore
SplineSet
603 849 m 128
 633 817 647 777 647 726 c 0
 647 630 598 547 499 477 c 1
 416 418 323 373 222 341 c 1
 226 183 280 104 385 104 c 0
 423 104 460 118 496 144 c 128
 532 170 563 204 591 246 c 1
 628 214 l 1
 605 147 563 89 505 41 c 128
 447 -7 380 -31 304 -31 c 128
 228 -31 170 -2 127 56 c 128
 84 114 63 193 63 293 c 128
 63 393 82 488 121 580 c 128
 160 672 212 749 277 808 c 128
 342 867 409 897 480 897 c 0
 532 897 573 881 603 849 c 128
495 698 m 0
 495 760 468 791 415 790 c 0
 303 790 239 664 223 414 c 1
 404 481 495 576 495 698 c 0
686 1177 m 128
 703 1162 712 1144 712 1122 c 128
 712 1100 703 1082 686 1066 c 128
 669 1050 650 1043 627 1043 c 128
 604 1043 584 1050 568 1066 c 128
 552 1082 544 1100 544 1122 c 128
 544 1145 552 1163 568 1178 c 128
 584 1193 604 1199 627 1199 c 128
 650 1199 669 1192 686 1177 c 128
423 1177 m 128
 440 1162 448 1143 448 1121 c 128
 448 1099 440 1081 423 1066 c 128
 406 1051 388 1043 365 1043 c 128
 342 1043 322 1050 306 1066 c 128
 290 1082 282 1100 282 1122 c 128
 282 1145 290 1163 306 1178 c 128
 322 1193 342 1199 365 1199 c 128
 388 1199 406 1192 423 1177 c 128
EndSplineSet
Colour: ffffff
EndChar

StartChar: igrave
Encoding: 172 236 171
Width: 703
VWidth: 1655
GlyphClass: 2
Flags: HMW
LayerCount: 2
Fore
SplineSet
403 254 m 1
 399 225 398 201 398 181 c 0
 398 142 409 123 432 123 c 128
 455 123 482 134 514 157 c 128
 546 180 572 209 592 246 c 1
 634 217 l 1
 574 57 478 -23 346 -23 c 0
 305 -23 275 -10 258 15 c 128
 241 40 233 71 233 108 c 128
 233 145 237 208 246 296 c 1
 282 611 l 2
 284 634 285 656 285 676 c 0
 285 728 273 754 249 754 c 128
 225 754 180 702 111 599 c 1
 63 631 l 1
 92 707 135 772 191 826 c 128
 247 880 302 906 357 906 c 0
 419 906 450 859 448 766 c 0
 448 758 443 692 431 569 c 1
 403 254 l 1
148 1331 m 1
 260 1367 l 1
 389 1041 l 1
 334 1006 l 1
 148 1331 l 1
EndSplineSet
Colour: ffffff
EndChar

StartChar: iacute
Encoding: 173 237 172
Width: 703
VWidth: 1655
GlyphClass: 2
Flags: HMW
LayerCount: 2
Fore
SplineSet
403 254 m 1
 399 225 398 201 398 181 c 0
 398 142 409 123 432 123 c 128
 455 123 482 134 514 157 c 128
 546 180 572 209 592 246 c 1
 634 217 l 1
 574 57 478 -23 346 -23 c 0
 305 -23 275 -10 258 15 c 128
 241 40 233 71 233 108 c 128
 233 145 237 208 246 296 c 1
 282 611 l 2
 284 634 285 656 285 676 c 0
 285 728 273 754 249 754 c 128
 225 754 180 702 111 599 c 1
 63 631 l 1
 92 707 135 772 191 826 c 128
 247 880 302 906 357 906 c 0
 419 906 450 859 448 766 c 0
 448 758 443 692 431 569 c 1
 403 254 l 1
569 1336 m 1
 387 1026 l 1
 339 1057 l 1
 457 1375 l 1
 569 1336 l 1
EndSplineSet
Colour: ffffff
EndChar

StartChar: icircumflex
Encoding: 174 238 173
Width: 703
VWidth: 1655
GlyphClass: 2
Flags: HMW
LayerCount: 2
Fore
SplineSet
403 254 m 1
 399 225 398 201 398 181 c 0
 398 142 409 123 432 123 c 128
 455 123 482 134 514 157 c 128
 546 180 572 209 592 246 c 1
 634 217 l 1
 574 57 478 -23 346 -23 c 0
 305 -23 275 -10 258 15 c 128
 241 40 233 71 233 108 c 128
 233 145 237 208 246 296 c 1
 282 611 l 2
 284 634 285 656 285 676 c 0
 285 728 273 754 249 754 c 128
 225 754 180 702 111 599 c 1
 63 631 l 1
 92 707 135 772 191 826 c 128
 247 880 302 906 357 906 c 0
 419 906 450 859 448 766 c 0
 448 758 443 692 431 569 c 1
 403 254 l 1
368 1252 m 1
 544 1071 l 1
 495 1036 l 1
 335 1142 l 1
 325 1142 l 1
 187 1034 l 1
 151 1064 l 1
 316 1239 l 1
 368 1252 l 1
EndSplineSet
Colour: ffffff
EndChar

StartChar: idieresis
Encoding: 175 239 174
Width: 703
VWidth: 1655
GlyphClass: 2
Flags: HMW
LayerCount: 2
Fore
SplineSet
403 254 m 1
 399 225 398 201 398 181 c 0
 398 142 409 123 432 123 c 128
 455 123 482 134 514 157 c 128
 546 180 572 209 592 246 c 1
 634 217 l 1
 574 57 478 -23 346 -23 c 0
 305 -23 275 -10 258 15 c 128
 241 40 233 71 233 108 c 128
 233 145 237 208 246 296 c 1
 282 611 l 2
 284 634 285 656 285 676 c 0
 285 728 273 754 249 754 c 128
 225 754 180 702 111 599 c 1
 63 631 l 1
 92 707 135 772 191 826 c 128
 247 880 302 906 357 906 c 0
 419 906 450 859 448 766 c 0
 448 758 443 692 431 569 c 1
 403 254 l 1
538 1193 m 128
 556 1178 564 1160 564 1138 c 128
 564 1116 556 1099 538 1083 c 128
 520 1067 501 1060 478 1060 c 128
 455 1060 435 1067 418 1083 c 128
 401 1099 394 1117 394 1139 c 128
 394 1161 401 1179 418 1194 c 128
 435 1209 455 1215 478 1215 c 128
 501 1215 520 1208 538 1193 c 128
274 1193 m 128
 291 1178 299 1160 299 1138 c 128
 299 1116 291 1098 274 1083 c 128
 257 1068 238 1060 215 1060 c 128
 192 1060 172 1067 156 1083 c 128
 140 1099 133 1117 133 1139 c 128
 133 1161 140 1179 156 1194 c 128
 172 1209 192 1215 215 1215 c 128
 238 1215 257 1208 274 1193 c 128
EndSplineSet
Colour: ffffff
EndChar

StartChar: eth
Encoding: 176 240 175
Width: 882
VWidth: 1655
GlyphClass: 2
Flags: HMW
LayerCount: 2
Fore
SplineSet
690 1085 m 1
 771 951 811 792 812 608 c 0
 812 389 759 221 653 105 c 0
 573 18 481 -26 377 -26 c 0
 308 -26 250 -9 203 24 c 0
 110 89 64 198 63 353 c 0
 63 382 64 411 68 442 c 1
 85 577 133 683 214 762 c 128
 295 841 389 881 497 881 c 0
 528 881 557 873 583 858 c 128
 609 843 625 821 632 791 c 1
 638 791 l 1
 626 853 599 939 556 1048 c 1
 349 1008 l 1
 368 1085 l 1
 528 1117 l 1
 505 1164 469 1218 420 1277 c 1
 528 1277 l 1
 579 1234 620 1190 652 1145 c 1
 793 1176 l 1
 774 1101 l 1
 690 1085 l 1
469 790 m 2
 403 790 352 766 315 717 c 128
 278 668 253 592 239 489 c 0
 234 457 232 420 234 377 c 0
 234 280 249 205 280 151 c 128
 311 97 357 70 418 70 c 0
 536 70 609 185 637 416 c 0
 641 445 642 474 642 502 c 0
 642 587 627 656 596 708 c 128
 565 760 525 787 476 790 c 1
 469 790 l 2
EndSplineSet
Colour: ffffff
EndChar

StartChar: ntilde
Encoding: 177 241 176
Width: 1118
VWidth: 1655
GlyphClass: 2
Flags: HMW
LayerCount: 2
Fore
SplineSet
404 344 m 1
 400 207 387 112 361 56 c 128
 335 0 293 -28 234 -28 c 0
 232 -28 218 -27 192 -24 c 1
 178 3 l 1
 260 388 l 1
 282 620 l 2
 284 648 285 673 285 696 c 0
 285 745 273 769 248 768 c 0
 235 768 215 751 186 718 c 128
 157 685 132 650 111 613 c 1
 63 651 l 1
 90 724 132 786 188 840 c 128
 244 894 302 921 363 921 c 0
 415 921 441 887 440 818 c 0
 440 788 436 753 427 713 c 0
 417 672 412 644 409 627 c 0
 401 592 398 574 399 573 c 1
 410 567 l 1
 440 658 485 737 544 801 c 128
 603 865 659 897 712 897 c 128
 765 897 805 883 831 856 c 128
 857 829 870 794 870 750 c 128
 870 706 867 662 861 615 c 1
 817 253 l 2
 812 218 810 195 810 181 c 0
 810 141 822 121 845 121 c 128
 868 121 896 133 928 156 c 128
 960 179 986 209 1006 246 c 1
 1049 216 l 1
 989 56 888 -24 745 -24 c 0
 680 -24 647 18 647 101 c 0
 647 112 654 177 668 295 c 2
 691 488 l 2
 701 571 705 625 706 649 c 0
 706 698 687 722 650 721 c 0
 545 721 463 595 404 344 c 1
877 1203 m 1
 846 1109 803 1062 750 1064 c 2
 738 1064 l 1
 520 1094 l 1
 516 1094 l 2
 496 1094 480 1082 466 1058 c 1
 457 1047 l 1
 420 1055 l 1
 422 1062 425 1072 429 1086 c 128
 433 1100 441 1116 455 1136 c 0
 480 1175 508 1195 541 1196 c 2
 547 1196 l 1
 549 1194 550 1194 554 1194 c 2
 773 1164 l 1
 775 1164 l 2
 793 1164 810 1178 830 1205 c 1
 877 1203 l 1
EndSplineSet
Colour: ffffff
EndChar

StartChar: ograve
Encoding: 178 242 177
Width: 794
VWidth: 1655
GlyphClass: 2
Flags: HMW
LayerCount: 2
Fore
SplineSet
134 79 m 128
 86 149 63 236 63 340 c 128
 63 444 81 537 116 620 c 128
 151 703 198 770 259 821 c 128
 320 872 387 897 460 897 c 128
 533 897 596 863 647 795 c 128
 698 727 724 644 724 546 c 128
 724 448 709 358 678 274 c 128
 647 190 601 119 540 61 c 128
 479 3 408 -26 327 -26 c 128
 246 -26 182 9 134 79 c 128
285 733 m 0
 231 672 204 581 204 460 c 0
 204 325 235 221 296 146 c 0
 326 109 359 89 396 90 c 128
 433 91 466 107 495 139 c 0
 551 204 579 300 579 424 c 0
 579 558 549 659 490 730 c 0
 460 765 426 783 388 784 c 128
 350 785 316 767 285 733 c 0
254 1298 m 1
 366 1336 l 1
 497 1008 l 1
 440 973 l 1
 254 1298 l 1
EndSplineSet
Colour: ffffff
EndChar

StartChar: oacute
Encoding: 179 243 178
Width: 794
VWidth: 1655
GlyphClass: 2
Flags: HMW
LayerCount: 2
Fore
SplineSet
134 79 m 128
 86 149 63 236 63 340 c 128
 63 444 81 537 116 620 c 128
 151 703 198 770 259 821 c 128
 320 872 387 897 460 897 c 128
 533 897 596 863 647 795 c 128
 698 727 724 644 724 546 c 128
 724 448 709 358 678 274 c 128
 647 190 601 119 540 61 c 128
 479 3 408 -26 327 -26 c 128
 246 -26 182 9 134 79 c 128
285 733 m 0
 231 672 204 581 204 460 c 0
 204 325 235 221 296 146 c 0
 326 109 359 89 396 90 c 128
 433 91 466 107 495 139 c 0
 551 204 579 300 579 424 c 0
 579 558 549 659 490 730 c 0
 460 765 426 783 388 784 c 128
 350 785 316 767 285 733 c 0
675 1304 m 1
 495 994 l 1
 445 1024 l 1
 565 1342 l 1
 675 1304 l 1
EndSplineSet
Colour: ffffff
EndChar

StartChar: ocircumflex
Encoding: 180 244 179
Width: 795
VWidth: 1655
GlyphClass: 2
Flags: HMW
LayerCount: 2
Fore
SplineSet
135 79 m 128
 87 149 64 236 64 340 c 128
 64 444 82 537 117 620 c 128
 152 703 199 770 260 821 c 128
 321 872 388 897 461 897 c 128
 534 897 597 863 648 795 c 128
 699 727 725 644 725 546 c 128
 725 448 710 358 679 274 c 128
 648 190 602 119 541 61 c 128
 480 3 409 -26 328 -26 c 128
 247 -26 183 9 135 79 c 128
286 733 m 0
 232 672 205 581 205 460 c 0
 205 325 236 221 297 146 c 0
 327 109 360 89 397 90 c 128
 434 91 467 107 496 139 c 0
 552 204 580 300 580 424 c 0
 580 558 550 659 491 730 c 0
 461 765 427 783 389 784 c 128
 351 785 317 767 286 733 c 0
477 1220 m 1
 651 1039 l 1
 602 1003 l 1
 442 1111 l 1
 433 1111 l 1
 296 1001 l 1
 258 1031 l 1
 423 1207 l 1
 477 1220 l 1
EndSplineSet
Colour: ffffff
EndChar

StartChar: otilde
Encoding: 181 245 180
Width: 795
VWidth: 1655
GlyphClass: 2
Flags: HMW
LayerCount: 2
Fore
SplineSet
135 79 m 128
 87 149 64 236 64 340 c 128
 64 444 82 537 117 620 c 128
 152 703 199 770 260 821 c 128
 321 872 388 897 461 897 c 128
 534 897 597 863 648 795 c 128
 699 727 725 644 725 546 c 128
 725 448 710 358 679 274 c 128
 648 190 602 119 541 61 c 128
 480 3 409 -26 328 -26 c 128
 247 -26 183 9 135 79 c 128
286 733 m 0
 232 672 205 581 205 460 c 0
 205 325 236 221 297 146 c 0
 327 109 360 89 397 90 c 128
 434 91 467 107 496 139 c 0
 552 204 580 300 580 424 c 0
 580 558 550 659 491 730 c 0
 461 765 427 783 389 784 c 128
 351 785 317 767 286 733 c 0
684 1171 m 1
 653 1077 610 1030 556 1031 c 2
 545 1031 l 1
 326 1062 l 1
 323 1062 l 2
 303 1062 287 1050 273 1026 c 1
 265 1015 l 1
 227 1022 l 1
 229 1029 232 1039 236 1053 c 128
 240 1067 248 1084 261 1105 c 0
 286 1144 314 1164 347 1163 c 2
 354 1163 l 1
 356 1161 357 1161 361 1161 c 2
 578 1132 l 1
 581 1132 l 2
 599 1132 617 1146 637 1173 c 1
 684 1171 l 1
EndSplineSet
Colour: ffffff
EndChar

StartChar: odieresis
Encoding: 182 246 181
Width: 795
VWidth: 1655
GlyphClass: 2
Flags: HMW
LayerCount: 2
Fore
SplineSet
135 79 m 128
 87 149 64 236 64 340 c 128
 64 444 82 537 117 620 c 128
 152 703 199 770 260 821 c 128
 321 872 388 897 461 897 c 128
 534 897 597 863 648 795 c 128
 699 727 725 644 725 546 c 128
 725 448 710 358 679 274 c 128
 648 190 602 119 541 61 c 128
 480 3 409 -26 328 -26 c 128
 247 -26 183 9 135 79 c 128
286 733 m 0
 232 672 205 581 205 460 c 0
 205 325 236 221 297 146 c 0
 327 109 360 89 397 90 c 128
 434 91 467 107 496 139 c 0
 552 204 580 300 580 424 c 0
 580 558 550 659 491 730 c 0
 461 765 427 783 389 784 c 128
 351 785 317 767 286 733 c 0
645 1160 m 128
 663 1145 671 1127 671 1105 c 128
 671 1083 663 1066 645 1050 c 128
 627 1034 608 1027 585 1027 c 128
 562 1027 543 1034 526 1050 c 128
 509 1066 502 1084 502 1106 c 128
 502 1128 509 1146 526 1161 c 128
 543 1176 562 1182 585 1182 c 128
 608 1182 627 1175 645 1160 c 128
382 1160 m 128
 399 1145 407 1127 407 1105 c 128
 407 1083 399 1065 382 1050 c 128
 365 1035 347 1027 324 1027 c 128
 301 1027 281 1034 264 1050 c 128
 247 1066 240 1084 240 1106 c 128
 240 1128 247 1146 264 1161 c 128
 281 1176 301 1182 324 1182 c 128
 347 1182 365 1175 382 1160 c 128
EndSplineSet
Colour: ffffff
EndChar

StartChar: divide
Encoding: 183 247 182
Width: 955
VWidth: 1655
GlyphClass: 2
Flags: HMW
LayerCount: 2
Fore
SplineSet
631 790 m 0
 631 782 631 777 629 773 c 1
 623 740 608 711 581 688 c 128
 554 665 525 653 494 653 c 128
 463 653 438 662 420 682 c 128
 402 702 394 720 394 740 c 128
 394 760 394 771 395 775 c 1
 399 806 414 832 440 853 c 128
 466 874 495 885 526 885 c 132
 557 885 582 876 602 857 c 128
 622 838 631 817 631 790 c 0
543 238 m 0
 543 230 543 225 542 221 c 1
 536 188 520 160 493 137 c 128
 466 114 436 103 406 103 c 128
 376 103 352 112 333 131 c 128
 314 150 305 168 305 188 c 128
 305 208 305 219 307 223 c 1
 311 254 326 280 353 301 c 128
 380 322 408 332 439 332 c 128
 470 332 494 323 514 305 c 128
 534 287 543 265 543 238 c 0
90 548 m 1
 886 548 l 1
 858 446 l 1
 63 446 l 1
 90 548 l 1
EndSplineSet
Colour: ffffff
EndChar

StartChar: oslash
Encoding: 184 248 183
Width: 810
VWidth: 1655
GlyphClass: 2
Flags: HMW
LayerCount: 2
Fore
SplineSet
298 163 m 1
 332 114 368 89 408 90 c 128
 448 91 482 107 511 139 c 0
 567 204 595 300 595 424 c 0
 595 503 582 576 555 644 c 1
 298 163 l 1
301 733 m 0
 247 672 220 581 220 460 c 0
 220 377 233 301 260 233 c 1
 517 716 l 1
 486 761 450 784 409 784 c 128
 368 784 332 767 301 733 c 0
600 915 m 1
 729 923 l 1
 661 794 l 1
 713 727 739 645 740 547 c 128
 741 449 725 358 694 274 c 128
 663 190 617 119 556 61 c 128
 495 3 425 -26 346 -26 c 0
 307 -26 269 -17 234 2 c 1
 192 -77 l 1
 63 -84 l 1
 152 80 l 1
 103 149 79 235 79 339 c 128
 79 443 97 537 132 620 c 128
 167 703 214 770 275 821 c 128
 336 872 401 897 471 897 c 0
 503 897 538 888 576 869 c 1
 600 915 l 1
EndSplineSet
Colour: ffffff
EndChar

StartChar: ugrave
Encoding: 185 249 184
Width: 1091
VWidth: 1655
GlyphClass: 2
Flags: HMW
LayerCount: 2
Fore
SplineSet
712 817 m 1
 735 872 774 900 831 900 c 0
 845 900 858 899 873 895 c 1
 889 867 l 1
 819 484 l 1
 802 284 l 2
 797 233 794 199 795 178 c 128
 796 157 798 143 804 135 c 128
 810 127 821 123 837 123 c 128
 853 123 876 139 907 170 c 128
 938 201 963 234 983 270 c 1
 1022 242 l 1
 970 64 873 -25 729 -24 c 0
 670 -24 641 17 640 98 c 0
 640 139 649 194 668 263 c 1
 657 265 l 1
 624 174 582 102 533 51 c 128
 484 0 432 -26 379 -26 c 128
 326 -26 285 -12 259 16 c 128
 233 44 220 77 220 118 c 128
 220 159 223 205 229 256 c 1
 282 602 l 1
 287 637 289 661 288 676 c 0
 288 717 277 737 254 738 c 0
 223 738 175 689 111 592 c 1
 63 623 l 1
 92 699 135 765 191 819 c 128
 247 873 302 900 357 900 c 0
 422 900 455 857 453 770 c 0
 453 743 445 673 427 561 c 2
 399 385 l 1
 389 328 385 281 385 242 c 128
 385 203 388 179 397 167 c 128
 406 155 420 150 440 150 c 0
 488 150 531 179 570 237 c 1
 609 296 644 393 675 527 c 1
 677 668 689 764 712 817 c 1
414 1331 m 1
 527 1367 l 1
 657 1041 l 1
 600 1006 l 1
 414 1331 l 1
EndSplineSet
Colour: ffffff
EndChar

StartChar: uacute
Encoding: 186 250 185
Width: 1091
VWidth: 1655
GlyphClass: 2
Flags: HMW
LayerCount: 2
Fore
SplineSet
712 817 m 1
 735 872 774 900 831 900 c 0
 845 900 858 899 873 895 c 1
 889 867 l 1
 819 484 l 1
 802 284 l 2
 797 233 794 199 795 178 c 128
 796 157 798 143 804 135 c 128
 810 127 821 123 837 123 c 128
 853 123 876 139 907 170 c 128
 938 201 963 234 983 270 c 1
 1022 242 l 1
 970 64 873 -25 729 -24 c 0
 670 -24 641 17 640 98 c 0
 640 139 649 194 668 263 c 1
 657 265 l 1
 624 174 582 102 533 51 c 128
 484 0 432 -26 379 -26 c 128
 326 -26 285 -12 259 16 c 128
 233 44 220 77 220 118 c 128
 220 159 223 205 229 256 c 1
 282 602 l 1
 287 637 289 661 288 676 c 0
 288 717 277 737 254 738 c 0
 223 738 175 689 111 592 c 1
 63 623 l 1
 92 699 135 765 191 819 c 128
 247 873 302 900 357 900 c 0
 422 900 455 857 453 770 c 0
 453 743 445 673 427 561 c 2
 399 385 l 1
 389 328 385 281 385 242 c 128
 385 203 388 179 397 167 c 128
 406 155 420 150 440 150 c 0
 488 150 531 179 570 237 c 1
 609 296 644 393 675 527 c 1
 677 668 689 764 712 817 c 1
835 1336 m 1
 655 1026 l 1
 605 1057 l 1
 725 1375 l 1
 835 1336 l 1
EndSplineSet
Colour: ffffff
EndChar

StartChar: ucircumflex
Encoding: 187 251 186
Width: 1091
VWidth: 1655
GlyphClass: 2
Flags: HMW
LayerCount: 2
Fore
SplineSet
712 817 m 1
 735 872 774 900 831 900 c 0
 845 900 858 899 873 895 c 1
 889 867 l 1
 819 484 l 1
 802 284 l 2
 797 233 794 199 795 178 c 128
 796 157 798 143 804 135 c 128
 810 127 821 123 837 123 c 128
 853 123 876 139 907 170 c 128
 938 201 963 234 983 270 c 1
 1022 242 l 1
 970 64 873 -25 729 -24 c 0
 670 -24 641 17 640 98 c 0
 640 139 649 194 668 263 c 1
 657 265 l 1
 624 174 582 102 533 51 c 128
 484 0 432 -26 379 -26 c 128
 326 -26 285 -12 259 16 c 128
 233 44 220 77 220 118 c 128
 220 159 223 205 229 256 c 1
 282 602 l 1
 287 637 289 661 288 676 c 0
 288 717 277 737 254 738 c 0
 223 738 175 689 111 592 c 1
 63 623 l 1
 92 699 135 765 191 819 c 128
 247 873 302 900 357 900 c 0
 422 900 455 857 453 770 c 0
 453 743 445 673 427 561 c 2
 399 385 l 1
 389 328 385 281 385 242 c 128
 385 203 388 179 397 167 c 128
 406 155 420 150 440 150 c 0
 488 150 531 179 570 237 c 1
 609 296 644 393 675 527 c 1
 677 668 689 764 712 817 c 1
636 1252 m 1
 810 1071 l 1
 762 1036 l 1
 601 1142 l 1
 592 1142 l 1
 455 1034 l 1
 417 1064 l 1
 582 1239 l 1
 636 1252 l 1
EndSplineSet
Colour: ffffff
EndChar

StartChar: udieresis
Encoding: 188 252 187
Width: 1091
VWidth: 1655
GlyphClass: 2
Flags: HMW
LayerCount: 2
Fore
SplineSet
712 817 m 1
 735 872 774 900 831 900 c 0
 845 900 858 899 873 895 c 1
 889 867 l 1
 819 484 l 1
 802 284 l 2
 797 233 794 199 795 178 c 128
 796 157 798 143 804 135 c 128
 810 127 821 123 837 123 c 128
 853 123 876 139 907 170 c 128
 938 201 963 234 983 270 c 1
 1022 242 l 1
 970 64 873 -25 729 -24 c 0
 670 -24 641 17 640 98 c 0
 640 139 649 194 668 263 c 1
 657 265 l 1
 624 174 582 102 533 51 c 128
 484 0 432 -26 379 -26 c 128
 326 -26 285 -12 259 16 c 128
 233 44 220 77 220 118 c 128
 220 159 223 205 229 256 c 1
 282 602 l 1
 287 637 289 661 288 676 c 0
 288 717 277 737 254 738 c 0
 223 738 175 689 111 592 c 1
 63 623 l 1
 92 699 135 765 191 819 c 128
 247 873 302 900 357 900 c 0
 422 900 455 857 453 770 c 0
 453 743 445 673 427 561 c 2
 399 385 l 1
 389 328 385 281 385 242 c 128
 385 203 388 179 397 167 c 128
 406 155 420 150 440 150 c 0
 488 150 531 179 570 237 c 1
 609 296 644 393 675 527 c 1
 677 668 689 764 712 817 c 1
804 1193 m 128
 822 1178 830 1160 830 1138 c 128
 830 1116 822 1099 804 1083 c 128
 786 1067 767 1060 744 1060 c 128
 721 1060 702 1067 686 1083 c 128
 670 1099 662 1117 662 1139 c 128
 662 1161 670 1179 686 1194 c 128
 702 1209 721 1215 744 1215 c 128
 767 1215 786 1208 804 1193 c 128
542 1193 m 128
 559 1178 567 1160 567 1138 c 128
 567 1116 559 1098 542 1083 c 128
 525 1068 506 1060 483 1060 c 128
 460 1060 440 1067 423 1083 c 128
 406 1099 399 1117 399 1139 c 128
 399 1161 406 1179 423 1194 c 128
 440 1209 460 1215 483 1215 c 128
 506 1215 525 1208 542 1193 c 128
EndSplineSet
Colour: ffffff
EndChar

StartChar: yacute
Encoding: 189 253 188
Width: 956
VWidth: 1655
GlyphClass: 2
Flags: HMW
LayerCount: 2
Fore
SplineSet
112 592 m 1
 63 629 l 1
 88 700 125 764 177 819 c 128
 229 874 280 902 328 902 c 128
 376 902 412 885 437 852 c 128
 462 819 479 766 489 693 c 2
 550 205 l 1
 555 162 l 1
 564 162 l 1
 640 276 686 354 701 395 c 128
 716 436 724 467 727 490 c 128
 730 513 731 545 731 585 c 128
 731 625 717 671 690 723 c 128
 663 775 631 817 596 848 c 1
 609 864 627 877 651 889 c 128
 675 901 699 906 722 906 c 0
 767 906 805 886 838 846 c 128
 871 806 887 760 887 707 c 0
 887 616 862 524 813 429 c 128
 764 334 678 206 554 46 c 1
 541 -73 501 -174 435 -257 c 128
 369 -340 292 -381 205 -381 c 0
 167 -381 135 -370 107 -349 c 128
 79 -328 65 -302 65 -270 c 2
 65 -265 l 1
 68 -236 73 -213 82 -195 c 128
 91 -177 107 -160 130 -141 c 1
 181 -189 232 -213 281 -212 c 128
 330 -211 366 -198 389 -170 c 128
 412 -142 424 -93 424 -24 c 0
 424 13 421 57 414 109 c 2
 350 610 l 2
 344 652 334 685 316 710 c 128
 298 735 279 748 258 748 c 128
 237 748 215 733 188 703 c 128
 161 673 135 635 112 592 c 1
784 1336 m 1
 605 1026 l 1
 555 1057 l 1
 675 1375 l 1
 784 1336 l 1
EndSplineSet
Colour: ffffff
EndChar

StartChar: thorn
Encoding: 190 254 189
Width: 1014
VWidth: 1655
GlyphClass: 2
Flags: HMW
LayerCount: 2
Back
SplineSet
164 -251 m 1
 309 887 l 1
 345 1145 l 1
 206 1171 l 1
 217 1246 l 1
 505 1269 l 1
 522 1248 l 1
 464 839 l 1
 396 560 l 1
 408 558 l 1
 445 652 488 730 539 791 c 128
 590 852 643 882 699 882 c 128
 755 882 801 852 838 790 c 128
 875 728 894 646 894 545 c 128
 894 444 879 355 850 278 c 128
 821 201 780 142 729 103 c 0
 632 27 522 -11 401 -13 c 1
 391 61 l 1
 433 66 466 71 491 79 c 128
 516 87 544 99 576 119 c 0
 608 139 633 164 653 195 c 0
 699 268 722 378 722 527 c 0
 722 596 715 645 702 676 c 128
 689 707 668 722 637 722 c 0
 586 722 533 673 480 574 c 1
 426 473 390 341 371 179 c 1
 308 -270 l 1
 490 -291 l 1
 473 -362 l 1
 13 -362 l 1
 32 -293 l 1
 164 -251 l 1
EndSplineSet
Fore
SplineSet
214 -251 m 1
 359 887 l 1
 399 1175 l 1
 260 1201 l 1
 271 1276 l 1
 559 1299 l 1
 576 1278 l 1
 514 839 l 1
 446 560 l 1
 458 558 l 1
 495 652 538 730 589 791 c 128
 640 852 693 882 749 882 c 128
 805 882 851 852 888 790 c 128
 925 728 944 646 944 545 c 128
 944 444 929 355 900 278 c 128
 871 201 830 142 779 103 c 0
 682 27 572 -11 451 -13 c 1
 441 61 l 1
 483 66 516 71 541 79 c 128
 566 87 594 99 626 119 c 0
 658 139 683 164 703 195 c 0
 749 268 772 378 772 527 c 0
 772 596 765 645 752 676 c 128
 739 707 718 722 687 722 c 0
 636 722 583 673 530 574 c 1
 476 473 440 341 421 179 c 1
 358 -270 l 1
 540 -291 l 1
 523 -362 l 1
 63 -362 l 1
 82 -293 l 1
 214 -251 l 1
EndSplineSet
Colour: ffffff
EndChar

StartChar: ydieresis
Encoding: 191 255 190
Width: 956
VWidth: 1655
GlyphClass: 2
Flags: HMW
LayerCount: 2
Fore
SplineSet
112 592 m 1
 63 629 l 1
 88 700 125 764 177 819 c 128
 229 874 280 902 328 902 c 128
 376 902 412 885 437 852 c 128
 462 819 479 766 489 693 c 2
 550 205 l 1
 555 162 l 1
 564 162 l 1
 640 276 686 354 701 395 c 128
 716 436 724 467 727 490 c 128
 730 513 731 545 731 585 c 128
 731 625 717 671 690 723 c 128
 663 775 631 817 596 848 c 1
 609 864 627 877 651 889 c 128
 675 901 699 906 722 906 c 0
 767 906 805 886 838 846 c 128
 871 806 887 760 887 707 c 0
 887 616 862 524 813 429 c 128
 764 334 678 206 554 46 c 1
 541 -73 501 -174 435 -257 c 128
 369 -340 292 -381 205 -381 c 0
 167 -381 135 -370 107 -349 c 128
 79 -328 65 -302 65 -270 c 2
 65 -265 l 1
 68 -236 73 -213 82 -195 c 128
 91 -177 107 -160 130 -141 c 1
 181 -189 232 -213 281 -212 c 128
 330 -211 366 -198 389 -170 c 128
 412 -142 424 -93 424 -24 c 0
 424 13 421 57 414 109 c 2
 350 610 l 2
 344 652 334 685 316 710 c 128
 298 735 279 748 258 748 c 128
 237 748 215 733 188 703 c 128
 161 673 135 635 112 592 c 1
755 1193 m 128
 772 1178 779 1160 779 1138 c 128
 779 1116 772 1099 755 1083 c 128
 738 1067 718 1060 695 1060 c 128
 672 1060 652 1067 636 1083 c 128
 620 1099 612 1117 612 1139 c 128
 612 1161 620 1179 636 1194 c 128
 652 1209 672 1215 695 1215 c 128
 718 1215 738 1208 755 1193 c 128
492 1193 m 128
 509 1178 516 1160 516 1138 c 128
 516 1116 509 1098 492 1083 c 128
 475 1068 455 1060 432 1060 c 128
 409 1060 390 1067 374 1083 c 128
 358 1099 350 1117 350 1139 c 128
 350 1161 358 1179 374 1194 c 128
 390 1209 409 1215 432 1215 c 128
 455 1215 475 1208 492 1193 c 128
EndSplineSet
Colour: ffffff
EndChar

StartChar: circumflex
Encoding: 192 710 191
Width: 574
VWidth: 1655
GlyphClass: 2
Flags: HMW
LayerCount: 2
Fore
SplineSet
308 1548 m 1
 484 1367 l 1
 435 1332 l 1
 275 1438 l 1
 265 1438 l 1
 127 1331 l 1
 90 1359 l 1
 256 1536 l 1
 308 1548 l 1
EndSplineSet
Colour: ffffff
EndChar

StartChar: dotaccent
Encoding: 193 729 192
Width: 416
VWidth: 1655
GlyphClass: 2
Flags: HMW
LayerCount: 2
Fore
SplineSet
291 1527 m 128
 314 1506 326 1480 326 1448 c 128
 326 1416 314 1387 291 1364 c 128
 268 1341 240 1329 207 1329 c 128
 174 1329 147 1341 124 1364 c 128
 101 1387 90 1415 90 1448 c 128
 90 1481 102 1507 125 1528 c 128
 148 1549 175 1559 207 1559 c 128
 239 1559 268 1548 291 1527 c 128
EndSplineSet
Colour: ffffff
EndChar

StartChar: ring
Encoding: 194 730 193
Width: 498
VWidth: 1655
GlyphClass: 2
Flags: HMW
LayerCount: 2
Fore
SplineSet
183 1586 m 128
 167 1565 160 1538 160 1505 c 128
 160 1472 168 1444 186 1419 c 128
 204 1394 226 1382 254 1382 c 0
 310 1382 338 1419 338 1494 c 0
 338 1529 329 1558 311 1582 c 128
 293 1606 272 1617 246 1617 c 128
 220 1617 199 1607 183 1586 c 128
366 1620 m 128
 394 1590 408 1551 408 1505 c 128
 408 1459 393 1419 361 1386 c 128
 329 1353 290 1336 244 1336 c 128
 198 1336 160 1350 132 1379 c 128
 104 1408 90 1446 90 1493 c 128
 90 1540 106 1580 139 1614 c 128
 172 1648 211 1665 256 1665 c 128
 301 1665 338 1650 366 1620 c 128
EndSplineSet
Colour: ffffff
EndChar

StartChar: tilde
Encoding: 195 732 194
Width: 639
VWidth: 1655
GlyphClass: 2
Flags: HMW
LayerCount: 2
Fore
SplineSet
187 1389 m 2
 170 1389 151 1373 128 1342 c 1
 91 1351 l 1
 93 1358 96 1367 100 1381 c 128
 104 1395 112 1412 125 1432 c 0
 150 1471 178 1491 211 1492 c 2
 218 1492 l 1
 220 1490 222 1490 224 1490 c 2
 442 1461 l 1
 446 1461 l 2
 460 1461 478 1474 500 1501 c 1
 548 1500 l 1
 517 1406 474 1359 420 1359 c 2
 409 1359 l 1
 190 1389 l 1
 187 1389 l 2
EndSplineSet
Colour: ffffff
EndChar

StartChar: Germandbls
Encoding: 196 7838 195
Width: 1476
VWidth: 1655
GlyphClass: 2
Flags: HMW
LayerCount: 2
Fore
SplineSet
838 369 m 1
 818 317 807 271 808 232 c 128
 809 193 814 164 825 144 c 1
 834 122 850 103 873 86 c 0
 909 60 947 47 987 47 c 128
 1027 47 1061 57 1092 78 c 0
 1144 113 1170 160 1170 220 c 0
 1170 268 1159 308 1136 341 c 128
 1113 374 1063 428 986 502 c 128
 909 576 854 631 823 667 c 128
 792 703 769 738 754 770 c 128
 739 802 731 839 731 882 c 2
 731 893 l 1
 733 939 745 981 767 1020 c 1
 805 1090 863 1142 940 1176 c 1
 940 1184 l 1
 926 1184 l 2
 840 1184 769 1160 712 1113 c 128
 655 1066 616 1005 595 931 c 1
 586 902 581 871 577 838 c 1
 473 -2 l 1
 63 -2 l 1
 86 80 l 1
 304 134 l 1
 385 771 l 1
 397 844 406 896 415 926 c 128
 424 956 439 988 461 1022 c 0
 540 1146 685 1221 894 1246 c 1
 925 1251 969 1253 1026 1252 c 128
 1083 1251 1137 1245 1188 1230 c 128
 1239 1215 1283 1194 1321 1163 c 1
 1356 1132 1378 1100 1390 1068 c 128
 1402 1036 1407 1010 1407 992 c 0
 1407 923 1386 873 1343 841 c 0
 1314 819 1284 808 1254 809 c 128
 1224 810 1195 816 1168 830 c 1
 1194 902 1207 958 1207 999 c 128
 1207 1040 1204 1069 1197 1086 c 128
 1190 1103 1178 1119 1158 1136 c 128
 1138 1153 1120 1162 1102 1164 c 1
 1098 1166 1093 1166 1084 1166 c 0
 1045 1166 1011 1150 980 1117 c 1
 949 1086 930 1045 922 994 c 1
 918 978 917 963 917 948 c 128
 917 933 919 912 924 886 c 128
 929 860 936 839 947 821 c 0
 963 795 1006 749 1077 683 c 128
 1148 617 1191 576 1207 561 c 0
 1250 520 1285 477 1312 432 c 0
 1346 377 1363 319 1363 258 c 128
 1363 197 1340 140 1293 88 c 1
 1264 54 1228 26 1185 3 c 0
 1109 -36 1028 -55 942 -56 c 0
 894 -56 843 -49 789 -33 c 1
 706 -6 646 39 610 101 c 1
 594 130 585 150 583 162 c 128
 581 174 580 184 580 195 c 0
 580 246 597 288 631 320 c 1
 667 359 715 378 774 378 c 0
 795 379 817 376 838 369 c 1
EndSplineSet
Colour: ffffff
EndChar

StartChar: endash
Encoding: 197 8211 196
Width: 764
VWidth: 1655
GlyphClass: 2
Flags: HMW
LayerCount: 2
Fore
SplineSet
91 504 m 1
 689 510 l 1
 673 408 l 1
 74 401 l 1
 91 504 l 1
EndSplineSet
Colour: ffffff
EndChar

StartChar: emdash
Encoding: 198 8212 197
Width: 1262
VWidth: 1655
GlyphClass: 2
Flags: HMW
LayerCount: 2
Fore
SplineSet
91 504 m 1
 1187 510 l 1
 1171 408 l 1
 74 401 l 1
 91 504 l 1
EndSplineSet
Colour: ffffff
EndChar

StartChar: quoteleft
Encoding: 199 8216 198
Width: 472
VWidth: 1655
GlyphClass: 2
Flags: HMW
LayerCount: 2
Fore
SplineSet
213 801 m 2
 198 801 l 1
 146 807 109 840 86 900 c 0
 76 924 72 948 71 971 c 0
 71 1072 121 1160 221 1236 c 1
 265 1272 314 1304 369 1331 c 1
 402 1278 l 1
 343 1247 301 1214 276 1176 c 128
 251 1138 239 1101 239 1066 c 0
 239 1064 241 1053 245 1031 c 128
 249 1009 259 987 279 964 c 128
 299 941 322 924 347 911 c 1
 337 875 320 848 293 829 c 128
 266 810 240 801 213 801 c 2
EndSplineSet
Colour: ffffff
EndChar

StartChar: quoteright
Encoding: 200 8217 199
Width: 471
VWidth: 1655
GlyphClass: 2
Flags: HMW
LayerCount: 2
Fore
SplineSet
261 1324 m 2
 274 1324 l 1
 326 1317 364 1284 387 1224 c 0
 397 1200 401 1177 401 1154 c 0
 402 1053 352 965 253 888 c 1
 209 852 159 821 103 794 c 1
 70 846 l 1
 129 877 170 911 196 949 c 128
 222 987 235 1023 235 1058 c 0
 235 1060 233 1071 229 1093 c 128
 225 1115 213 1138 193 1160 c 128
 173 1182 151 1199 126 1213 c 1
 136 1249 153 1277 180 1296 c 128
 207 1315 234 1324 261 1324 c 2
EndSplineSet
Colour: ffffff
EndChar

StartChar: quotesinglbase
Encoding: 201 8218 200
Width: 477
VWidth: 1655
GlyphClass: 2
Flags: HMW
LayerCount: 2
Fore
SplineSet
264 228 m 2
 277 228 l 1
 329 221 366 188 388 127 c 0
 398 101 401 77 402 54 c 128
 403 31 402 13 399 0 c 0
 385 -75 337 -144 254 -209 c 1
 210 -245 160 -276 105 -303 c 1
 73 -251 l 1
 132 -220 174 -186 199 -149 c 128
 224 -112 236 -75 236 -38 c 0
 236 -29 234 -17 230 0 c 128
 226 17 213 38 191 63 c 128
 169 88 149 105 128 116 c 1
 138 152 156 179 183 199 c 128
 210 219 237 228 264 228 c 2
EndSplineSet
Colour: ffffff
EndChar

StartChar: quotedblleft
Encoding: 202 8220 201
Width: 806
VWidth: 1655
GlyphClass: 2
Flags: HMW
LayerCount: 2
Fore
SplineSet
547 801 m 2
 533 801 l 1
 481 807 444 840 422 900 c 0
 412 924 408 948 407 971 c 0
 407 1072 456 1160 555 1236 c 1
 599 1272 649 1304 704 1331 c 1
 736 1278 l 1
 677 1247 636 1214 611 1176 c 128
 586 1138 573 1101 573 1066 c 0
 573 1064 575 1053 580 1031 c 128
 585 1009 596 987 616 964 c 128
 636 941 657 924 682 911 c 1
 672 875 655 848 628 829 c 128
 601 810 574 801 547 801 c 2
213 801 m 2
 198 801 l 1
 146 807 109 840 86 900 c 0
 76 924 72 948 71 971 c 0
 71 1072 121 1160 221 1236 c 1
 265 1272 314 1304 369 1331 c 1
 402 1278 l 1
 343 1247 301 1214 276 1176 c 128
 251 1138 239 1101 239 1066 c 0
 239 1064 241 1053 245 1031 c 128
 249 1009 259 987 279 964 c 128
 299 941 322 924 347 911 c 1
 337 875 320 848 293 829 c 128
 266 810 240 801 213 801 c 2
EndSplineSet
Colour: ffffff
EndChar

StartChar: quotedblright
Encoding: 203 8221 202
Width: 798
VWidth: 1655
GlyphClass: 2
Flags: HMW
LayerCount: 2
Fore
SplineSet
587 1324 m 2
 602 1324 l 1
 654 1317 691 1284 713 1224 c 0
 723 1200 727 1177 728 1154 c 0
 728 1053 678 965 579 888 c 1
 535 852 486 821 431 794 c 1
 398 846 l 1
 457 877 499 911 524 949 c 128
 549 987 561 1023 561 1058 c 0
 561 1060 559 1071 555 1093 c 128
 551 1115 540 1138 520 1160 c 128
 500 1182 478 1199 454 1213 c 1
 464 1249 482 1277 508 1296 c 128
 534 1315 560 1324 587 1324 c 2
261 1324 m 2
 274 1324 l 1
 326 1317 364 1284 387 1224 c 0
 397 1200 401 1177 401 1154 c 0
 402 1053 352 965 253 888 c 1
 209 852 159 821 103 794 c 1
 70 846 l 1
 129 877 170 911 196 949 c 128
 222 987 235 1023 235 1058 c 0
 235 1060 233 1071 229 1093 c 128
 225 1115 213 1138 193 1160 c 128
 173 1182 151 1199 126 1213 c 1
 136 1249 153 1277 180 1296 c 128
 207 1315 234 1324 261 1324 c 2
EndSplineSet
Colour: ffffff
EndChar

StartChar: dagger
Encoding: 204 8224 203
Width: 858
VWidth: 1655
GlyphClass: 2
Flags: HMW
LayerCount: 2
Fore
SplineSet
491 802 m 1
 791 811 l 1
 768 691 l 1
 477 702 l 1
 362 -355 l 1
 221 -343 l 1
 364 704 l 1
 67 698 l 1
 88 811 l 1
 377 802 l 1
 421 1229 l 1
 551 1218 l 1
 491 802 l 1
EndSplineSet
Colour: ffffff
EndChar

StartChar: daggerdbl
Encoding: 205 8225 204
Width: 924
VWidth: 1655
GlyphClass: 2
Flags: HMW
LayerCount: 2
Fore
SplineSet
503 421 m 1
 475 170 l 1
 781 176 l 1
 762 63 l 1
 462 72 l 1
 419 -355 l 1
 289 -344 l 1
 349 72 l 1
 67 63 l 1
 88 183 l 1
 362 171 l 1
 409 489 l 1
 431 704 l 1
 136 698 l 1
 157 811 l 1
 445 802 l 1
 488 1229 l 1
 618 1218 l 1
 558 802 l 1
 857 811 l 1
 834 691 l 1
 545 702 l 1
 503 421 l 1
EndSplineSet
Colour: ffffff
EndChar

StartChar: guilsinglleft
Encoding: 206 8249 205
Width: 491
VWidth: 1655
GlyphClass: 2
Flags: HMW
LayerCount: 2
Fore
SplineSet
71 460 m 1
 387 804 l 1
 423 745 l 1
 214 451 l 1
 329 137 l 1
 266 77 l 1
 69 440 l 1
 71 460 l 1
EndSplineSet
Colour: ffffff
EndChar

StartChar: guilsinglright
Encoding: 207 8250 206
Width: 497
VWidth: 1655
GlyphClass: 2
Flags: HMW
LayerCount: 2
Fore
SplineSet
428 460 m 1
 424 440 l 1
 109 77 l 1
 68 137 l 1
 283 451 l 1
 168 745 l 1
 220 804 l 1
 428 460 l 1
EndSplineSet
Colour: ffffff
EndChar

StartChar: Euro
Encoding: 208 8364 207
Width: 1231
VWidth: 1655
GlyphClass: 2
Flags: HMW
LayerCount: 2
Fore
SplineSet
971 385 m 1
 1057 398 l 1
 1052 108 l 1
 985 59 921 26 861 6 c 128
 801 -14 731 -24 650 -24 c 0
 506 -24 389 20 300 109 c 128
 211 198 167 319 167 472 c 2
 167 476 l 1
 67 476 l 1
 98 579 l 1
 174 579 l 1
 180 618 183 641 185 648 c 1
 95 648 l 1
 126 750 l 1
 213 750 l 1
 258 884 329 997 427 1090 c 0
 479 1139 542 1177 616 1204 c 128
 690 1231 768 1245 853 1245 c 0
 982 1245 1085 1212 1164 1145 c 1
 1093 820 l 1
 1008 834 l 1
 994 1048 l 1
 971 1084 943 1110 913 1126 c 128
 883 1142 840 1150 785 1150 c 0
 695 1150 617 1115 551 1045 c 128
 485 975 438 876 410 750 c 1
 944 750 l 1
 902 648 l 1
 392 648 l 1
 392 646 l 1
 387 619 385 597 385 579 c 1
 878 579 l 1
 836 476 l 1
 383 476 l 1
 387 350 419 253 477 185 c 128
 535 117 613 83 711 83 c 0
 789 83 853 112 904 170 c 1
 971 385 l 1
EndSplineSet
Colour: ffffff
EndChar

StartChar: A.alt
Encoding: 211 -1 208
Width: 1496
VWidth: 1655
GlyphClass: 2
Flags: HMW
LayerCount: 2
Fore
SplineSet
723 537 m 1
 986 505 l 1
 897 1062 l 1
 893 1062 l 1
 857 934 822 819 787 716 c 1
 723 537 l 1
1041 1271 m 1
 1250 132 l 1
 1427 81 l 1
 1406 0 l 1
 829 0 l 1
 851 72 l 1
 1048 108 l 1
 998 432 l 1
 686 446 l 1
 613.412 261.506 473.588 -46.0762 266 -49 c 0
 154.705 -49 71.792 24.0859 63 123 c 1
 316.175 171.688 501.344 323.178 615 538 c 0
 684.1 667.137 804.312 988.083 861 1241 c 1
 1041 1271 l 1
EndSplineSet
Colour: ffffff
EndChar

StartChar: eight.osf
Encoding: 212 -1 209
Width: 904
VWidth: 0
Flags: HMW
LayerCount: 2
Fore
SplineSet
347.185 589 m 1
 348.61 598 l 1
 289.123 637.048 219.881 738.861 219.881 852.689 c 0
 219.881 1050.9 398.095 1201 580.116 1201 c 0
 734.371 1201 835.933 1114.94 835.933 988.262 c 0
 835.933 837.807 756.278 726.044 619.055 635 c 1
 617.629 626 l 1
 732.47 546.219 787.537 449.893 787.537 346.153 c 0
 787.537 125.719 608.539 -27 369.62 -27 c 0
 207.049 -27 67 63.5547 67 216.386 c 0
 67 372 188.896 504 347.185 589 c 1
237.693 271.465 m 0
 237.693 142 316.92 66 409.35 66 c 0
 519.776 66 620.864 121.341 620.864 269.176 c 0
 620.864 367.16 522.088 461.51 400.8 545 c 1
 316.896 504 237.693 398.431 237.693 271.465 c 0
383.67 949.405 m 0
 383.67 852.714 442.362 746.819 555.965 676 c 1
 604.132 721.122 682.234 799.6 682.234 944.094 c 0
 682.234 1034.37 640.258 1124 550.921 1124 c 0
 459.636 1124 383.67 1052.69 383.67 949.405 c 0
EndSplineSet
Colour: ffffff
EndChar

StartChar: five.osf
Encoding: 213 -1 210
Width: 1003
VWidth: 0
Flags: HMW
LayerCount: 2
Fore
SplineSet
223 29 m 1
 217.368 -86.7236 253.973 -216 406.395 -216 c 0
 542.88 -216 662 -132.869 662 95 c 0
 662 243.445 536.556 374.214 282.493 376 c 1
 485.952 904 l 1
 710 908.571 854 942.857 936.288 984 c 1
 939.719 964.354 941.369 946.406 941.369 930.021 c 0
 941.369 786.263 848.791 752.071 721.957 752.071 c 0
 660.663 752.071 593.398 757.482 523.828 764 c 1
 438.301 520 l 1
 741.337 511.935 848 340.527 848 149 c 0
 848 -93.2744 617.493 -297 353.981 -297 c 0
 148.408 -297 50 -211 50 -121 c 0
 50 0 157.708 18.543 223 29 c 1
EndSplineSet
Colour: ffffff
EndChar

StartChar: four.osf
Encoding: 214 -1 211
Width: 1077
VWidth: 0
Flags: HMW
LayerCount: 2
Fore
SplineSet
67 164 m 1
 824.192 986 l 1
 886.342 968 l 1
 861.494 849 820.115 613 791.447 432 c 2
 756.444 211 l 1
 1010.44 211 l 1
 973.646 86 l 1
 738.646 86 l 1
 679.736 -277 l 5
 501.877 -304 l 1
 564.121 89 l 1
 78.1221 89 l 1
 67 164 l 1
252.444 211 m 1
 582.444 211 l 1
 656.094 676 l 1
 252.444 211 l 1
EndSplineSet
Colour: ffffff
EndChar

StartChar: nine.osf
Encoding: 215 -1 212
Width: 880
VWidth: 0
Flags: HMW
LayerCount: 2
Fore
SplineSet
518.895 972 m 0
 734.921 972 811.713 805.591 811.713 623.612 c 0
 811.713 202.656 452.871 -168.857 78.2803 -282 c 1
 67 -208 l 1
 378.64 -84 496.944 132 568.479 319 c 1
 556.479 319 l 1
 496.866 252 412.373 230 325.373 230 c 0
 162.419 230 83.3945 338.898 83.3945 500.695 c 0
 83.3945 779.016 295.851 972 518.895 972 c 0
270.135 526.874 m 0
 270.135 412.444 316.021 338 415.479 338 c 0
 485.479 338 553.18 374 592.1 424 c 1
 617.208 499.565 628.993 574.051 628.993 658.681 c 0
 628.993 785.552 584.652 891 491.064 891 c 0
 373.049 891 270.135 755.071 270.135 526.874 c 0
EndSplineSet
Colour: ffffff
EndChar

StartChar: one.osf
Encoding: 216 -1 213
Width: 697
VWidth: 0
Flags: HMW
LayerCount: 2
Fore
SplineSet
67 0 m 1
 87.7207 74 l 1
 279.164 121 l 1
 387.024 802 l 1
 194.499 802 l 1
 215.695 882 l 1
 512.416 956 l 1
 580.416 956 l 1
 446.056 114 l 1
 629.671 80 l 1
 607 0 l 1
 67 0 l 1
EndSplineSet
Colour: ffffff
EndChar

StartChar: seven.osf
Encoding: 217 -1 214
Width: 877
VWidth: 0
Flags: HMW
LayerCount: 2
Back
SplineSet
373 238 m 0
 334 155 315 70 315 -17 c 128
 315 -104 346 -182 408 -250 c 1
 390 -273 365 -290 331 -302 c 1
 321 -307 308 -309 292 -309 c 128
 276 -309 256 -305 230 -297 c 128
 204 -289 179 -271 156 -241 c 128
 133 -211 121 -179 117 -146 c 128
 113 -113 111 -89 111 -71 c 0
 111 -30 133 36 176 128 c 1
 222 216 291 320 383 439 c 2
 603 723 l 1
 487 719 380 714 281 706 c 128
 182 698 126 694 111 691 c 1
 45 531 l 1
 -30 552 l 1
 4 843 l 1
 20 845 77 848 179 854 c 128
 281 860 368 862 439 862 c 1
 794 849 l 1
 791 791 l 1
 557 513 l 2
 473 412 412 320 373 238 c 0
EndSplineSet
Fore
SplineSet
118.06 666 m 1
 150.673 965 l 1
 403.386 976.673 587 961 808.673 945 c 1
 806.627 850 l 1
 623.387 608.692 163.834 53.6836 456 -257 c 1
 416.602 -292.68 384.182 -307.943 343.137 -307.943 c 0
 235 -307.943 161 -212.947 161 -103 c 0
 161 83.6201 415.734 466.96 665.49 796 c 1
 521.446 808 366.161 799 247.49 786 c 1
 194 646 l 1
 118.06 666 l 1
EndSplineSet
Colour: ffffff
EndChar

StartChar: six.osf
Encoding: 218 -1 215
Width: 889
VWidth: 0
Flags: HMW
LayerCount: 2
Fore
SplineSet
796.062 1229 m 1
 821.875 1171 l 1
 542.027 1052 384.649 816 313.289 618 c 1
 323.289 618 l 1
 392.059 686 480.761 722 562.762 722 c 0
 717.114 722 800.058 592.966 800.058 442.061 c 0
 800.058 177.824 571.68 -21 355.081 -21 c 0
 144.255 -21 67 160.069 67 340.553 c 0
 67 759.062 439.794 1118.93 796.062 1229 c 1
259.825 306.292 m 0
 259.825 182.31 295.792 61 385.068 61 c 0
 515.861 61 605.953 218.141 605.953 407.774 c 0
 605.953 508.341 574.033 615 466.812 615 c 0
 392.812 615 326.688 570 296.984 534 c 1
 278.485 459.795 259.825 393.72 259.825 306.292 c 0
EndSplineSet
Colour: ffffff
EndChar

StartChar: three.osf
Encoding: 219 -1 216
Width: 938
VWidth: 0
Flags: HMW
LayerCount: 2
Fore
SplineSet
214.154 -9 m 1
 223.154 -96 265.154 -204 358.154 -204 c 0
 551.921 -204 621.276 -71.6465 621.276 72.6641 c 0
 621.276 186.051 519.526 308.56 354.145 313 c 1
 344.757 380 l 1
 484.65 422.332 675.67 540 675.67 701.953 c 0
 675.67 770.546 647.115 857 572.89 857 c 0
 464.89 857 400.961 788 349.707 698 c 1
 275.983 725 l 1
 311.613 830 474.113 991 652.113 991 c 0
 786.992 991 870.85 875.627 870.85 754.057 c 0
 870.85 566.959 685.005 453.062 583.408 412 c 1
 581.666 401 l 1
 713.782 385.753 818.128 269.154 818.128 131.281 c 0
 818.128 -95.9727 569.787 -297 315.114 -297 c 0
 151.869 -297 67 -213.626 67 -151.289 c 0
 67 -92.3799 128.114 -17.168 214.154 -9 c 1
EndSplineSet
Colour: ffffff
EndChar

StartChar: two.osf
Encoding: 220 -1 217
Width: 905
VWidth: 0
Flags: HMW
LayerCount: 2
Fore
SplineSet
76.1553 102 m 5
 386 288 626.326 444 626.326 698.212 c 4
 626.326 796.606 578.67 867 500.319 867 c 4
 414.319 867 309.856 782 259.909 675 c 5
 189.503 704 l 5
 220.708 800 385.325 987 593.959 991 c 4
 596.043 991.033 598.113 991.049 600.17 991.049 c 4
 761.955 991.049 837.468 869.392 837.97 739.958 c 4
 839 474 527 297 287.282 147 c 5
 658.282 147 l 5
 760.674 301 l 5
 830.248 292 l 5
 730 0 l 5
 67 0 l 5
 76.1553 102 l 5
EndSplineSet
Colour: ffffff
EndChar

StartChar: zero.osf
Encoding: 221 -1 218
Width: 932
VWidth: 0
Flags: HMW
LayerCount: 2
Fore
SplineSet
544.226 985.012 m 1
 546.98 985 l 0
 755.121 982.436 863.53 838.654 863.53 619.194 c 4
 863.53 234.553 601.738 -23 386.328 -23 c 0
 210.995 -23 68 95.0791 68 347.967 c 0
 68 673.971 289.829 985.012 544.226 985.012 c 1
259.239 320.578 m 0
 259.239 138.032 325.704 71 402.216 71 c 0
 531.554 71 675.469 292.944 675.469 644.956 c 0
 675.469 825.256 609.141 900 532.517 900 c 0
 401.067 900 259.239 672.917 259.239 320.578 c 0
EndSplineSet
Colour: ffffff
EndChar

StartChar: uniF001
Encoding: 209 61441 219
Width: 1440
VWidth: 1655
Flags: HMW
LayerCount: 2
Back
SplineSet
35 0 m 1
 47 73 l 1
 199 116 l 1
 199 784 l 1
 50 784 l 1
 62 857 l 1
 200 879 l 1
 233 1167 423 1304 565 1304 c 0
 670 1304 746 1269 746 1189 c 0
 746 1140 690 1090 657 1077 c 1
 608 1156 550 1198 494 1198 c 0
 420 1198 370 1153 368 981 c 2
 366 873 l 1
 623 873 l 1
 611 784 l 1
 366 784 l 1
 366 121 l 1
 611 83 l 1
 604 0 l 1
 35 0 l 1
658 0 m 1
 670 79 l 1
 821 116 l 1
 821 731 l 1
 670 786 l 1
 683 862 l 1
 964 885 l 1
 989 860 l 1
 989 116 l 1
 1149 80 l 1
 1137 0 l 1
 658 0 l 1
777 1194 m 0
 777 1258 833 1306 895 1306 c 0
 961 1306 1019 1256 1019 1192 c 0
 1019 1125 961 1070 895 1070 c 0
 829 1070 777 1127 777 1194 c 0
EndSplineSet
Fore
SplineSet
211 -381 m 0
 125.089 -381 73.2178 -333.839 67 -253 c 1
 67 -204.169 97.8262 -158.516 126 -132 c 1
 192 -196 259 -228 327 -228 c 0
 468 -228 446 0 465 313 c 2
 493 775 l 1
 385 766 l 1
 397 871 l 1
 505 855 l 1
 518 925 l 2
 555.615 1113.24 729.216 1299 966 1299 c 0
 1059.5 1299 1145 1246.57 1145 1163 c 0
 1145 1104.34 1110.84 1064.35 1071 1039 c 1
 1039.79 1104.27 974.071 1164 864 1164 c 0
 676.938 1164 669.25 1023.64 659 850 c 1
 699.536 868.579 937 900.693 1034.26 900.693 c 0
 1137.79 900.693 1187 892 1187 756 c 0
 1187 748 1182 692 1170 569 c 1
 1142 254 l 1
 1138 225 1137 201 1137 181 c 0
 1137 142 1148 123 1171 123 c 0
 1236.28 123 1303.68 195.456 1331 246 c 1
 1373 217 l 1
 1313 57 1217 -23 1085 -23 c 0
 1004.96 -23 972 30.3711 972 108 c 0
 972 145 976 208 985 296 c 1
 1021 601 l 2
 1024.08 627.957 1026.3 650.532 1026.3 669.329 c 0
 1026.3 754.453 990 755 889.223 765.665 c 0
 823.192 772.653 743.532 775.834 679.092 775.834 c 0
 669.652 775.834 660.532 775.681 651.82 775.342 c 1
 611 178 l 2
 587 -170 483 -381 211 -381 c 0
EndSplineSet
Colour: ffffff
EndChar

StartChar: uniF002
Encoding: 210 61442 220
Width: 1397
VWidth: 1655
Flags: HMW
LayerCount: 2
Back
SplineSet
161 -381 m 0
 75.0889 -381 23.2178 -333.839 17 -253 c 1
 17 -204.169 47.8262 -158.516 76 -132 c 1
 142 -196 209 -228 277 -228 c 0
 418 -228 393.361 0.598633 415 313 c 1
 443 765 l 1
 335 756 l 1
 347 861 l 1
 455 845 l 1
 465 925 l 2
 485 1088 618 1287 831 1287 c 4
 954.077 1287 1006 1220 1038.07 1203.65 c 5
 1068 1210 1103.79 1227.21 1151 1266 c 5
 1166 1245 l 5
 1128.37 967 l 25
 1086 623 l 1
 1046 253 l 2
 1043.49 229.735 1042.02 179.952 1042.02 163.34 c 0
 1042.02 128 1055.97 121 1096 121 c 0
 1177.56 121 1194.02 206.129 1228 266 c 1
 1280 246 l 1
 1246 77 1151 -24 1005 -24 c 0
 936 -24 871 3 871 99 c 0
 871 137 877 216 888 295 c 2
 981.698 1065.8 l 5
 934.006 1111.05 858.676 1152 759 1152 c 4
 613 1152 609 987 609 840 c 1
 839 861 l 1
 820 750 l 1
 603 761 l 1
 561 178 l 2
 536 -170 433 -381 161 -381 c 0
641 0 m 1
 653 79 l 1
 805 116 l 1
 805 1117 l 1
 648 1171 l 1
 660 1247 l 1
 947 1269 l 1
 972 1245 l 1
 972 116 l 1
 1131 80 l 1
 1120 0 l 1
 641 0 l 1
35 0 m 1
 47 73 l 1
 199 116 l 1
 199 784 l 1
 50 784 l 1
 62 857 l 1
 200 879 l 1
 203 1153 401 1302 494 1302 c 0
 581 1302 638 1281 638 1214 c 0
 638 1174 604 1136 574 1120 c 1
 550 1147 476 1185 432 1185 c 0
 370 1185 359 1065 363 948 c 2
 366 873 l 1
 623 873 l 1
 611 784 l 1
 366 784 l 1
 366 121 l 1
 611 83 l 1
 604 0 l 1
 35 0 l 1
EndSplineSet
Fore
SplineSet
211 -381 m 0
 125.089 -381 73.2178 -333.839 67 -253 c 1
 67 -204.169 97.8262 -158.516 126 -132 c 1
 192 -196 259 -228 327 -228 c 0
 468 -228 446 0 465 313 c 2
 493 765 l 1
 385 756 l 1
 397 861 l 1
 505 845 l 1
 515 925 l 2
 534.891 1093.4 667.164 1299 879 1299 c 0
 1002.08 1299 1054 1232 1086.07 1215.65 c 1
 1199 1278 l 1
 1214 1257 l 1
 1178.37 967 l 25
 1136 623 l 1
 1096 253 l 2
 1093.49 229.735 1092.02 179.952 1092.02 163.34 c 0
 1092.02 128 1105.97 121 1146 121 c 0
 1227.56 121 1244.02 206.129 1278 266 c 1
 1330 246 l 1
 1296 77 1201 -24 1055 -24 c 0
 986 -24 921 3 921 99 c 0
 921 137 929 216 938 295 c 2
 1029.7 1077.8 l 1
 982.006 1123.05 906.676 1164 807 1164 c 0
 662.947 1164 659 992.654 659 840 c 1
 889 861 l 1
 870 750 l 1
 653 761 l 1
 611 178 l 2
 586 -170 483 -381 211 -381 c 0
EndSplineSet
Colour: ffffff
EndChar

StartChar: OE
Encoding: 222 338 221
Width: 1885
VWidth: 1655
Flags: HW
HStem: -28 148<607.269 871.074> 3 95<1059 1524.86> 9.90759 110.092<661.38 869.638> 569 145<1396.15 1554> 1130 145<619.022 881.452> 1143 109<1188 1617.56>
VStem: 214 209<362.408 797.839> 1650 86<848 908.651> 1667 87<332.552 440>
LayerCount: 2
Back
SplineSet
140.424 619 m 0xa780
 188.574 1009 423.046 1272 817.046 1272 c 0xaf80
 887.046 1272 947.935 1263 998.589 1244 c 1
 1775.59 1244 l 1
 1704.08 924 l 1
 1619.69 937 l 1
 1606.23 1152 l 1
 1137.23 1152 l 1
 1078.46 676 l 1
 1366.46 676 l 1
 1423.28 796 l 1
 1519 810 l 1
 1438.98 421 l 1
 1350.37 408 l 1
 1338.98 583 l 1
 1066.98 583 l 1
 1006.85 96 l 1
 1498.85 96 l 1
 1625.25 326 l 1
 1706.64 313 l 1
 1639 0 l 1
 798 0 l 1x7780
 730.024 -16 659.666 -27 586.666 -27 c 0
 248.666 -27 94.4961 247 140.424 619 c 0xa780
369.462 676 m 0
 337.237 415 382.754 79 642.754 79 c 0
 701.754 79 760.358 92 817.062 122 c 1
 941.02 1126 l 1
 889.094 1159 826.193 1176 756.193 1176 c 0
 538.193 1176 410.699 1010 369.462 676 c 0
EndSplineSet
Fore
SplineSet
457 888 m 0x9a
 434 817 423 734 423 639 c 0
 423 544 436 455 463 375 c 0
 490 295 527 233 577 188 c 0
 627 143 683 120 746 120 c 0
 792.005 120 833.737 130.572 871.407 151.61 c 1
 974.979 994.171 l 1
 956.436 1020.17 935.386 1043.14 912 1063 c 0
 859 1108 798 1130 731 1130 c 0
 664 1130 607 1108 561 1063 c 0
 515 1018 480 959 457 888 c 0x9a
1039.7 1222.04 m 1
 1061.78 1225.87 1088.13 1229.35 1119 1233 c 0
 1264 1246 1397 1252 1519 1252 c 1
 1816 1246 l 1
 1736 835 l 1
 1650 848 l 1x17
 1618 1111 l 1
 1590 1117 l 1
 1495 1136 1372 1145 1221 1143 c 1
 1188 1143 l 1
 1133 680 l 1
 1588 714 l 1
 1554 569 l 1
 1121 578 l 1
 1059 98 l 1
 1276 108 l 1
 1398 115 1482 122 1527 132 c 1
 1550 169 1576 222 1607 292 c 0
 1638 362 1657 415 1667 451 c 1
 1754 440 l 1
 1754 434 l 2
 1754 345 1747 262 1733 182 c 0
 1719 102 1701 41 1677 0 c 1
 1309 2 1102 3 1059 3 c 1x5680
 856.706 9.90723 l 1x3280
 796.22 -15.5918 730.212 -28 658 -28 c 0
 576 -28 500 -4 430 45 c 0
 360 94 307 158 270 238 c 0
 233 318 214 408 214 505 c 0
 214 642 240 769 292 886 c 0
 344 1003 418 1098 513 1169 c 0
 608 1240 717 1275 837 1275 c 0
 911.59 1275 978.79 1257.53 1039.7 1222.04 c 1
EndSplineSet
Colour: ffffff
EndChar

StartChar: oe
Encoding: 223 339 222
Width: 1419
VWidth: 1655
Flags: HW
HStem: -31 134<982.677 1168.26> -21 153<424.5 569.628> 770 125<585.49 774.747> 790 107<1038.91 1190.24>
VStem: 303 154<151.219 467.823> 766.025 159.975<162.375 287> 1198 152<580.982 783.477>
LayerCount: 2
Back
SplineSet
106.596 426 m 0x7c
 144.129 730 353.117 900 576.117 900 c 0
 700.117 900 822.117 819 845.869 736 c 1
 918.117 819 1040.99 899 1178.99 899 c 0
 1323.99 899 1432.78 792 1406.73 581 c 0
 1402.91 550 1385.88 485 1373.68 451 c 1
 890.941 445 l 1
 870.693 281 944.481 93 1125.48 93 c 0
 1195.48 93 1246.47 101 1357.38 157 c 1
 1375.84 104 l 1
 1286.59 21 1160.3 -30 1028.3 -30 c 0xbc
 897.296 -30 812.814 39 754.174 131 c 1
 651.222 18 558.543 -28 437.543 -28 c 0
 173.543 -28 74.8652 169 106.596 426 c 0x7c
294.361 497 m 0
 268.928 291 320.383 76 484.383 76 c 0x7c
 592.383 76 683.915 218 701.324 359 c 0
 725.769 557 693.895 801 522.895 801 c 0
 371.895 801 313.745 654 294.361 497 c 0
902.065 527 m 5
 1218.78 549 l 1
 1224.76 565 1231.96 599 1233.93 615 c 0
 1248.62 734 1213.89 801 1117.89 801 c 0
 1037.89 801 936.018 721 902.065 527 c 5
EndSplineSet
Fore
SplineSet
1198 698 m 0x1e
 1198 760 1171 791 1118 790 c 1
 1006 790 942 664 926 414 c 1
 1107 481 1198 576 1198 698 c 0x1e
1306 849 m 0
 1336 817 1350 777 1350 726 c 0
 1350 630 1301 547 1202 477 c 0
 1121 419 1029 374 926 341 c 1
 930 182 983 103 1088 103 c 0
 1165 103 1234 151 1294 246 c 1
 1331 214 l 1
 1308 147 1266 89 1208 41 c 0
 1150 -7 1083 -31 1007 -31 c 0x9e
 931 -31 873 -2 830 56 c 0
 787.864 112.835 766.852 189.835 766.025 287 c 1
 758 287 l 1
 723 203 677 131 620 70 c 0
 563 9 507 -21 452 -21 c 0
 397 -21 358 0 336 41 c 0
 314 82 303 143 303 225 c 0
 303 307 322 401 360 505 c 0
 398 609 449 701 513 779 c 0
 577 857 641 895 704 895 c 0x6e
 791.938 895 858.938 842.667 905 738 c 1
 915.305 738 l 1
 935.21 763.54 956.775 786.919 980 808 c 0
 1045 867 1112 897 1183 897 c 0
 1235 897 1276 881 1306 849 c 0
457 288 m 0
 457 229 461 188 470 166 c 0
 479 144 495 132 522 132 c 0
 571 132 626 183 689 285 c 0
 752 387 796 512 822 660 c 1
 812 688 793 713 763 736 c 0
 733 759 703 770 671 770 c 0x6e
 639 770 609 754 579 722 c 0
 549 690 526 648 509 595 c 0
 474 491 457 389 457 288 c 0
EndSplineSet
Colour: ffffff
EndChar

